<svg width="18" height="18" viewBox="0 0 18 18" fill="none" xmlns="http://www.w3.org/2000/svg">
<path fill-rule="evenodd" clip-rule="evenodd" d="M9.00006 3.66629C9.00006 5.13884 7.80632 6.33258 6.33377 6.33258C4.86122 6.33258 3.66748 5.13884 3.66748 3.66629C3.66748 2.19374 4.86122 1 6.33377 1C7.80632 1 9.00006 2.19374 9.00006 3.66629Z" stroke="#075FB0" stroke-width="2" stroke-linecap="round" stroke-linejoin="round"/>
<path fill-rule="evenodd" clip-rule="evenodd" d="M11.6663 13.2658C11.6663 15.3229 9.27887 16.9995 6.33258 16.9995C3.38629 16.9995 1 15.3275 1 13.2658C1 11.2041 3.38743 9.5332 6.33372 9.5332C9.28001 9.5332 11.6663 11.2041 11.6663 13.2658Z" stroke="#075FB0" stroke-width="2" stroke-linecap="round" stroke-linejoin="round"/>
<path fill-rule="evenodd" clip-rule="evenodd" d="M14.6441 6.15664C14.6441 7.0403 13.9278 7.75665 13.0441 7.75665C12.1604 7.75665 11.4441 7.0403 11.4441 6.15664C11.4441 5.27299 12.1604 4.55664 13.0441 4.55664C13.4684 4.55664 13.8754 4.72521 14.1755 5.02527C14.4755 5.32533 14.6441 5.7323 14.6441 6.15664Z" stroke="#075FB0" stroke-width="2" stroke-linecap="round" stroke-linejoin="round"/>
<path d="M13.8003 15.9337C15.416 16.0664 16.8399 14.8795 17.0003 13.2663C16.8393 11.6535 15.4156 10.4673 13.8003 10.6" stroke="#075FB0" stroke-width="2" stroke-linecap="round" stroke-linejoin="round"/>
</svg>
