<svg width="16" height="18" viewBox="0 0 16 18" fill="none" xmlns="http://www.w3.org/2000/svg">
<path d="M3.3501 16.8128C3.24672 17.3553 3.60271 17.8789 4.14523 17.9823C4.68775 18.0857 5.21136 17.7297 5.31475 17.1872L3.3501 16.8128ZM8.36379 1.1872C8.46718 0.644675 8.11119 0.121063 7.56867 0.0176775C7.02615 -0.0857084 6.50254 0.270282 6.39915 0.812803L8.36379 1.1872ZM9.44364 16.8242C9.34655 17.3679 9.7086 17.8873 10.2523 17.9844C10.796 18.0815 11.3154 17.7195 11.4125 17.1758L9.44364 16.8242ZM14.2695 1.17579C14.3666 0.6321 14.0046 0.112655 13.4609 0.0155715C12.9172 -0.0815121 12.3978 0.28053 12.3007 0.824215L14.2695 1.17579ZM14.9995 13.2001C15.5518 13.2001 15.9995 12.7524 15.9995 12.2001C15.9995 11.6479 15.5518 11.2001 14.9995 11.2001V13.2001ZM1.28564 11.2001C0.73336 11.2001 0.285645 11.6479 0.285645 12.2001C0.285645 12.7524 0.73336 13.2001 1.28564 13.2001V11.2001ZM14.9999 6.80015C15.5522 6.80015 15.9999 6.35243 15.9999 5.80015C15.9999 5.24786 15.5522 4.80015 14.9999 4.80015V6.80015ZM2.8106 4.80015C2.25831 4.80015 1.8106 5.24786 1.8106 5.80015C1.8106 6.35243 2.25831 6.80015 2.8106 6.80015V4.80015ZM4.33242 17L5.31475 17.1872L8.36379 1.1872L7.38147 1L6.39915 0.812803L3.3501 16.8128L4.33242 17ZM10.4281 17L11.4125 17.1758L14.2695 1.17579L13.2851 1L12.3007 0.824215L9.44364 16.8242L10.4281 17ZM14.9995 12.2001V11.2001H1.28564V12.2001V13.2001H14.9995V12.2001ZM14.9999 5.80015V4.80015H2.8106V5.80015V6.80015H14.9999V5.80015Z" fill="#075FB0"/>
</svg>
