<svg width="20" height="22" viewBox="0 0 20 22" fill="none" xmlns="http://www.w3.org/2000/svg">
<path d="M2.41667 21.8334C1.82083 21.8334 1.31076 21.6213 0.886458 21.197C0.462153 20.7726 0.25 20.2626 0.25 19.6667V4.50008C0.25 3.90425 0.462153 3.39418 0.886458 2.96987C1.31076 2.54557 1.82083 2.33341 2.41667 2.33341H3.5V0.166748H5.66667V2.33341H14.3333V0.166748H16.5V2.33341H17.5833C18.1792 2.33341 18.6892 2.54557 19.1135 2.96987C19.5378 3.39418 19.75 3.90425 19.75 4.50008V19.6667C19.75 20.2626 19.5378 20.7726 19.1135 21.197C18.6892 21.6213 18.1792 21.8334 17.5833 21.8334H2.41667ZM2.41667 19.6667H17.5833V8.83341H2.41667V19.6667ZM2.41667 6.66675H17.5833V4.50008H2.41667V6.66675ZM10 13.1667C9.69306 13.1667 9.43576 13.0629 9.22812 12.8553C9.02049 12.6476 8.91667 12.3904 8.91667 12.0834C8.91667 11.7765 9.02049 11.5192 9.22812 11.3115C9.43576 11.1039 9.69306 11.0001 10 11.0001C10.3069 11.0001 10.5642 11.1039 10.7719 11.3115C10.9795 11.5192 11.0833 11.7765 11.0833 12.0834C11.0833 12.3904 10.9795 12.6476 10.7719 12.8553C10.5642 13.0629 10.3069 13.1667 10 13.1667ZM5.66667 13.1667C5.35972 13.1667 5.10243 13.0629 4.89479 12.8553C4.68715 12.6476 4.58333 12.3904 4.58333 12.0834C4.58333 11.7765 4.68715 11.5192 4.89479 11.3115C5.10243 11.1039 5.35972 11.0001 5.66667 11.0001C5.97361 11.0001 6.2309 11.1039 6.43854 11.3115C6.64618 11.5192 6.75 11.7765 6.75 12.0834C6.75 12.3904 6.64618 12.6476 6.43854 12.8553C6.2309 13.0629 5.97361 13.1667 5.66667 13.1667ZM14.3333 13.1667C14.0264 13.1667 13.7691 13.0629 13.5615 12.8553C13.3538 12.6476 13.25 12.3904 13.25 12.0834C13.25 11.7765 13.3538 11.5192 13.5615 11.3115C13.7691 11.1039 14.0264 11.0001 14.3333 11.0001C14.6403 11.0001 14.8976 11.1039 15.1052 11.3115C15.3128 11.5192 15.4167 11.7765 15.4167 12.0834C15.4167 12.3904 15.3128 12.6476 15.1052 12.8553C14.8976 13.0629 14.6403 13.1667 14.3333 13.1667ZM10 17.5001C9.69306 17.5001 9.43576 17.3963 9.22812 17.1886C9.02049 16.981 8.91667 16.7237 8.91667 16.4167C8.91667 16.1098 9.02049 15.8525 9.22812 15.6449C9.43576 15.4372 9.69306 15.3334 10 15.3334C10.3069 15.3334 10.5642 15.4372 10.7719 15.6449C10.9795 15.8525 11.0833 16.1098 11.0833 16.4167C11.0833 16.7237 10.9795 16.981 10.7719 17.1886C10.5642 17.3963 10.3069 17.5001 10 17.5001ZM5.66667 17.5001C5.35972 17.5001 5.10243 17.3963 4.89479 17.1886C4.68715 16.981 4.58333 16.7237 4.58333 16.4167C4.58333 16.1098 4.68715 15.8525 4.89479 15.6449C5.10243 15.4372 5.35972 15.3334 5.66667 15.3334C5.97361 15.3334 6.2309 15.4372 6.43854 15.6449C6.64618 15.8525 6.75 16.1098 6.75 16.4167C6.75 16.7237 6.64618 16.981 6.43854 17.1886C6.2309 17.3963 5.97361 17.5001 5.66667 17.5001ZM14.3333 17.5001C14.0264 17.5001 13.7691 17.3963 13.5615 17.1886C13.3538 16.981 13.25 16.7237 13.25 16.4167C13.25 16.1098 13.3538 15.8525 13.5615 15.6449C13.7691 15.4372 14.0264 15.3334 14.3333 15.3334C14.6403 15.3334 14.8976 15.4372 15.1052 15.6449C15.3128 15.8525 15.4167 16.1098 15.4167 16.4167C15.4167 16.7237 15.3128 16.981 15.1052 17.1886C14.8976 17.3963 14.6403 17.5001 14.3333 17.5001Z" fill="#075FB0"/>
</svg>
