<svg width="26" height="26" viewBox="0 0 26 26" fill="none" xmlns="http://www.w3.org/2000/svg">
<g clip-path="url(#clip0_1_20013)">
<path d="M16.2502 23.8334V21.6667H20.5835V10.8334H5.41683V15.1667H3.25016V6.50008C3.25016 5.90425 3.46232 5.39418 3.88662 4.96987C4.31093 4.54557 4.821 4.33341 5.41683 4.33341H6.50016V2.16675H8.66683V4.33341H17.3335V2.16675H19.5002V4.33341H20.5835C21.1793 4.33341 21.6894 4.54557 22.1137 4.96987C22.538 5.39418 22.7502 5.90425 22.7502 6.50008V21.6667C22.7502 22.2626 22.538 22.7727 22.1137 23.197C21.6894 23.6213 21.1793 23.8334 20.5835 23.8334H16.2502ZM8.66683 26.0001L7.15016 24.4834L9.93975 21.6667H1.0835V19.5001H9.93975L7.15016 16.6834L8.66683 15.1667L14.0835 20.5834L8.66683 26.0001ZM5.41683 8.66675H20.5835V6.50008H5.41683V8.66675Z" fill="#00732B"/>
</g>
<defs>
<clipPath id="clip0_1_20013">
<rect width="26" height="26" fill="white"/>
</clipPath>
</defs>
</svg>
