<svg width="35" height="36" viewBox="0 0 35 36" fill="none" xmlns="http://www.w3.org/2000/svg">
<rect y="0.927734" width="35" height="35" rx="4" fill="#00732B"/>
<path d="M13.125 25.5V19.875H12V15.75C12 15.3375 12.1469 14.9844 12.4406 14.6906C12.7344 14.3969 13.0875 14.25 13.5 14.25H15.75C16.1625 14.25 16.5156 14.3969 16.8094 14.6906C17.1031 14.9844 17.25 15.3375 17.25 15.75V19.875H16.125V25.5H13.125ZM14.625 13.5C14.2125 13.5 13.8594 13.3531 13.5656 13.0594C13.2719 12.7656 13.125 12.4125 13.125 12C13.125 11.5875 13.2719 11.2344 13.5656 10.9406C13.8594 10.6469 14.2125 10.5 14.625 10.5C15.0375 10.5 15.3906 10.6469 15.6844 10.9406C15.9781 11.2344 16.125 11.5875 16.125 12C16.125 12.4125 15.9781 12.7656 15.6844 13.0594C15.3906 13.3531 15.0375 13.5 14.625 13.5ZM20.25 25.5V21H18L19.9125 15.2625C20.0125 14.9375 20.1969 14.6875 20.4656 14.5125C20.7344 14.3375 21.0375 14.25 21.375 14.25C21.7125 14.25 22.0156 14.3375 22.2844 14.5125C22.5531 14.6875 22.7375 14.9375 22.8375 15.2625L24.75 21H22.5V25.5H20.25ZM21.375 13.5C20.9625 13.5 20.6094 13.3531 20.3156 13.0594C20.0219 12.7656 19.875 12.4125 19.875 12C19.875 11.5875 20.0219 11.2344 20.3156 10.9406C20.6094 10.6469 20.9625 10.5 21.375 10.5C21.7875 10.5 22.1406 10.6469 22.4344 10.9406C22.7281 11.2344 22.875 11.5875 22.875 12C22.875 12.4125 22.7281 12.7656 22.4344 13.0594C22.1406 13.3531 21.7875 13.5 21.375 13.5Z" fill="white"/>
</svg>
