<svg width="20" height="23" viewBox="0 0 20 23" fill="none" xmlns="http://www.w3.org/2000/svg">
<path d="M16.5 18.05C16.9812 18.05 17.3932 17.8738 17.7359 17.5213C18.0786 17.1688 18.25 16.745 18.25 16.25V14.9H14.75V16.25C14.75 16.745 14.9214 17.1688 15.2641 17.5213C15.6068 17.8738 16.0187 18.05 16.5 18.05ZM13 23V22.1H13.875V20.75C13.875 20.2925 13.9789 19.8631 14.1867 19.4619C14.3945 19.0606 14.6844 18.74 15.0562 18.5C14.6844 18.26 14.3945 17.9394 14.1867 17.5381C13.9789 17.1369 13.875 16.7075 13.875 16.25V14.9H13V14H20V14.9H19.125V16.25C19.125 16.7075 19.0211 17.1369 18.8133 17.5381C18.6055 17.9394 18.3156 18.26 17.9437 18.5C18.3156 18.74 18.6055 19.0606 18.8133 19.4619C19.0211 19.8631 19.125 20.2925 19.125 20.75V22.1H20V23H13Z" fill="#E77213"/>
<path d="M5.41699 2.16699H14.083V0H16.25V2.16699H17.333C17.9287 2.16699 18.439 2.37865 18.8633 2.80273C19.2875 3.22696 19.4999 3.73731 19.5 4.33301V11.4609C18.8219 11.2015 18.0935 11.0434 17.333 11.0078V8.66699H2.16699V19.5H10.1631C10.3331 20.2787 10.6316 21.0089 11.0371 21.667H2.16699C1.57124 21.667 1.06099 21.4545 0.636719 21.0303C0.212413 20.606 2.75899e-07 20.0958 0 19.5V4.33301C7.71968e-05 3.73731 0.21249 3.22696 0.636719 2.80273C1.06096 2.37865 1.57131 2.16699 2.16699 2.16699H3.25V0H5.41699V2.16699ZM5.41699 15.167C5.72379 15.1671 5.98091 15.271 6.18848 15.4785C6.39601 15.6861 6.5 15.9431 6.5 16.25C6.5 16.5569 6.39601 16.8139 6.18848 17.0215C5.98091 17.229 5.72379 17.3329 5.41699 17.333C5.11005 17.333 4.85217 17.2291 4.64453 17.0215C4.43711 16.8139 4.33301 16.5568 4.33301 16.25C4.33301 15.9432 4.43711 15.6861 4.64453 15.4785C4.85217 15.2709 5.11005 15.167 5.41699 15.167ZM9.75 15.167C10.0387 15.167 10.2825 15.2596 10.4834 15.4434C10.254 16.0275 10.0988 16.6493 10.0342 17.2979C9.94456 17.32 9.85021 17.333 9.75 17.333C9.44306 17.333 9.18615 17.2291 8.97852 17.0215C8.77088 16.8138 8.66699 16.5569 8.66699 16.25C8.66699 15.9431 8.77088 15.6862 8.97852 15.4785C9.18615 15.2709 9.44306 15.167 9.75 15.167ZM5.41699 10.833C5.72371 10.8331 5.98094 10.9371 6.18848 11.1445C6.39612 11.3522 6.5 11.61 6.5 11.917C6.49993 12.2238 6.39604 12.4809 6.18848 12.6885C5.98091 12.896 5.72379 12.9999 5.41699 13C5.11005 13 4.85217 12.8961 4.64453 12.6885C4.43707 12.4809 4.33308 12.2237 4.33301 11.917C4.33301 11.61 4.43689 11.3522 4.64453 11.1445C4.85217 10.9369 5.11005 10.833 5.41699 10.833ZM9.75 10.833C10.0568 10.833 10.3139 10.9371 10.5215 11.1445C10.7291 11.3522 10.833 11.61 10.833 11.917C10.8329 12.2238 10.729 12.4809 10.5215 12.6885C10.3139 12.896 10.0569 13 9.75 13C9.44314 13 9.18613 12.896 8.97852 12.6885C8.77095 12.4809 8.66707 12.2238 8.66699 11.917C8.66699 11.61 8.77088 11.3522 8.97852 11.1445C9.1861 10.9371 9.44322 10.833 9.75 10.833ZM14.083 10.833C14.39 10.833 14.6478 10.9369 14.8555 11.1445C14.9031 11.1922 14.9447 11.243 14.9814 11.2959C14.2821 11.5062 13.6284 11.8222 13.04 12.2266C13.0136 12.1297 13 12.0265 13 11.917C13 11.61 13.1039 11.3522 13.3115 11.1445C13.5191 10.9371 13.7763 10.8331 14.083 10.833ZM2.16699 6.5H17.333V4.33301H2.16699V6.5Z" fill="#E77213"/>
</svg>
