<svg width="20" height="20" viewBox="0 0 20 20" fill="none" xmlns="http://www.w3.org/2000/svg">
<path d="M9.0835 14.584H10.9168V9.08398H9.0835V14.584ZM10.0002 7.25065C10.2599 7.25065 10.4776 7.1628 10.6533 6.98711C10.829 6.81142 10.9168 6.59371 10.9168 6.33398C10.9168 6.07426 10.829 5.85655 10.6533 5.68086C10.4776 5.50517 10.2599 5.41732 10.0002 5.41732C9.74044 5.41732 9.52273 5.50517 9.34704 5.68086C9.17134 5.85655 9.0835 6.07426 9.0835 6.33398C9.0835 6.59371 9.17134 6.81142 9.34704 6.98711C9.52273 7.1628 9.74044 7.25065 10.0002 7.25065ZM10.0002 19.1673C8.73211 19.1673 7.54044 18.9267 6.42516 18.4454C5.30989 17.9642 4.33975 17.3111 3.51475 16.4861C2.68975 15.6611 2.03662 14.6909 1.55537 13.5757C1.07412 12.4604 0.833496 11.2687 0.833496 10.0007C0.833496 8.7326 1.07412 7.54093 1.55537 6.42565C2.03662 5.31037 2.68975 4.34023 3.51475 3.51523C4.33975 2.69023 5.30989 2.03711 6.42516 1.55586C7.54044 1.07461 8.73211 0.833984 10.0002 0.833984C11.2682 0.833984 12.4599 1.07461 13.5752 1.55586C14.6904 2.03711 15.6606 2.69023 16.4856 3.51523C17.3106 4.34023 17.9637 5.31037 18.445 6.42565C18.9262 7.54093 19.1668 8.7326 19.1668 10.0007C19.1668 11.2687 18.9262 12.4604 18.445 13.5757C17.9637 14.6909 17.3106 15.6611 16.4856 16.4861C15.6606 17.3111 14.6904 17.9642 13.5752 18.4454C12.4599 18.9267 11.2682 19.1673 10.0002 19.1673ZM10.0002 17.334C12.0474 17.334 13.7814 16.6236 15.2022 15.2027C16.6231 13.7819 17.3335 12.0479 17.3335 10.0007C17.3335 7.95343 16.6231 6.2194 15.2022 4.79857C13.7814 3.37773 12.0474 2.66732 10.0002 2.66732C7.95294 2.66732 6.21891 3.37773 4.79808 4.79857C3.37725 6.2194 2.66683 7.95343 2.66683 10.0007C2.66683 12.0479 3.37725 13.7819 4.79808 15.2027C6.21891 16.6236 7.95294 17.334 10.0002 17.334Z" fill="black"/>
</svg>
