<svg width="18" height="18" viewBox="0 0 18 18" fill="none" xmlns="http://www.w3.org/2000/svg">
<path fill-rule="evenodd" clip-rule="evenodd" d="M2.77832 9.00031C2.77888 6.03219 4.87604 3.47779 7.7873 2.89925C10.6986 2.3207 13.6131 3.87914 14.7485 6.62151C15.884 9.36387 14.9241 12.5264 12.4559 14.175C9.98768 15.8237 6.69858 15.4993 4.60003 13.4002C3.43331 12.2332 2.77801 10.6505 2.77832 9.00031V9.00031Z" stroke="#00732B" stroke-width="1.8" stroke-linecap="round" stroke-linejoin="round"/>
<path fill-rule="evenodd" clip-rule="evenodd" d="M6.33398 8.99974C6.33433 7.72777 7.23315 6.63318 8.48077 6.38535C9.72839 6.13752 10.9773 6.80547 11.4638 7.98073C11.9503 9.15598 11.5389 10.5112 10.4811 11.2177C9.42333 11.9241 8.01382 11.785 7.11456 10.8854C6.61457 10.3852 6.33379 9.70694 6.33398 8.99974V8.99974Z" stroke="#00732B" stroke-width="1.8" stroke-linecap="round" stroke-linejoin="round"/>
<path d="M15.2215 8.09981C14.7245 8.09981 14.3215 8.50275 14.3215 8.99981C14.3215 9.49686 14.7245 9.89981 15.2215 9.89981V8.09981ZM16.9998 9.89981C17.4969 9.89981 17.8998 9.49686 17.8998 8.99981C17.8998 8.50275 17.4969 8.09981 16.9998 8.09981V9.89981ZM1 8.09981C0.502944 8.09981 0.1 8.50275 0.1 8.99981C0.1 9.49686 0.502944 9.89981 1 9.89981V8.09981ZM2.77829 9.89981C3.27534 9.89981 3.67829 9.49686 3.67829 8.99981C3.67829 8.50275 3.27534 8.09981 2.77829 8.09981V9.89981ZM8.1 2.77824C8.1 3.2753 8.50294 3.67824 9 3.67824C9.49706 3.67824 9.9 3.2753 9.9 2.77824H8.1ZM9.9 1C9.9 0.502944 9.49706 0.1 9 0.1C8.50294 0.1 8.1 0.502944 8.1 1H9.9ZM8.1 17C8.1 17.4971 8.50294 17.9 9 17.9C9.49706 17.9 9.9 17.4971 9.9 17H8.1ZM9.9 15.2218C9.9 14.7247 9.49706 14.3218 9 14.3218C8.50294 14.3218 8.1 14.7247 8.1 15.2218H9.9ZM15.2215 8.99981V9.89981H16.9998V8.99981V8.09981H15.2215V8.99981ZM1 8.99981V9.89981H2.77829V8.99981V8.09981H1V8.99981ZM9 2.77824H9.9V1H9H8.1V2.77824H9ZM9 17H9.9V15.2218H9H8.1V17H9Z" fill="#00732B"/>
</svg>
