<svg width="16" height="16" viewBox="0 0 16 16" fill="none" xmlns="http://www.w3.org/2000/svg">
<path fill-rule="evenodd" clip-rule="evenodd" d="M11.5668 12.1746C10.8092 12.9301 9.84296 13.4417 8.79228 13.6438C7.73347 13.8488 6.63767 13.7357 5.64306 13.3187C3.60548 12.4656 2.27237 10.4803 2.25386 8.27155C2.24321 6.64785 2.96729 5.10639 4.22379 4.07785C5.48028 3.04932 7.13447 2.64399 8.72416 2.97512C9.77206 3.21281 10.7263 3.75495 11.467 4.53339C12.5057 5.52983 13.1068 6.89756 13.1383 8.33657C13.1488 9.77456 12.5828 11.1568 11.5668 12.1746Z" stroke="#00732B" stroke-width="2" stroke-linecap="round" stroke-linejoin="round"/>
<path d="M10.7613 3.82582C10.3708 4.21633 10.3708 4.84948 10.7613 5.24C11.1518 5.63051 11.785 5.63051 12.1755 5.24L10.7613 3.82582ZM15.4177 1.99804C15.8082 1.60753 15.8082 0.974381 15.4177 0.583867C15.0271 0.193352 14.3939 0.193352 14.0034 0.583867L15.4177 1.99804ZM12.1501 0.275431C11.5979 0.272098 11.1474 0.717092 11.1441 1.26935C11.1408 1.82161 11.5858 2.27201 12.1381 2.27534L12.1501 0.275431ZM14.7036 2.29083C15.2559 2.29416 15.7063 1.84916 15.7096 1.2969C15.713 0.744643 15.268 0.294246 14.7157 0.290913L14.7036 2.29083ZM15.7096 1.28373C15.7063 0.731465 15.2558 0.286471 14.7036 0.289804C14.1513 0.293137 13.7062 0.743535 13.7096 1.2958L15.7096 1.28373ZM13.7251 3.86118C13.7284 4.41344 14.1788 4.85843 14.7311 4.8551C15.2834 4.85177 15.7284 4.40137 15.7251 3.84911L13.7251 3.86118ZM11.4684 4.53291L12.1755 5.24L15.4177 1.99804L14.7105 1.29096L14.0034 0.583867L10.7613 3.82582L11.4684 4.53291ZM12.1441 1.27539L12.1381 2.27534L14.7036 2.29083L14.7096 1.29087L14.7157 0.290913L12.1501 0.275431L12.1441 1.27539ZM14.7096 1.28976L13.7096 1.2958L13.7251 3.86118L14.7251 3.85515L15.7251 3.84911L15.7096 1.28373L14.7096 1.28976Z" fill="#00732B"/>
</svg>
