<svg width="18" height="22" viewBox="0 0 18 22" fill="none" xmlns="http://www.w3.org/2000/svg">
<path fill-rule="evenodd" clip-rule="evenodd" d="M1 8.71498V15.5721C1 18.0969 3.0467 20.1436 5.57143 20.1436H12.4286C14.9533 20.1436 17 18.0969 17 15.5721V8.71498C17 6.19025 14.9533 4.14355 12.4286 4.14355H5.57143C3.0467 4.14355 1 6.19025 1 8.71498Z" stroke="#00732B" stroke-width="1.8" stroke-linecap="round" stroke-linejoin="round"/>
<path d="M11.5286 5.28599C11.5286 5.78305 11.9315 6.18599 12.4286 6.18599C12.9256 6.18599 13.3286 5.78305 13.3286 5.28599H11.5286ZM13.3286 1.85742C13.3286 1.36037 12.9256 0.957422 12.4286 0.957422C11.9315 0.957422 11.5286 1.36037 11.5286 1.85742H13.3286ZM4.67143 5.28599C4.67143 5.78305 5.07437 6.18599 5.57143 6.18599C6.06848 6.18599 6.47143 5.78305 6.47143 5.28599H4.67143ZM6.47143 1.85742C6.47143 1.36037 6.06848 0.957422 5.57143 0.957422C5.07437 0.957422 4.67143 1.36037 4.67143 1.85742H6.47143ZM4.67143 10.1843C4.67143 10.6813 5.07437 11.0843 5.57143 11.0843C6.06848 11.0843 6.47143 10.6813 6.47143 10.1843H4.67143ZM9 10.1843L9.89841 10.2378C9.89947 10.22 9.9 10.2021 9.9 10.1843H9ZM8.27283 11.6487L8.85848 12.3321L8.85848 12.3321L8.27283 11.6487ZM6.71429 12.1431L6.62962 11.2471C6.16742 11.2908 5.81429 11.6789 5.81429 12.1431C5.81429 12.6074 6.16742 12.9955 6.62962 13.0391L6.71429 12.1431ZM8.27283 12.6375L8.85848 11.9541L8.27283 12.6375ZM9 14.102H9.9C9.9 14.0841 9.89947 14.0663 9.89841 14.0485L9 14.102ZM6.47143 14.102C6.47143 13.6049 6.06848 13.202 5.57143 13.202C5.07437 13.202 4.67143 13.6049 4.67143 14.102H6.47143ZM10.7001 9.01061C10.3226 9.33406 10.2789 9.90223 10.6023 10.2796C10.9258 10.6571 11.494 10.7008 11.8714 10.3774L10.7001 9.01061ZM12.4286 8.71456H13.3286C13.3286 8.3631 13.124 8.04379 12.8047 7.89692C12.4854 7.75004 12.1098 7.80248 11.8429 8.03119L12.4286 8.71456ZM11.5286 15.5717C11.5286 16.0688 11.9315 16.4717 12.4286 16.4717C12.9256 16.4717 13.3286 16.0688 13.3286 15.5717H11.5286ZM12.4286 5.28599H13.3286V1.85742H12.4286H11.5286V5.28599H12.4286ZM5.57143 5.28599H6.47143V1.85742H5.57143H4.67143V5.28599H5.57143ZM5.57143 10.1843H6.47143C6.47143 9.99148 6.54149 9.88292 6.65252 9.79834C6.78859 9.69469 7.01489 9.61512 7.28571 9.61512C7.55654 9.61512 7.78284 9.69469 7.9189 9.79834C8.02994 9.88292 8.1 9.99148 8.1 10.1843H9H9.9C9.9 9.39762 9.54149 8.77161 9.00967 8.36648C8.50287 7.98041 7.87203 7.81512 7.28571 7.81512C6.6994 7.81512 6.06856 7.98041 5.56176 8.36648C5.02994 8.77161 4.67143 9.39762 4.67143 10.1843H5.57143ZM9 10.1843L8.10159 10.1307C8.08236 10.4536 7.93278 10.7549 7.68717 10.9654L8.27283 11.6487L8.85848 12.3321C9.47481 11.8039 9.85014 11.048 9.89841 10.2378L9 10.1843ZM8.27283 11.6487L7.68717 10.9654C7.44156 11.1759 7.12098 11.2775 6.79895 11.2471L6.71429 12.1431L6.62962 13.0391C7.43772 13.1155 8.24216 12.8603 8.85848 12.3321L8.27283 11.6487ZM6.71429 12.1431L6.79895 13.0391C7.12098 13.0087 7.44156 13.1104 7.68717 13.3209L8.27283 12.6375L8.85848 11.9541C8.24216 11.4259 7.43772 11.1708 6.62962 11.2471L6.71429 12.1431ZM8.27283 12.6375L7.68717 13.3209C7.93278 13.5314 8.08236 13.8326 8.10159 14.1555L9 14.102L9.89841 14.0485C9.85014 13.2382 9.47481 12.4823 8.85848 11.9541L8.27283 12.6375ZM9 14.102H8.1C8.1 14.2948 8.02994 14.4033 7.9189 14.4879C7.78284 14.5916 7.55654 14.6711 7.28571 14.6711C7.01489 14.6711 6.78859 14.5916 6.65252 14.4879C6.54149 14.4033 6.47143 14.2948 6.47143 14.102H5.57143H4.67143C4.67143 14.8886 5.02994 15.5146 5.56176 15.9198C6.06856 16.3058 6.6994 16.4711 7.28571 16.4711C7.87203 16.4711 8.50287 16.3058 9.00967 15.9198C9.54149 15.5146 9.9 14.8886 9.9 14.102H9ZM11.2857 9.69399L11.8714 10.3774L13.0142 9.39794L12.4286 8.71456L11.8429 8.03119L10.7001 9.01061L11.2857 9.69399ZM12.4286 8.71456H11.5286V15.5717H12.4286H13.3286V8.71456H12.4286Z" fill="#00732B"/>
</svg>
