<svg width="18" height="18" viewBox="0 0 18 18" fill="none" xmlns="http://www.w3.org/2000/svg">
<path fill-rule="evenodd" clip-rule="evenodd" d="M17.0225 3.49936V13.8454C17.0225 14.4323 16.7646 14.9896 16.3173 15.3696C15.87 15.7496 15.2783 15.9139 14.699 15.819L12.1333 15.3996L5.9116 16.9996L2.70018 16.4739C1.73287 16.3159 1.02253 15.4803 1.02246 14.5002V4.1542C1.02245 3.56725 1.28028 3.00993 1.72762 2.62993C2.17496 2.24993 2.76665 2.08562 3.34589 2.18054L5.9116 2.59996L12.1333 1L15.3447 1.5257C16.3121 1.68363 17.0224 2.51927 17.0225 3.49936Z" stroke="#00732B" stroke-width="1.8" stroke-linecap="round" stroke-linejoin="round"/>
<path d="M6.81197 2.6004C6.81197 2.10335 6.40903 1.7004 5.91197 1.7004C5.41491 1.7004 5.01197 2.10335 5.01197 2.6004H6.81197ZM5.01197 17C5.01197 17.4971 5.41491 17.9 5.91197 17.9C6.40903 17.9 6.81197 17.4971 6.81197 17H5.01197ZM13.0341 1C13.0341 0.502944 12.6311 0.1 12.1341 0.1C11.637 0.1 11.2341 0.502944 11.2341 1H13.0341ZM11.2341 15.3996C11.2341 15.8967 11.637 16.2996 12.1341 16.2996C12.6311 16.2996 13.0341 15.8967 13.0341 15.3996H11.2341ZM5.91197 2.6004H5.01197V17H5.91197H6.81197V2.6004H5.91197ZM12.1341 1H11.2341V15.3996H12.1341H13.0341V1H12.1341Z" fill="#00732B"/>
</svg>
