<svg width="16" height="18" viewBox="0 0 16 18" fill="none" xmlns="http://www.w3.org/2000/svg">
<path fill-rule="evenodd" clip-rule="evenodd" d="M2.56086 7.04394C2.56023 5.94976 2.8793 4.87924 3.47886 3.96394C4.07255 3.05596 4.92296 2.34514 5.92186 1.92194C7.25389 1.35935 8.75683 1.35935 10.0889 1.92194C11.0881 2.34498 11.9389 3.05581 12.5329 3.96394C13.7516 5.82579 13.7587 8.23098 12.5509 10.0999L15.0059 14.4719L12.4199 13.9719L11.5929 16.4999L9.31386 12.4249C8.45529 12.6414 7.55643 12.6414 6.69786 12.4249L4.41886 16.4999L3.59186 13.9709L1.00586 14.4719L3.46086 10.0999C2.87216 9.18951 2.55959 8.12813 2.56086 7.04394V7.04394Z" stroke="#00732B" stroke-width="1.5" stroke-linecap="round" stroke-linejoin="round"/>
<path fill-rule="evenodd" clip-rule="evenodd" d="M7.74971 4.82649C7.79788 4.72883 7.89732 4.66699 8.00621 4.66699C8.1151 4.66699 8.21455 4.72883 8.26271 4.82649L8.79371 5.87249C8.83337 5.95166 8.90703 6.00838 8.99371 6.02649L10.1057 6.24949C10.2075 6.27353 10.2895 6.34889 10.3219 6.44834C10.3544 6.5478 10.3327 6.65699 10.2647 6.73649L9.47071 7.63649C9.4148 7.70045 9.38864 7.78513 9.39871 7.86949L9.54571 9.08749C9.56061 9.19398 9.51535 9.29997 9.42814 9.36287C9.34092 9.42577 9.22606 9.43524 9.12971 9.38749L8.12971 8.87949C8.04872 8.838 7.95271 8.838 7.87171 8.87949L6.87171 9.38749C6.77537 9.43524 6.66051 9.42577 6.57329 9.36287C6.48607 9.29997 6.44082 9.19398 6.45571 9.08749L6.60271 7.87249C6.61279 7.78813 6.58662 7.70345 6.53071 7.63949L5.73671 6.73949C5.66709 6.65861 5.64567 6.54683 5.68046 6.44594C5.71526 6.34505 5.80103 6.27024 5.90571 6.24949L7.01771 6.02549C7.1044 6.00738 7.17806 5.95066 7.21771 5.87149L7.74971 4.82649Z" stroke="#00732B" stroke-width="1.5" stroke-linecap="round" stroke-linejoin="round"/>
<path d="M4.08929 9.69012C3.86313 9.3431 3.39848 9.24511 3.05145 9.47126C2.70442 9.69741 2.60644 10.1621 2.83259 10.5091L4.08929 9.69012ZM4.16094 10.9676L4.6966 10.4427L4.69425 10.4403L4.16094 10.9676ZM6.38794 12.3396L6.61685 11.6254L6.61589 11.6251L6.38794 12.3396ZM6.51996 13.1569C6.92166 13.258 7.32922 13.0143 7.43027 12.6126C7.53133 12.2109 7.28761 11.8033 6.88592 11.7023L6.51996 13.1569ZM13.1793 10.5091C13.4054 10.1621 13.3075 9.69741 12.9604 9.47126C12.6134 9.24511 12.1487 9.3431 11.9226 9.69012L13.1793 10.5091ZM11.8509 10.9676L11.3176 10.4403L11.3153 10.4427L11.8509 10.9676ZM9.62394 12.3396L9.39599 11.6251L9.39502 11.6254L9.62394 12.3396ZM9.12596 11.7023C8.72426 11.8033 8.48054 12.2109 8.5816 12.6126C8.68266 13.0143 9.09022 13.258 9.49192 13.1569L9.12596 11.7023ZM3.46094 10.0996L2.83259 10.5091C3.06367 10.8637 3.33004 11.194 3.62763 11.4949L4.16094 10.9676L4.69425 10.4403C4.46781 10.2113 4.26512 9.95994 4.08929 9.69012L3.46094 10.0996ZM4.16094 10.9676L3.62528 11.4926C4.33026 12.2119 5.20043 12.748 6.15999 13.0541L6.38794 12.3396L6.61589 11.6251C5.8893 11.3933 5.23041 10.9874 4.6966 10.4427L4.16094 10.9676ZM6.38794 12.3396L6.15902 13.0538C6.2782 13.092 6.39852 13.1264 6.51996 13.1569L6.70294 12.4296L6.88592 11.7023C6.79535 11.6795 6.70567 11.6539 6.61685 11.6254L6.38794 12.3396ZM12.5509 10.0996L11.9226 9.69012C11.7468 9.95994 11.5441 10.2113 11.3176 10.4403L11.8509 10.9676L12.3842 11.4949C12.6818 11.194 12.9482 10.8637 13.1793 10.5091L12.5509 10.0996ZM11.8509 10.9676L11.3153 10.4427C10.7815 10.9874 10.1226 11.3933 9.39599 11.6251L9.62394 12.3396L9.85189 13.0541C10.8115 12.748 11.6816 12.2119 12.3866 11.4926L11.8509 10.9676ZM9.62394 12.3396L9.39502 11.6254C9.3062 11.6539 9.21653 11.6795 9.12596 11.7023L9.30894 12.4296L9.49192 13.1569C9.61335 13.1264 9.73367 13.092 9.85285 13.0538L9.62394 12.3396Z" fill="#00732B"/>
</svg>
