<svg width="23" height="16" viewBox="0 0 23 16" fill="none" xmlns="http://www.w3.org/2000/svg">
<path fill-rule="evenodd" clip-rule="evenodd" d="M13.9184 3.281C13.9172 4.5394 12.8964 5.55874 11.638 5.558C10.3796 5.55726 9.35998 4.53673 9.36035 3.27833C9.36072 2.01994 10.381 1 11.6394 1C12.244 1.00027 12.8239 1.24073 13.2513 1.6685C13.6787 2.09627 13.9186 2.67631 13.9184 3.281Z" stroke="#00732B" stroke-width="1.8" stroke-linecap="round" stroke-linejoin="round"/>
<path fill-rule="evenodd" clip-rule="evenodd" d="M13.9912 8.91895H9.29121C7.64916 8.97053 6.34473 10.3166 6.34473 11.9594C6.34473 13.6023 7.64916 14.9484 9.29121 14.9999H13.9912C15.6333 14.9484 16.9377 13.6023 16.9377 11.9594C16.9377 10.3166 15.6333 8.97053 13.9912 8.91895V8.91895Z" stroke="#00732B" stroke-width="1.8" stroke-linecap="round" stroke-linejoin="round"/>
<path fill-rule="evenodd" clip-rule="evenodd" d="M19.6823 5.02427C19.6817 5.98678 18.9011 6.76664 17.9386 6.76627C16.9761 6.76591 16.1961 5.98544 16.1963 5.02294C16.1965 4.06044 16.9768 3.28027 17.9393 3.28027C18.4017 3.28027 18.8452 3.46405 19.1721 3.79114C19.499 4.11823 19.6826 4.56183 19.6823 5.02427V5.02427Z" stroke="#00732B" stroke-width="1.8" stroke-linecap="round" stroke-linejoin="round"/>
<path fill-rule="evenodd" clip-rule="evenodd" d="M3.32861 5.02425C3.32861 5.98688 4.10898 6.76725 5.07161 6.76725C6.03425 6.76725 6.81461 5.98688 6.81461 5.02425C6.81461 4.06162 6.03425 3.28125 5.07161 3.28125C4.10898 3.28125 3.32861 4.06162 3.32861 5.02425V5.02425Z" stroke="#00732B" stroke-width="1.8" stroke-linecap="round" stroke-linejoin="round"/>
<path d="M18.4314 8.68887C17.9343 8.68887 17.5314 9.09181 17.5314 9.58887C17.5314 10.0859 17.9343 10.4889 18.4314 10.4889V8.68887ZM19.7384 9.58887L19.7571 8.68906C19.7508 8.68893 19.7446 8.68887 19.7384 8.68887V9.58887ZM19.7384 14.2399V15.1399C19.7446 15.1399 19.7508 15.1398 19.7571 15.1397L19.7384 14.2399ZM18.4314 13.3399C17.9343 13.3399 17.5314 13.7428 17.5314 14.2399C17.5314 14.7369 17.9343 15.1399 18.4314 15.1399V13.3399ZM4.5794 10.4889C5.07646 10.4889 5.4794 10.0859 5.4794 9.58887C5.4794 9.09181 5.07646 8.68887 4.5794 8.68887V10.4889ZM3.2724 9.58887V8.68887C3.26618 8.68887 3.25996 8.68893 3.25374 8.68906L3.2724 9.58887ZM3.2724 14.2399L3.25374 15.1397C3.25996 15.1398 3.26618 15.1399 3.2724 15.1399V14.2399ZM4.5794 15.1399C5.07646 15.1399 5.4794 14.7369 5.4794 14.2399C5.4794 13.7428 5.07646 13.3399 4.5794 13.3399V15.1399ZM18.4314 9.58887V10.4889H19.7384V9.58887V8.68887H18.4314V9.58887ZM19.7384 9.58887L19.7197 10.4887C20.4956 10.5048 21.1162 11.1383 21.1162 11.9144H22.0162H22.9162C22.9162 10.1588 21.5123 8.72546 19.7571 8.68906L19.7384 9.58887ZM22.0162 11.9144H21.1162C21.1162 12.6904 20.4956 13.324 19.7197 13.3401L19.7384 14.2399L19.7571 15.1397C21.5123 15.1033 22.9162 13.67 22.9162 11.9144H22.0162ZM19.7384 14.2399V13.3399H18.4314V14.2399V15.1399H19.7384V14.2399ZM4.5794 9.58887V8.68887H3.2724V9.58887V10.4889H4.5794V9.58887ZM3.2724 9.58887L3.25374 8.68906C1.49852 8.72546 0.0946289 10.1588 0.0946289 11.9144H0.994629H1.89463C1.89463 11.1383 2.51519 10.5048 3.29106 10.4887L3.2724 9.58887ZM0.994629 11.9144H0.0946289C0.0946289 13.67 1.49852 15.1033 3.25374 15.1397L3.2724 14.2399L3.29106 13.3401C2.51519 13.324 1.89463 12.6904 1.89463 11.9144H0.994629ZM3.2724 14.2399V15.1399H4.5794V14.2399V13.3399H3.2724V14.2399Z" fill="#00732B"/>
</svg>
