<svg width="20" height="16" viewBox="0 0 20 16" fill="none" xmlns="http://www.w3.org/2000/svg">
<mask id="path-1-inside-1_1_4461" fill="white">
<path d="M10.167 0.5C11.1712 0.5 12.0278 1.25984 12.3601 2.32714C12.5243 2.85445 12.9555 3.3125 13.5078 3.3125H16.3887C16.8568 3.3125 17.2622 3.63715 17.3645 4.09388L19.6469 14.2814C19.7869 14.9063 19.3116 15.5 18.6711 15.5H1.66289C1.02243 15.5 0.547064 14.9063 0.68708 14.2814L2.96947 4.09388C3.0718 3.63715 3.47723 3.3125 3.94528 3.3125H6.82617C7.37846 3.3125 7.80967 2.85445 7.97387 2.32714C8.3062 1.25986 9.16277 0.500024 10.167 0.5Z"/>
</mask>
<path d="M10.167 0.5V-1.3H10.167L10.167 0.5ZM7.97387 2.32714L6.25526 1.79199L7.97387 2.32714ZM0.68708 14.2814L-1.06938 13.8879L0.68708 14.2814ZM19.6469 14.2814L21.4034 13.8879L19.6469 14.2814ZM17.3645 4.09388L15.6081 4.4874L17.3645 4.09388ZM12.3601 2.32714L14.0787 1.79201L12.3601 2.32714ZM10.167 0.5V2.3C10.1973 2.3 10.2589 2.30773 10.3511 2.38599C10.4498 2.46971 10.5679 2.62596 10.6415 2.86227L12.3601 2.32714L14.0787 1.79201C13.5761 0.177802 12.1551 -1.3 10.167 -1.3V0.5ZM13.5078 3.3125V5.1125H16.3887V3.3125V1.5125H13.5078V3.3125ZM17.3645 4.09388L15.6081 4.4874L17.8904 14.6749L19.6469 14.2814L21.4034 13.8879L19.121 3.70037L17.3645 4.09388ZM18.6711 15.5V13.7H1.66289V15.5V17.3H18.6711V15.5ZM0.68708 14.2814L2.44354 14.6749L4.72593 4.48739L2.96947 4.09388L1.21301 3.70037L-1.06938 13.8879L0.68708 14.2814ZM3.94528 3.3125V5.1125H6.82617V3.3125V1.5125H3.94528V3.3125ZM7.97387 2.32714L9.69248 2.86229C9.76605 2.62599 9.88415 2.46974 9.98286 2.38601C10.0751 2.30774 10.1367 2.3 10.167 2.3L10.167 0.5L10.167 -1.3C8.17892 -1.29995 6.75789 0.177798 6.25526 1.79199L7.97387 2.32714ZM6.82617 3.3125V5.1125C8.45931 5.1125 9.39463 3.8188 9.69248 2.86229L7.97387 2.32714L6.25526 1.79199C6.25747 1.7849 6.26832 1.74638 6.33104 1.68904C6.40443 1.62195 6.57647 1.5125 6.82617 1.5125V3.3125ZM2.96947 4.09388L4.72593 4.48739C4.64407 4.85278 4.31972 5.1125 3.94528 5.1125V3.3125V1.5125C2.63474 1.5125 1.49952 2.42152 1.21301 3.70037L2.96947 4.09388ZM1.66289 15.5V13.7C2.17526 13.7 2.55555 14.1749 2.44354 14.6749L0.68708 14.2814L-1.06938 13.8879C-1.46142 15.6378 -0.130392 17.3 1.66289 17.3V15.5ZM19.6469 14.2814L17.8904 14.6749C17.7784 14.1749 18.1587 13.7 18.6711 13.7V15.5V17.3C20.4644 17.3 21.7954 15.6378 21.4034 13.8879L19.6469 14.2814ZM16.3887 3.3125V5.1125C16.0143 5.1125 15.6899 4.85278 15.6081 4.4874L17.3645 4.09388L19.121 3.70037C18.8345 2.42153 17.6992 1.5125 16.3887 1.5125V3.3125ZM12.3601 2.32714L10.6415 2.86227C10.9393 3.8188 11.8747 5.1125 13.5078 5.1125V3.3125V1.5125C13.7575 1.5125 13.9296 1.62195 14.0029 1.68904C14.0657 1.74638 14.0765 1.78491 14.0787 1.79201L12.3601 2.32714Z" fill="#00732B" mask="url(#path-1-inside-1_1_4461)"/>
</svg>
