<svg width="40" height="40" viewBox="0 0 40 40" fill="none" xmlns="http://www.w3.org/2000/svg">
<rect width="40" height="40" rx="20" fill="#00732B"/>
<path d="M13.518 29.2588C12.7464 29.2588 12.0905 28.9887 11.5504 28.4486C11.0103 27.9084 10.7402 27.2526 10.7402 26.481C10.7402 25.8791 10.9138 25.3429 11.2611 24.8722C11.6083 24.4015 12.052 24.0659 12.5921 23.8652V16.1338C12.052 15.9331 11.6083 15.5975 11.2611 15.1268C10.9138 14.6561 10.7402 14.1199 10.7402 13.518C10.7402 12.7464 11.0103 12.0905 11.5504 11.5504C12.0905 11.0103 12.7464 10.7402 13.518 10.7402C14.1199 10.7402 14.6561 10.9138 15.1268 11.2611C15.5975 11.6083 15.9331 12.052 16.1338 12.5921H23.8652C24.0504 12.052 24.3784 11.6083 24.849 11.2611C25.3197 10.9138 25.8637 10.7402 26.481 10.7402C27.2526 10.7402 27.9084 11.0103 28.4486 11.5504C28.9887 12.0905 29.2588 12.7464 29.2588 13.518C29.2588 14.1353 29.0851 14.6793 28.7379 15.15C28.3907 15.6206 27.947 15.9486 27.4069 16.1338V23.8652C27.947 24.0659 28.3907 24.4015 28.7379 24.8722C29.0851 25.3429 29.2588 25.8791 29.2588 26.481C29.2588 27.2526 28.9887 27.9084 28.4486 28.4486C27.9084 28.9887 27.2526 29.2588 26.481 29.2588C25.8791 29.2588 25.3429 29.0851 24.8722 28.7379C24.4015 28.3907 24.0659 27.947 23.8652 27.4069H16.1338C15.9331 27.947 15.5975 28.3907 15.1268 28.7379C14.6561 29.0851 14.1199 29.2588 13.518 29.2588ZM13.518 14.4439C13.7804 14.4439 14.0003 14.3552 14.1777 14.1777C14.3552 14.0003 14.4439 13.7804 14.4439 13.518C14.4439 13.2557 14.3552 13.0358 14.1777 12.8583C14.0003 12.6808 13.7804 12.5921 13.518 12.5921C13.2557 12.5921 13.0358 12.6808 12.8583 12.8583C12.6808 13.0358 12.5921 13.2557 12.5921 13.518C12.5921 13.7804 12.6808 14.0003 12.8583 14.1777C13.0358 14.3552 13.2557 14.4439 13.518 14.4439ZM26.481 14.4439C26.7433 14.4439 26.9632 14.3552 27.1407 14.1777C27.3182 14.0003 27.4069 13.7804 27.4069 13.518C27.4069 13.2557 27.3182 13.0358 27.1407 12.8583C26.9632 12.6808 26.7433 12.5921 26.481 12.5921C26.2186 12.5921 25.9987 12.6808 25.8213 12.8583C25.6438 13.0358 25.555 13.2557 25.555 13.518C25.555 13.7804 25.6438 14.0003 25.8213 14.1777C25.9987 14.3552 26.2186 14.4439 26.481 14.4439ZM16.1338 25.555H23.8652C24.0041 25.1538 24.2202 24.8066 24.5134 24.5134C24.8066 24.2202 25.1538 24.0041 25.555 23.8652V16.1338C25.1538 15.9949 24.8066 15.7788 24.5134 15.4856C24.2202 15.1924 24.0041 14.8452 23.8652 14.4439H16.1338C15.9949 14.8452 15.7788 15.1924 15.4856 15.4856C15.1924 15.7788 14.8452 15.9949 14.4439 16.1338V23.8652C14.8452 24.0041 15.1924 24.2202 15.4856 24.5134C15.7788 24.8066 15.9949 25.1538 16.1338 25.555ZM26.481 27.4069C26.7433 27.4069 26.9632 27.3182 27.1407 27.1407C27.3182 26.9632 27.4069 26.7433 27.4069 26.481C27.4069 26.2186 27.3182 25.9987 27.1407 25.8213C26.9632 25.6438 26.7433 25.555 26.481 25.555C26.2186 25.555 25.9987 25.6438 25.8213 25.8213C25.6438 25.9987 25.555 26.2186 25.555 26.481C25.555 26.7433 25.6438 26.9632 25.8213 27.1407C25.9987 27.3182 26.2186 27.4069 26.481 27.4069ZM13.518 27.4069C13.7804 27.4069 14.0003 27.3182 14.1777 27.1407C14.3552 26.9632 14.4439 26.7433 14.4439 26.481C14.4439 26.2186 14.3552 25.9987 14.1777 25.8213C14.0003 25.6438 13.7804 25.555 13.518 25.555C13.2557 25.555 13.0358 25.6438 12.8583 25.8213C12.6808 25.9987 12.5921 26.2186 12.5921 26.481C12.5921 26.7433 12.6808 26.9632 12.8583 27.1407C13.0358 27.3182 13.2557 27.4069 13.518 27.4069Z" fill="white"/>
</svg>
