<svg width="18" height="18" viewBox="0 0 18 18" fill="none" xmlns="http://www.w3.org/2000/svg">
<path d="M3.75 16.5C3.125 16.5 2.59375 16.2812 2.15625 15.8437C1.71875 15.4062 1.5 14.875 1.5 14.25C1.5 13.7625 1.64062 13.3281 1.92187 12.9469C2.20312 12.5656 2.5625 12.2937 3 12.1312V5.86875C2.5625 5.70625 2.20312 5.43437 1.92187 5.05312C1.64062 4.67187 1.5 4.2375 1.5 3.75C1.5 3.125 1.71875 2.59375 2.15625 2.15625C2.59375 1.71875 3.125 1.5 3.75 1.5C4.2375 1.5 4.67187 1.64062 5.05312 1.92187C5.43437 2.20312 5.70625 2.5625 5.86875 3H12.1312C12.2812 2.5625 12.5469 2.20312 12.9281 1.92187C13.3094 1.64062 13.75 1.5 14.25 1.5C14.875 1.5 15.4062 1.71875 15.8437 2.15625C16.2812 2.59375 16.5 3.125 16.5 3.75C16.5 4.25 16.3594 4.69062 16.0781 5.07187C15.7969 5.45312 15.4375 5.71875 15 5.86875V12.1312C15.4375 12.2937 15.7969 12.5656 16.0781 12.9469C16.3594 13.3281 16.5 13.7625 16.5 14.25C16.5 14.875 16.2812 15.4062 15.8437 15.8437C15.4062 16.2812 14.875 16.5 14.25 16.5C13.7625 16.5 13.3281 16.3594 12.9469 16.0781C12.5656 15.7969 12.2937 15.4375 12.1312 15H5.86875C5.70625 15.4375 5.43437 15.7969 5.05312 16.0781C4.67187 16.3594 4.2375 16.5 3.75 16.5ZM3.75 4.5C3.9625 4.5 4.14062 4.42812 4.28437 4.28437C4.42812 4.14062 4.5 3.9625 4.5 3.75C4.5 3.5375 4.42812 3.35937 4.28437 3.21562C4.14062 3.07187 3.9625 3 3.75 3C3.5375 3 3.35937 3.07187 3.21562 3.21562C3.07187 3.35937 3 3.5375 3 3.75C3 3.9625 3.07187 4.14062 3.21562 4.28437C3.35937 4.42812 3.5375 4.5 3.75 4.5ZM14.25 4.5C14.4625 4.5 14.6406 4.42812 14.7844 4.28437C14.9281 4.14062 15 3.9625 15 3.75C15 3.5375 14.9281 3.35937 14.7844 3.21562C14.6406 3.07187 14.4625 3 14.25 3C14.0375 3 13.8594 3.07187 13.7156 3.21562C13.5719 3.35937 13.5 3.5375 13.5 3.75C13.5 3.9625 13.5719 4.14062 13.7156 4.28437C13.8594 4.42812 14.0375 4.5 14.25 4.5ZM5.86875 13.5H12.1312C12.2437 13.175 12.4187 12.8937 12.6562 12.6562C12.8937 12.4187 13.175 12.2437 13.5 12.1312V5.86875C13.175 5.75625 12.8937 5.58125 12.6562 5.34375C12.4187 5.10625 12.2437 4.825 12.1312 4.5H5.86875C5.75625 4.825 5.58125 5.10625 5.34375 5.34375C5.10625 5.58125 4.825 5.75625 4.5 5.86875V12.1312C4.825 12.2437 5.10625 12.4187 5.34375 12.6562C5.58125 12.8937 5.75625 13.175 5.86875 13.5ZM14.25 15C14.4625 15 14.6406 14.9281 14.7844 14.7844C14.9281 14.6406 15 14.4625 15 14.25C15 14.0375 14.9281 13.8594 14.7844 13.7156C14.6406 13.5719 14.4625 13.5 14.25 13.5C14.0375 13.5 13.8594 13.5719 13.7156 13.7156C13.5719 13.8594 13.5 14.0375 13.5 14.25C13.5 14.4625 13.5719 14.6406 13.7156 14.7844C13.8594 14.9281 14.0375 15 14.25 15ZM3.75 15C3.9625 15 4.14062 14.9281 4.28437 14.7844C4.42812 14.6406 4.5 14.4625 4.5 14.25C4.5 14.0375 4.42812 13.8594 4.28437 13.7156C4.14062 13.5719 3.9625 13.5 3.75 13.5C3.5375 13.5 3.35937 13.5719 3.21562 13.7156C3.07187 13.8594 3 14.0375 3 14.25C3 14.4625 3.07187 14.6406 3.21562 14.7844C3.35937 14.9281 3.5375 15 3.75 15Z" fill="#00732B"/>
</svg>
