<svg width="21" height="17" viewBox="0 0 21 17" fill="none" xmlns="http://www.w3.org/2000/svg">
<path fill-rule="evenodd" clip-rule="evenodd" d="M12.875 3.85449C12.875 5.16617 11.8117 6.22949 10.5 6.22949C9.18832 6.22949 8.125 5.16617 8.125 3.85449C8.125 2.54282 9.18832 1.47949 10.5 1.47949C11.8117 1.47949 12.875 2.54282 12.875 3.85449Z" stroke="#00732B" stroke-width="1.5" stroke-linecap="round" stroke-linejoin="round"/>
<path fill-rule="evenodd" clip-rule="evenodd" d="M15.25 12.2543C15.25 14.0543 13.123 15.5213 10.5 15.5213C7.877 15.5213 5.75 14.0583 5.75 12.2543C5.75 10.4503 7.877 8.98828 10.5 8.98828C13.123 8.98828 15.25 10.4503 15.25 12.2543Z" stroke="#00732B" stroke-width="1.5" stroke-linecap="round" stroke-linejoin="round"/>
<path fill-rule="evenodd" clip-rule="evenodd" d="M17.8996 6.03287C17.9098 6.61139 17.5691 7.13862 17.0375 7.36708C16.5059 7.59554 15.8889 7.47988 15.4762 7.07437C15.0634 6.66886 14.9369 6.05403 15.1559 5.51847C15.3749 4.98291 15.896 4.63295 16.4746 4.63287C17.2546 4.62621 17.8925 5.25287 17.8996 6.03287V6.03287Z" stroke="#00732B" stroke-width="1.5" stroke-linecap="round" stroke-linejoin="round"/>
<path fill-rule="evenodd" clip-rule="evenodd" d="M3.09983 6.03287C3.08968 6.61139 3.43036 7.13862 3.96196 7.36708C4.49356 7.59554 5.11054 7.47988 5.52328 7.07437C5.93603 6.66886 6.0626 6.05403 5.84358 5.51847C5.62456 4.98291 5.10344 4.63295 4.52483 4.63287C3.74483 4.62621 3.10698 5.25287 3.09983 6.03287Z" stroke="#00732B" stroke-width="1.5" stroke-linecap="round" stroke-linejoin="round"/>
<path d="M17.2169 13.8418C16.8043 13.8048 16.4399 14.1093 16.403 14.5219C16.366 14.9345 16.6705 15.2989 17.0831 15.3358L17.2169 13.8418ZM20 12.2548L20.7455 12.3365C20.7515 12.2821 20.7515 12.2272 20.7455 12.1728L20 12.2548ZM17.0831 9.17477C16.6705 9.21173 16.366 9.57614 16.403 9.9887C16.4399 10.4013 16.8044 10.7058 17.2169 10.6688L17.0831 9.17477ZM3.91689 15.3358C4.32945 15.2989 4.63395 14.9345 4.59701 14.5219C4.56007 14.1093 4.19567 13.8048 3.78311 13.8418L3.91689 15.3358ZM1 12.2548L0.254491 12.1728C0.248513 12.2272 0.248503 12.2821 0.25446 12.3365L1 12.2548ZM3.78308 10.6688C4.19564 10.7058 4.56005 10.4013 4.59701 9.9887C4.63397 9.57614 4.32948 9.21173 3.91692 9.17477L3.78308 10.6688ZM17.15 14.5888L17.0831 15.3358C18.9169 15.5 20.545 14.1667 20.7455 12.3365L20 12.2548L19.2545 12.1731C19.1429 13.1913 18.2371 13.9331 17.2169 13.8418L17.15 14.5888ZM20 12.2548L20.7455 12.1728C20.5444 10.3431 18.9165 9.01053 17.0831 9.17477L17.15 9.92178L17.2169 10.6688C18.2369 10.5774 19.1426 11.3188 19.2545 12.3367L20 12.2548ZM3.85 14.5888L3.78311 13.8418C2.76287 13.9331 1.85709 13.1913 1.74554 12.1731L1 12.2548L0.25446 12.3365C0.454964 14.1667 2.08306 15.5 3.91689 15.3358L3.85 14.5888ZM1 12.2548L1.74551 12.3367C1.85742 11.3188 2.76309 10.5774 3.78308 10.6688L3.85 9.92178L3.91692 9.17477C2.08354 9.01053 0.455639 10.3431 0.254491 12.1728L1 12.2548Z" fill="#00732B"/>
</svg>
