<svg width="20" height="20" viewBox="0 0 20 20" fill="none" xmlns="http://www.w3.org/2000/svg">
<path d="M9.16666 15.8333C7.77777 15.8333 6.59722 15.3471 5.625 14.3749C4.65278 13.4027 4.16666 12.2221 4.16666 10.8333C4.16666 10.6805 4.17361 10.5277 4.1875 10.3749C4.20139 10.2221 4.22222 10.0694 4.25 9.91659C4.18055 9.94436 4.09722 9.9652 4 9.97909C3.90278 9.99297 3.81944 9.99992 3.75 9.99992C3.16666 9.99992 2.67361 9.79853 2.27083 9.39575C1.86805 8.99297 1.66666 8.49992 1.66666 7.91659C1.66666 7.33325 1.85764 6.8402 2.23958 6.43742C2.62153 6.03464 3.10416 5.83325 3.6875 5.83325C4.14583 5.83325 4.55903 5.96172 4.92708 6.21867C5.29514 6.47561 5.55555 6.80547 5.70833 7.20825C6.16666 6.79159 6.69097 6.45825 7.28125 6.20825C7.87152 5.95825 8.5 5.83325 9.16666 5.83325H18.3333V9.16659H14.1667V10.8333C14.1667 12.2221 13.6806 13.4027 12.7083 14.3749C11.7361 15.3471 10.5556 15.8333 9.16666 15.8333ZM3.75 8.74992C3.98611 8.74992 4.18403 8.67006 4.34375 8.51034C4.50347 8.35061 4.58333 8.1527 4.58333 7.91659C4.58333 7.68047 4.50347 7.48256 4.34375 7.32284C4.18403 7.16311 3.98611 7.08325 3.75 7.08325C3.51389 7.08325 3.31597 7.16311 3.15625 7.32284C2.99653 7.48256 2.91666 7.68047 2.91666 7.91659C2.91666 8.1527 2.99653 8.35061 3.15625 8.51034C3.31597 8.67006 3.51389 8.74992 3.75 8.74992ZM9.16666 13.7499C9.97222 13.7499 10.6597 13.4652 11.2292 12.8958C11.7986 12.3263 12.0833 11.6388 12.0833 10.8333C12.0833 10.0277 11.7986 9.3402 11.2292 8.77075C10.6597 8.20131 9.97222 7.91659 9.16666 7.91659C8.36111 7.91659 7.67361 8.20131 7.10416 8.77075C6.53472 9.3402 6.25 10.0277 6.25 10.8333C6.25 11.6388 6.53472 12.3263 7.10416 12.8958C7.67361 13.4652 8.36111 13.7499 9.16666 13.7499ZM9.16666 12.4999C9.625 12.4999 10.0174 12.3367 10.3437 12.0103C10.6701 11.6839 10.8333 11.2916 10.8333 10.8333C10.8333 10.3749 10.6701 9.98256 10.3437 9.65617C10.0174 9.32978 9.625 9.16659 9.16666 9.16659C8.70833 9.16659 8.31597 9.32978 7.98958 9.65617C7.66319 9.98256 7.5 10.3749 7.5 10.8333C7.5 11.2916 7.66319 11.6839 7.98958 12.0103C8.31597 12.3367 8.70833 12.4999 9.16666 12.4999Z" fill="#1A1A1A"/>
</svg>
