<svg width="16" height="17" viewBox="0 0 16 17" fill="none" xmlns="http://www.w3.org/2000/svg">
<rect y="0.101074" width="16" height="16" rx="8" fill="#F46C6C"/>
<path d="M7.47366 9.58517L7.41766 4.09717H8.57126L8.52646 9.58517H7.47366ZM8.00006 12.1052C7.80593 12.1052 7.64166 12.038 7.50726 11.9036C7.37286 11.7617 7.30566 11.5937 7.30566 11.3996C7.30566 11.2129 7.37286 11.0524 7.50726 10.918C7.64166 10.7761 7.80593 10.7052 8.00006 10.7052C8.18673 10.7052 8.34726 10.7761 8.48166 10.918C8.62353 11.0524 8.69446 11.2129 8.69446 11.3996C8.69446 11.5937 8.62353 11.7617 8.48166 11.9036C8.34726 12.038 8.18673 12.1052 8.00006 12.1052Z" fill="white"/>
</svg>
