<svg width="35" height="36" viewBox="0 0 35 36" fill="none" xmlns="http://www.w3.org/2000/svg">
<rect y="0.101074" width="35" height="35" rx="4" fill="#075FB0"/>
<path d="M18 18C18.4125 18 18.7656 17.8531 19.0594 17.5594C19.3531 17.2656 19.5 16.9125 19.5 16.5C19.5 16.0875 19.3531 15.7344 19.0594 15.4406C18.7656 15.1469 18.4125 15 18 15C17.5875 15 17.2344 15.1469 16.9406 15.4406C16.6469 15.7344 16.5 16.0875 16.5 16.5C16.5 16.9125 16.6469 17.2656 16.9406 17.5594C17.2344 17.8531 17.5875 18 18 18ZM18 23.5125C19.525 22.1125 20.6562 20.8406 21.3938 19.6969C22.1313 18.5531 22.5 17.5375 22.5 16.65C22.5 15.2875 22.0656 14.1719 21.1969 13.3031C20.3281 12.4344 19.2625 12 18 12C16.7375 12 15.6719 12.4344 14.8031 13.3031C13.9344 14.1719 13.5 15.2875 13.5 16.65C13.5 17.5375 13.8688 18.5531 14.6063 19.6969C15.3438 20.8406 16.475 22.1125 18 23.5125ZM18 25.5C15.9875 23.7875 14.4844 22.1969 13.4906 20.7281C12.4969 19.2594 12 17.9 12 16.65C12 14.775 12.6031 13.2812 13.8094 12.1688C15.0156 11.0563 16.4125 10.5 18 10.5C19.5875 10.5 20.9844 11.0563 22.1906 12.1688C23.3969 13.2812 24 14.775 24 16.65C24 17.9 23.5031 19.2594 22.5094 20.7281C21.5156 22.1969 20.0125 23.7875 18 25.5Z" fill="white"/>
</svg>
