<svg width="20" height="20" viewBox="0 0 20 20" fill="none" xmlns="http://www.w3.org/2000/svg">
<path d="M4.16667 18.3334C3.70833 18.3334 3.31597 18.1702 2.98958 17.8438C2.66319 17.5174 2.5 17.1251 2.5 16.6667V5.00008C2.5 4.54175 2.66319 4.14939 2.98958 3.823C3.31597 3.49661 3.70833 3.33341 4.16667 3.33341H5V1.66675H6.66667V3.33341H13.3333V1.66675H15V3.33341H15.8333C16.2917 3.33341 16.684 3.49661 17.0104 3.823C17.3368 4.14939 17.5 4.54175 17.5 5.00008V16.6667C17.5 17.1251 17.3368 17.5174 17.0104 17.8438C16.684 18.1702 16.2917 18.3334 15.8333 18.3334H4.16667ZM4.16667 16.6667H15.8333V8.33341H4.16667V16.6667ZM4.16667 6.66675H15.8333V5.00008H4.16667V6.66675ZM10 11.6667C9.76389 11.6667 9.56597 11.5869 9.40625 11.4272C9.24653 11.2674 9.16667 11.0695 9.16667 10.8334C9.16667 10.5973 9.24653 10.3994 9.40625 10.2397C9.56597 10.0799 9.76389 10.0001 10 10.0001C10.2361 10.0001 10.434 10.0799 10.5938 10.2397C10.7535 10.3994 10.8333 10.5973 10.8333 10.8334C10.8333 11.0695 10.7535 11.2674 10.5938 11.4272C10.434 11.5869 10.2361 11.6667 10 11.6667ZM6.66667 11.6667C6.43056 11.6667 6.23264 11.5869 6.07292 11.4272C5.91319 11.2674 5.83333 11.0695 5.83333 10.8334C5.83333 10.5973 5.91319 10.3994 6.07292 10.2397C6.23264 10.0799 6.43056 10.0001 6.66667 10.0001C6.90278 10.0001 7.10069 10.0799 7.26042 10.2397C7.42014 10.3994 7.5 10.5973 7.5 10.8334C7.5 11.0695 7.42014 11.2674 7.26042 11.4272C7.10069 11.5869 6.90278 11.6667 6.66667 11.6667ZM13.3333 11.6667C13.0972 11.6667 12.8993 11.5869 12.7396 11.4272C12.5799 11.2674 12.5 11.0695 12.5 10.8334C12.5 10.5973 12.5799 10.3994 12.7396 10.2397C12.8993 10.0799 13.0972 10.0001 13.3333 10.0001C13.5694 10.0001 13.7674 10.0799 13.9271 10.2397C14.0868 10.3994 14.1667 10.5973 14.1667 10.8334C14.1667 11.0695 14.0868 11.2674 13.9271 11.4272C13.7674 11.5869 13.5694 11.6667 13.3333 11.6667ZM10 15.0001C9.76389 15.0001 9.56597 14.9202 9.40625 14.7605C9.24653 14.6008 9.16667 14.4029 9.16667 14.1667C9.16667 13.9306 9.24653 13.7327 9.40625 13.573C9.56597 13.4133 9.76389 13.3334 10 13.3334C10.2361 13.3334 10.434 13.4133 10.5938 13.573C10.7535 13.7327 10.8333 13.9306 10.8333 14.1667C10.8333 14.4029 10.7535 14.6008 10.5938 14.7605C10.434 14.9202 10.2361 15.0001 10 15.0001ZM6.66667 15.0001C6.43056 15.0001 6.23264 14.9202 6.07292 14.7605C5.91319 14.6008 5.83333 14.4029 5.83333 14.1667C5.83333 13.9306 5.91319 13.7327 6.07292 13.573C6.23264 13.4133 6.43056 13.3334 6.66667 13.3334C6.90278 13.3334 7.10069 13.4133 7.26042 13.573C7.42014 13.7327 7.5 13.9306 7.5 14.1667C7.5 14.4029 7.42014 14.6008 7.26042 14.7605C7.10069 14.9202 6.90278 15.0001 6.66667 15.0001ZM13.3333 15.0001C13.0972 15.0001 12.8993 14.9202 12.7396 14.7605C12.5799 14.6008 12.5 14.4029 12.5 14.1667C12.5 13.9306 12.5799 13.7327 12.7396 13.573C12.8993 13.4133 13.0972 13.3334 13.3333 13.3334C13.5694 13.3334 13.7674 13.4133 13.9271 13.573C14.0868 13.7327 14.1667 13.9306 14.1667 14.1667C14.1667 14.4029 14.0868 14.6008 13.9271 14.7605C13.7674 14.9202 13.5694 15.0001 13.3333 15.0001Z" fill="#1A1A1A"/>
</svg>
