<svg width="36" height="36" viewBox="0 0 36 36" fill="none" xmlns="http://www.w3.org/2000/svg">
<rect x="0.721191" y="0.927734" width="35" height="35" rx="4" fill="#E77213"/>
<path d="M12.75 25.5C12.125 25.5 11.5938 25.2812 11.1562 24.8437C10.7187 24.4062 10.5 23.875 10.5 23.25C10.5 22.7625 10.6406 22.3281 10.9219 21.9469C11.2031 21.5656 11.5625 21.2937 12 21.1312V14.8687C11.5625 14.7062 11.2031 14.4344 10.9219 14.0531C10.6406 13.6719 10.5 13.2375 10.5 12.75C10.5 12.125 10.7187 11.5938 11.1562 11.1562C11.5938 10.7187 12.125 10.5 12.75 10.5C13.2375 10.5 13.6719 10.6406 14.0531 10.9219C14.4344 11.2031 14.7062 11.5625 14.8687 12H21.1312C21.2812 11.5625 21.5469 11.2031 21.9281 10.9219C22.3094 10.6406 22.75 10.5 23.25 10.5C23.875 10.5 24.4062 10.7187 24.8437 11.1562C25.2812 11.5938 25.5 12.125 25.5 12.75C25.5 13.25 25.3594 13.6906 25.0781 14.0719C24.7969 14.4531 24.4375 14.7187 24 14.8687V21.1312C24.4375 21.2937 24.7969 21.5656 25.0781 21.9469C25.3594 22.3281 25.5 22.7625 25.5 23.25C25.5 23.875 25.2812 24.4062 24.8437 24.8437C24.4062 25.2812 23.875 25.5 23.25 25.5C22.7625 25.5 22.3281 25.3594 21.9469 25.0781C21.5656 24.7969 21.2937 24.4375 21.1312 24H14.8687C14.7062 24.4375 14.4344 24.7969 14.0531 25.0781C13.6719 25.3594 13.2375 25.5 12.75 25.5ZM12.75 13.5C12.9625 13.5 13.1406 13.4281 13.2844 13.2844C13.4281 13.1406 13.5 12.9625 13.5 12.75C13.5 12.5375 13.4281 12.3594 13.2844 12.2156C13.1406 12.0719 12.9625 12 12.75 12C12.5375 12 12.3594 12.0719 12.2156 12.2156C12.0719 12.3594 12 12.5375 12 12.75C12 12.9625 12.0719 13.1406 12.2156 13.2844C12.3594 13.4281 12.5375 13.5 12.75 13.5ZM23.25 13.5C23.4625 13.5 23.6406 13.4281 23.7844 13.2844C23.9281 13.1406 24 12.9625 24 12.75C24 12.5375 23.9281 12.3594 23.7844 12.2156C23.6406 12.0719 23.4625 12 23.25 12C23.0375 12 22.8594 12.0719 22.7156 12.2156C22.5719 12.3594 22.5 12.5375 22.5 12.75C22.5 12.9625 22.5719 13.1406 22.7156 13.2844C22.8594 13.4281 23.0375 13.5 23.25 13.5ZM14.8687 22.5H21.1312C21.2437 22.175 21.4187 21.8937 21.6562 21.6562C21.8937 21.4187 22.175 21.2437 22.5 21.1312V14.8687C22.175 14.7562 21.8937 14.5812 21.6562 14.3437C21.4187 14.1062 21.2437 13.825 21.1312 13.5H14.8687C14.7562 13.825 14.5812 14.1062 14.3437 14.3437C14.1062 14.5812 13.825 14.7562 13.5 14.8687V21.1312C13.825 21.2437 14.1062 21.4187 14.3437 21.6562C14.5812 21.8937 14.7562 22.175 14.8687 22.5ZM23.25 24C23.4625 24 23.6406 23.9281 23.7844 23.7844C23.9281 23.6406 24 23.4625 24 23.25C24 23.0375 23.9281 22.8594 23.7844 22.7156C23.6406 22.5719 23.4625 22.5 23.25 22.5C23.0375 22.5 22.8594 22.5719 22.7156 22.7156C22.5719 22.8594 22.5 23.0375 22.5 23.25C22.5 23.4625 22.5719 23.6406 22.7156 23.7844C22.8594 23.9281 23.0375 24 23.25 24ZM12.75 24C12.9625 24 13.1406 23.9281 13.2844 23.7844C13.4281 23.6406 13.5 23.4625 13.5 23.25C13.5 23.0375 13.4281 22.8594 13.2844 22.7156C13.1406 22.5719 12.9625 22.5 12.75 22.5C12.5375 22.5 12.3594 22.5719 12.2156 22.7156C12.0719 22.8594 12 23.0375 12 23.25C12 23.4625 12.0719 23.6406 12.2156 23.7844C12.3594 23.9281 12.5375 24 12.75 24Z" fill="white"/>
</svg>
