<svg width="25" height="25" viewBox="0 0 25 25" fill="none" xmlns="http://www.w3.org/2000/svg">
<rect width="24.8207" height="24.8207" rx="3.97131" fill="#00732B"/>
<path d="M9.80625 13.6875L12 12.3563L14.1938 13.6875L13.6125 11.1938L15.5625 9.50625L12.9938 9.3L12 6.9375L11.0063 9.3L8.4375 9.50625L10.3875 11.1938L9.80625 13.6875ZM4.5 19.5V6C4.5 5.5875 4.64687 5.23438 4.94063 4.94063C5.23438 4.64687 5.5875 4.5 6 4.5H18C18.4125 4.5 18.7656 4.64687 19.0594 4.94063C19.3531 5.23438 19.5 5.5875 19.5 6V15C19.5 15.4125 19.3531 15.7656 19.0594 16.0594C18.7656 16.3531 18.4125 16.5 18 16.5H7.5L4.5 19.5ZM6.8625 15H18V6H6V15.8438L6.8625 15Z" fill="white"/>
</svg>
