<svg width="35" height="36" viewBox="0 0 35 36" fill="none" xmlns="http://www.w3.org/2000/svg">
<rect y="0.0288086" width="35" height="35" rx="4" fill="#00732B"/>
<path d="M13.4167 23.5C11.889 23.5 10.5904 22.9653 9.52091 21.8958C8.45147 20.8264 7.91675 19.5278 7.91675 18C7.91675 16.4722 8.45147 15.1736 9.52091 14.1042C10.5904 13.0347 11.889 12.5 13.4167 12.5H22.5834C24.1112 12.5 25.4098 13.0347 26.4792 14.1042C27.5487 15.1736 28.0834 16.4722 28.0834 18C28.0834 19.5278 27.5487 20.8264 26.4792 21.8958C25.4098 22.9653 24.1112 23.5 22.5834 23.5H13.4167ZM13.4167 21.6667H22.5834C23.5917 21.6667 24.4549 21.3076 25.173 20.5896C25.8911 19.8715 26.2501 19.0083 26.2501 18C26.2501 16.9917 25.8911 16.1285 25.173 15.4104C24.4549 14.6924 23.5917 14.3333 22.5834 14.3333H13.4167C12.4084 14.3333 11.5452 14.6924 10.8272 15.4104C10.1091 16.1285 9.75008 16.9917 9.75008 18C9.75008 19.0083 10.1091 19.8715 10.8272 20.5896C11.5452 21.3076 12.4084 21.6667 13.4167 21.6667ZM22.5834 20.75C23.3473 20.75 23.9966 20.4826 24.5313 19.9479C25.0661 19.4132 25.3334 18.7639 25.3334 18C25.3334 17.2361 25.0661 16.5868 24.5313 16.0521C23.9966 15.5174 23.3473 15.25 22.5834 15.25C21.8195 15.25 21.1702 15.5174 20.6355 16.0521C20.1008 16.5868 19.8334 17.2361 19.8334 18C19.8334 18.7639 20.1008 19.4132 20.6355 19.9479C21.1702 20.4826 21.8195 20.75 22.5834 20.75Z" fill="white"/>
</svg>
