<svg width="22" height="22" viewBox="0 0 22 22" fill="none" xmlns="http://www.w3.org/2000/svg">
<path d="M10.9997 14.6663L14.6663 10.9997L10.9997 7.33301L9.71634 8.61634L11.183 10.083H7.33301V11.9163H11.183L9.71634 13.383L10.9997 14.6663ZM10.9997 20.1663C9.73162 20.1663 8.53995 19.9257 7.42467 19.4445C6.3094 18.9632 5.33926 18.3101 4.51426 17.4851C3.68926 16.6601 3.03613 15.69 2.55488 14.5747C2.07363 13.4594 1.83301 12.2677 1.83301 10.9997C1.83301 9.73162 2.07363 8.53995 2.55488 7.42467C3.03613 6.3094 3.68926 5.33926 4.51426 4.51426C5.33926 3.68926 6.3094 3.03613 7.42467 2.55488C8.53995 2.07363 9.73162 1.83301 10.9997 1.83301C12.2677 1.83301 13.4594 2.07363 14.5747 2.55488C15.69 3.03613 16.6601 3.68926 17.4851 4.51426C18.3101 5.33926 18.9632 6.3094 19.4445 7.42467C19.9257 8.53995 20.1663 9.73162 20.1663 10.9997C20.1663 12.2677 19.9257 13.4594 19.4445 14.5747C18.9632 15.69 18.3101 16.6601 17.4851 17.4851C16.6601 18.3101 15.69 18.9632 14.5747 19.4445C13.4594 19.9257 12.2677 20.1663 10.9997 20.1663Z" fill="#00732B"/>
</svg>
