<svg width="35" height="35" viewBox="0 0 35 35" fill="none" xmlns="http://www.w3.org/2000/svg">
<rect width="35" height="35" rx="8" fill="#075FB0"/>
<path d="M18.3429 26.7688V21.7132L16.5735 20.028L15.7309 23.7354L9.91699 22.5558L10.254 20.8706L14.2985 21.7132L15.6466 14.8882L14.13 15.478V18.3428H12.4448V14.3826L15.773 12.9502C16.2645 12.7396 16.6261 12.6027 16.8578 12.5395C17.0896 12.4763 17.3037 12.4447 17.5003 12.4447C17.7952 12.4447 18.0691 12.5219 18.3219 12.6764C18.5746 12.8309 18.7783 13.0345 18.9327 13.2873L19.7753 14.6354C20.1404 15.2252 20.6355 15.7097 21.2604 16.0889C21.8853 16.4681 22.598 16.6576 23.3985 16.6576V18.3428C22.4716 18.3428 21.6045 18.1497 20.797 17.7635C19.9895 17.3774 19.3119 16.8683 18.7642 16.2363L18.2587 18.7641L20.0281 20.4493V26.7688H18.3429ZM18.7642 12.0234C18.3008 12.0234 17.9041 11.8584 17.5741 11.5284C17.244 11.1983 17.079 10.8016 17.079 10.3382C17.079 9.87477 17.244 9.47805 17.5741 9.14804C17.9041 8.81802 18.3008 8.65302 18.7642 8.65302C19.2276 8.65302 19.6244 8.81802 19.9544 9.14804C20.2844 9.47805 20.4494 9.87477 20.4494 10.3382C20.4494 10.8016 20.2844 11.1983 19.9544 11.5284C19.6244 11.8584 19.2276 12.0234 18.7642 12.0234Z" fill="white"/>
</svg>
