<svg width="44" height="45" viewBox="0 0 44 45" fill="none" xmlns="http://www.w3.org/2000/svg">
<rect y="0.5" width="44" height="44" rx="15" fill="#00732B"/>
<path d="M28.7505 19.5271C28.7652 19.941 29.1127 20.2647 29.5267 20.2499C29.9406 20.2352 30.2643 19.8877 30.2495 19.4737L28.7505 19.5271ZM25.214 15.5004V16.2504C25.2224 16.2504 25.2307 16.2503 25.2391 16.25L25.214 15.5004ZM18.786 15.5004L18.7609 16.25C18.7693 16.2503 18.7776 16.2504 18.786 16.2504V15.5004ZM13.7505 19.4737C13.7357 19.8877 14.0594 20.2352 14.4733 20.2499C14.8873 20.2647 15.2348 19.941 15.2495 19.5271L13.7505 19.4737ZM30.25 19.5004C30.25 19.0862 29.9142 18.7504 29.5 18.7504C29.0858 18.7504 28.75 19.0862 28.75 19.5004H30.25ZM29.5 25.5004L30.2495 25.5271C30.2498 25.5182 30.25 25.5093 30.25 25.5004H29.5ZM25.214 29.5004L25.2391 28.7508C25.2307 28.7505 25.2224 28.7504 25.214 28.7504V29.5004ZM18.786 29.5004V28.7504C18.7776 28.7504 18.7693 28.7505 18.7609 28.7508L18.786 29.5004ZM14.5 25.5004H13.75C13.75 25.5093 13.7502 25.5182 13.7505 25.5271L14.5 25.5004ZM15.25 19.5004C15.25 19.0862 14.9142 18.7504 14.5 18.7504C14.0858 18.7504 13.75 19.0862 13.75 19.5004H15.25ZM29.8783 20.148C30.236 19.9391 30.3565 19.4798 30.1476 19.1221C29.9387 18.7644 29.4794 18.6439 29.1217 18.8528L29.8783 20.148ZM24.236 22.5754L23.8577 21.9278L23.8515 21.9315L24.236 22.5754ZM19.764 22.5754L20.1486 21.9315L20.1423 21.9278L19.764 22.5754ZM14.8783 18.8528C14.5206 18.6439 14.0613 18.7644 13.8524 19.1221C13.6435 19.4798 13.764 19.9391 14.1217 20.148L14.8783 18.8528ZM29.5 19.5004L30.2495 19.4737C30.1534 16.7734 27.8895 14.6606 25.1889 14.7508L25.214 15.5004L25.2391 16.25C27.1129 16.1874 28.6838 17.6534 28.7505 19.5271L29.5 19.5004ZM25.214 15.5004V14.7504H18.786V15.5004V16.2504H25.214V15.5004ZM18.786 15.5004L18.8111 14.7508C16.1105 14.6606 13.8466 16.7734 13.7505 19.4737L14.5 19.5004L15.2495 19.5271C15.3162 17.6534 16.8871 16.1874 18.7609 16.25L18.786 15.5004ZM29.5 19.5004H28.75V25.5004H29.5H30.25V19.5004H29.5ZM29.5 25.5004L28.7505 25.4737C28.6838 27.3474 27.1129 28.8135 25.2391 28.7508L25.214 29.5004L25.1889 30.25C27.8895 30.3402 30.1534 28.2274 30.2495 25.5271L29.5 25.5004ZM25.214 29.5004V28.7504H18.786V29.5004V30.2504H25.214V29.5004ZM18.786 29.5004L18.7609 28.7508C16.8871 28.8135 15.3162 27.3474 15.2495 25.4737L14.5 25.5004L13.7505 25.5271C13.8466 28.2274 16.1105 30.3402 18.8111 30.25L18.786 29.5004ZM14.5 25.5004H15.25V19.5004H14.5H13.75V25.5004H14.5ZM29.5 19.5004L29.1217 18.8528L23.8577 21.9278L24.236 22.5754L24.6143 23.223L29.8783 20.148L29.5 19.5004ZM24.236 22.5754L23.8515 21.9315C22.7111 22.6125 21.2889 22.6125 20.1485 21.9315L19.764 22.5754L19.3795 23.2193C20.9935 24.1832 23.0065 24.1832 24.6205 23.2193L24.236 22.5754ZM19.764 22.5754L20.1423 21.9278L14.8783 18.8528L14.5 19.5004L14.1217 20.148L19.3857 23.223L19.764 22.5754Z" fill="white"/>
</svg>
