<svg width="44" height="45" viewBox="0 0 44 45" fill="none" xmlns="http://www.w3.org/2000/svg">
<rect y="0.5" width="44" height="44" rx="15" fill="#00732B"/>
<path fill-rule="evenodd" clip-rule="evenodd" d="M15.8712 16.858C16.7512 15.931 17.0622 15.671 17.4372 15.55C17.6968 15.482 17.9689 15.4783 18.2302 15.539C18.5742 15.639 18.6652 15.715 19.7932 16.839C20.7842 17.826 20.8832 17.933 20.9782 18.126C21.1599 18.4648 21.1883 18.865 21.0562 19.226C20.9562 19.501 20.8142 19.683 20.2132 20.286L19.8212 20.679C19.7183 20.7837 19.6941 20.9425 19.7612 21.073C20.6322 22.5589 21.8678 23.798 23.3512 24.673C23.522 24.7645 23.7323 24.7349 23.8712 24.6L24.2482 24.229C24.4813 23.9902 24.728 23.7651 24.9872 23.555C25.3944 23.3051 25.9017 23.2828 26.3292 23.496C26.5382 23.596 26.6072 23.658 27.6292 24.678C28.6832 25.729 28.7132 25.762 28.8292 26.003C29.0475 26.402 29.0453 26.8852 28.8232 27.282C28.7102 27.506 28.6412 27.587 28.0482 28.193C27.6902 28.559 27.3532 28.893 27.2992 28.942C26.81 29.3471 26.1824 29.5458 25.5492 29.496C24.3908 29.3905 23.2695 29.0324 22.2642 28.447C20.0374 27.2672 18.1416 25.5482 16.7502 23.447C16.4472 23.0073 16.1778 22.5453 15.9442 22.065C15.3178 20.9914 14.9943 19.768 15.0082 18.525C15.0561 17.8748 15.3679 17.2725 15.8712 16.858Z" stroke="white" stroke-width="1.5" stroke-linecap="round" stroke-linejoin="round"/>
</svg>
