<svg width="14" height="14" viewBox="0 0 14 14" fill="none" xmlns="http://www.w3.org/2000/svg">
<path d="M6.33325 10.3335H7.66659V6.3335H6.33325V10.3335ZM6.99992 5.00016C7.18881 5.00016 7.34714 4.93627 7.47492 4.8085C7.6027 4.68072 7.66659 4.52239 7.66659 4.3335C7.66659 4.14461 7.6027 3.98627 7.47492 3.8585C7.34714 3.73072 7.18881 3.66683 6.99992 3.66683C6.81103 3.66683 6.6527 3.73072 6.52492 3.8585C6.39714 3.98627 6.33325 4.14461 6.33325 4.3335C6.33325 4.52239 6.39714 4.68072 6.52492 4.8085C6.6527 4.93627 6.81103 5.00016 6.99992 5.00016ZM6.99992 13.6668C6.0777 13.6668 5.21103 13.4918 4.39992 13.1418C3.58881 12.7918 2.88325 12.3168 2.28325 11.7168C1.68325 11.1168 1.20825 10.4113 0.858252 9.60016C0.508252 8.78905 0.333252 7.92239 0.333252 7.00016C0.333252 6.07794 0.508252 5.21127 0.858252 4.40016C1.20825 3.58905 1.68325 2.8835 2.28325 2.2835C2.88325 1.6835 3.58881 1.2085 4.39992 0.858496C5.21103 0.508496 6.0777 0.333496 6.99992 0.333496C7.92214 0.333496 8.78881 0.508496 9.59992 0.858496C10.411 1.2085 11.1166 1.6835 11.7166 2.2835C12.3166 2.8835 12.7916 3.58905 13.1416 4.40016C13.4916 5.21127 13.6666 6.07794 13.6666 7.00016C13.6666 7.92239 13.4916 8.78905 13.1416 9.60016C12.7916 10.4113 12.3166 11.1168 11.7166 11.7168C11.1166 12.3168 10.411 12.7918 9.59992 13.1418C8.78881 13.4918 7.92214 13.6668 6.99992 13.6668ZM6.99992 12.3335C8.48881 12.3335 9.74992 11.8168 10.7833 10.7835C11.8166 9.75016 12.3333 8.48905 12.3333 7.00016C12.3333 5.51127 11.8166 4.25016 10.7833 3.21683C9.74992 2.1835 8.48881 1.66683 6.99992 1.66683C5.51103 1.66683 4.24992 2.1835 3.21659 3.21683C2.18325 4.25016 1.66659 5.51127 1.66659 7.00016C1.66659 8.48905 2.18325 9.75016 3.21659 10.7835C4.24992 11.8168 5.51103 12.3335 6.99992 12.3335Z" fill="#666666"/>
</svg>
