<svg width="20" height="20" viewBox="0 0 20 20" fill="none" xmlns="http://www.w3.org/2000/svg">
<path d="M8.33329 9.99992C7.41663 9.99992 6.6319 9.67353 5.97913 9.02075C5.32635 8.36797 4.99996 7.58325 4.99996 6.66659C4.99996 5.74992 5.32635 4.9652 5.97913 4.31242C6.6319 3.65964 7.41663 3.33325 8.33329 3.33325C9.24996 3.33325 10.0347 3.65964 10.6875 4.31242C11.3402 4.9652 11.6666 5.74992 11.6666 6.66659C11.6666 7.58325 11.3402 8.36797 10.6875 9.02075C10.0347 9.67353 9.24996 9.99992 8.33329 9.99992ZM1.66663 16.6666V14.3333C1.66663 13.8749 1.78468 13.4444 2.02079 13.0416C2.2569 12.6388 2.58329 12.3333 2.99996 12.1249C3.70829 11.7638 4.5069 11.4583 5.39579 11.2083C6.28468 10.9583 7.26385 10.8333 8.33329 10.8333H8.62496C8.70829 10.8333 8.79163 10.8471 8.87496 10.8749C8.76385 11.1249 8.6701 11.3853 8.59371 11.6562C8.51732 11.927 8.45829 12.2083 8.41663 12.4999H8.33329C7.34718 12.4999 6.46177 12.6249 5.67704 12.8749C4.89232 13.1249 4.24996 13.3749 3.74996 13.6249C3.62496 13.6944 3.52427 13.7916 3.44788 13.9166C3.37149 14.0416 3.33329 14.1805 3.33329 14.3333V14.9999H8.58329C8.66663 15.2916 8.77774 15.5798 8.91663 15.8645C9.05552 16.1492 9.20829 16.4166 9.37496 16.6666H1.66663ZM13.3333 17.4999L13.0833 16.2499C12.9166 16.1805 12.7604 16.1076 12.6145 16.0312C12.4687 15.9548 12.3194 15.861 12.1666 15.7499L10.9583 16.1249L10.125 14.7083L11.0833 13.8749C11.0555 13.6805 11.0416 13.4999 11.0416 13.3333C11.0416 13.1666 11.0555 12.986 11.0833 12.7916L10.125 11.9583L10.9583 10.5416L12.1666 10.9166C12.3194 10.8055 12.4687 10.7117 12.6145 10.6353C12.7604 10.5589 12.9166 10.486 13.0833 10.4166L13.3333 9.16659H15L15.25 10.4166C15.4166 10.486 15.5729 10.5624 15.7187 10.6458C15.8645 10.7291 16.0139 10.8333 16.1666 10.9583L17.375 10.5416L18.2083 11.9999L17.25 12.8333C17.2777 12.9999 17.2916 13.1735 17.2916 13.3541C17.2916 13.5346 17.2777 13.7083 17.25 13.8749L18.2083 14.7083L17.375 16.1249L16.1666 15.7499C16.0139 15.861 15.8645 15.9548 15.7187 16.0312C15.5729 16.1076 15.4166 16.1805 15.25 16.2499L15 17.4999H13.3333ZM14.1666 14.9999C14.625 14.9999 15.0173 14.8367 15.3437 14.5103C15.6701 14.1839 15.8333 13.7916 15.8333 13.3333C15.8333 12.8749 15.6701 12.4826 15.3437 12.1562C15.0173 11.8298 14.625 11.6666 14.1666 11.6666C13.7083 11.6666 13.3159 11.8298 12.9895 12.1562C12.6632 12.4826 12.5 12.8749 12.5 13.3333C12.5 13.7916 12.6632 14.1839 12.9895 14.5103C13.3159 14.8367 13.7083 14.9999 14.1666 14.9999ZM8.33329 8.33325C8.79163 8.33325 9.18399 8.17006 9.51038 7.84367C9.83677 7.51728 9.99996 7.12492 9.99996 6.66659C9.99996 6.20825 9.83677 5.81589 9.51038 5.4895C9.18399 5.16311 8.79163 4.99992 8.33329 4.99992C7.87496 4.99992 7.4826 5.16311 7.15621 5.4895C6.82982 5.81589 6.66663 6.20825 6.66663 6.66659C6.66663 7.12492 6.82982 7.51728 7.15621 7.84367C7.4826 8.17006 7.87496 8.33325 8.33329 8.33325Z" fill="#1A1A1A"/>
</svg>
