<svg width="14" height="15" viewBox="0 0 14 15" fill="none" xmlns="http://www.w3.org/2000/svg">
<path d="M12.9111 14.1011L8.01111 9.20107C7.62222 9.51219 7.175 9.75848 6.66944 9.93996C6.16389 10.1214 5.62593 10.2122 5.05556 10.2122C3.64259 10.2122 2.44676 9.72283 1.46806 8.74413C0.489352 7.76543 0 6.56959 0 5.15663C0 3.74367 0.489352 2.54783 1.46806 1.56913C2.44676 0.590426 3.64259 0.101074 5.05556 0.101074C6.46852 0.101074 7.66435 0.590426 8.64306 1.56913C9.62176 2.54783 10.1111 3.74367 10.1111 5.15663C10.1111 5.727 10.0204 6.26496 9.83889 6.77052C9.65741 7.27607 9.41111 7.7233 9.1 8.11219L14 13.0122L12.9111 14.1011ZM5.05556 8.65663C6.02778 8.65663 6.85417 8.31635 7.53472 7.6358C8.21528 6.95524 8.55556 6.12885 8.55556 5.15663C8.55556 4.18441 8.21528 3.35802 7.53472 2.67746C6.85417 1.99691 6.02778 1.65663 5.05556 1.65663C4.08333 1.65663 3.25694 1.99691 2.57639 2.67746C1.89583 3.35802 1.55556 4.18441 1.55556 5.15663C1.55556 6.12885 1.89583 6.95524 2.57639 7.6358C3.25694 8.31635 4.08333 8.65663 5.05556 8.65663Z" fill="#1A1A1A"/>
</svg>
