<svg width="14" height="14" viewBox="0 0 14 14" fill="none" xmlns="http://www.w3.org/2000/svg">
<path d="M5.85049 13.4344C5.61438 13.4344 5.41646 13.3545 5.25674 13.1948C5.09702 13.0351 5.01716 12.8372 5.01716 12.6011V7.60107L0.183824 1.43441C-0.0245098 1.15663 -0.0557598 0.864963 0.0900735 0.559408C0.235907 0.253852 0.489379 0.101074 0.85049 0.101074H12.5172C12.8783 0.101074 13.1317 0.253852 13.2776 0.559408C13.4234 0.864963 13.3922 1.15663 13.1838 1.43441L8.35049 7.60107V12.6011C8.35049 12.8372 8.27063 13.0351 8.11091 13.1948C7.95118 13.3545 7.75327 13.4344 7.51716 13.4344H5.85049ZM6.68382 7.01774L10.8088 1.76774H2.55882L6.68382 7.01774Z" fill="#2F2F2F"/>
</svg>
