<svg width="16" height="10" viewBox="0 0 16 10" fill="none" xmlns="http://www.w3.org/2000/svg">
<path d="M1 4.25C0.585786 4.25 0.25 4.58579 0.25 5C0.25 5.41421 0.585786 5.75 1 5.75V4.25ZM15 5.75C15.4142 5.75 15.75 5.41421 15.75 5C15.75 4.58579 15.4142 4.25 15 4.25V5.75ZM1 0.25C0.585786 0.25 0.25 0.585786 0.25 1C0.25 1.41421 0.585786 1.75 1 1.75V0.25ZM10.333 1.75C10.7472 1.75 11.083 1.41421 11.083 1C11.083 0.585786 10.7472 0.25 10.333 0.25V1.75ZM1 8.25C0.585786 8.25 0.25 8.58579 0.25 9C0.25 9.41421 0.585786 9.75 1 9.75V8.25ZM10.333 9.75C10.7472 9.75 11.083 9.41421 11.083 9C11.083 8.58579 10.7472 8.25 10.333 8.25V9.75ZM1 5V5.75H15V5V4.25H1V5ZM1 1V1.75H10.333V1V0.25H1V1ZM1 9V9.75H10.333V9V8.25H1V9Z" fill="black"/>
</svg>
