<svg width="20" height="20" viewBox="0 0 20 20" fill="none" xmlns="http://www.w3.org/2000/svg">
<path d="M4.16666 18.3334C3.47222 18.3334 2.88194 18.0904 2.39583 17.6042C1.90972 17.1181 1.66666 16.5279 1.66666 15.8334C1.66666 15.2917 1.82291 14.8091 2.13541 14.3855C2.44791 13.9619 2.84722 13.6598 3.33333 13.4792V6.52091C2.84722 6.34036 2.44791 6.03828 2.13541 5.61466C1.82291 5.19105 1.66666 4.70841 1.66666 4.16675C1.66666 3.4723 1.90972 2.88203 2.39583 2.39591C2.88194 1.9098 3.47222 1.66675 4.16666 1.66675C4.70833 1.66675 5.19097 1.823 5.61458 2.1355C6.03819 2.448 6.34027 2.8473 6.52083 3.33341H13.4792C13.6458 2.8473 13.941 2.448 14.3646 2.1355C14.7882 1.823 15.2778 1.66675 15.8333 1.66675C16.5278 1.66675 17.1181 1.9098 17.6042 2.39591C18.0903 2.88203 18.3333 3.4723 18.3333 4.16675C18.3333 4.7223 18.1771 5.21189 17.8646 5.6355C17.5521 6.05911 17.1528 6.35425 16.6667 6.52091V13.4792C17.1528 13.6598 17.5521 13.9619 17.8646 14.3855C18.1771 14.8091 18.3333 15.2917 18.3333 15.8334C18.3333 16.5279 18.0903 17.1181 17.6042 17.6042C17.1181 18.0904 16.5278 18.3334 15.8333 18.3334C15.2917 18.3334 14.809 18.1772 14.3854 17.8647C13.9618 17.5522 13.6597 17.1529 13.4792 16.6667H6.52083C6.34027 17.1529 6.03819 17.5522 5.61458 17.8647C5.19097 18.1772 4.70833 18.3334 4.16666 18.3334ZM4.16666 5.00008C4.40278 5.00008 4.60069 4.92022 4.76041 4.7605C4.92014 4.60078 5 4.40286 5 4.16675C5 3.93064 4.92014 3.73272 4.76041 3.573C4.60069 3.41328 4.40278 3.33341 4.16666 3.33341C3.93055 3.33341 3.73264 3.41328 3.57291 3.573C3.41319 3.73272 3.33333 3.93064 3.33333 4.16675C3.33333 4.40286 3.41319 4.60078 3.57291 4.7605C3.73264 4.92022 3.93055 5.00008 4.16666 5.00008ZM15.8333 5.00008C16.0694 5.00008 16.2674 4.92022 16.4271 4.7605C16.5868 4.60078 16.6667 4.40286 16.6667 4.16675C16.6667 3.93064 16.5868 3.73272 16.4271 3.573C16.2674 3.41328 16.0694 3.33341 15.8333 3.33341C15.5972 3.33341 15.3993 3.41328 15.2396 3.573C15.0799 3.73272 15 3.93064 15 4.16675C15 4.40286 15.0799 4.60078 15.2396 4.7605C15.3993 4.92022 15.5972 5.00008 15.8333 5.00008ZM6.52083 15.0001H13.4792C13.6042 14.639 13.7986 14.3265 14.0625 14.0626C14.3264 13.7987 14.6389 13.6042 15 13.4792V6.52091C14.6389 6.39591 14.3264 6.20147 14.0625 5.93758C13.7986 5.67369 13.6042 5.36119 13.4792 5.00008H6.52083C6.39583 5.36119 6.20139 5.67369 5.9375 5.93758C5.67361 6.20147 5.36111 6.39591 5 6.52091V13.4792C5.36111 13.6042 5.67361 13.7987 5.9375 14.0626C6.20139 14.3265 6.39583 14.639 6.52083 15.0001ZM15.8333 16.6667C16.0694 16.6667 16.2674 16.5869 16.4271 16.4272C16.5868 16.2674 16.6667 16.0695 16.6667 15.8334C16.6667 15.5973 16.5868 15.3994 16.4271 15.2397C16.2674 15.0799 16.0694 15.0001 15.8333 15.0001C15.5972 15.0001 15.3993 15.0799 15.2396 15.2397C15.0799 15.3994 15 15.5973 15 15.8334C15 16.0695 15.0799 16.2674 15.2396 16.4272C15.3993 16.5869 15.5972 16.6667 15.8333 16.6667ZM4.16666 16.6667C4.40278 16.6667 4.60069 16.5869 4.76041 16.4272C4.92014 16.2674 5 16.0695 5 15.8334C5 15.5973 4.92014 15.3994 4.76041 15.2397C4.60069 15.0799 4.40278 15.0001 4.16666 15.0001C3.93055 15.0001 3.73264 15.0799 3.57291 15.2397C3.41319 15.3994 3.33333 15.5973 3.33333 15.8334C3.33333 16.0695 3.41319 16.2674 3.57291 16.4272C3.73264 16.5869 3.93055 16.6667 4.16666 16.6667Z" fill="#1A1A1A"/>
</svg>
