<svg width="35" height="35" viewBox="0 0 35 35" fill="none" xmlns="http://www.w3.org/2000/svg">
<rect width="35" height="35" rx="3.97131" fill="#00732B"/>
<path d="M12.0375 17.3223H14.175C14.1 16.8473 13.9562 16.4035 13.7437 15.991C13.5312 15.5785 13.2625 15.2098 12.9375 14.8848C12.7125 15.2473 12.5219 15.6316 12.3656 16.0379C12.2094 16.4441 12.1 16.8723 12.0375 17.3223ZM21.825 17.3223H23.9625C23.9 16.8723 23.7906 16.4441 23.6344 16.0379C23.4781 15.6316 23.2875 15.2473 23.0625 14.8848C22.7375 15.2098 22.4687 15.5785 22.2562 15.991C22.0437 16.4035 21.9 16.8473 21.825 17.3223ZM12.9375 21.2598C13.2625 20.9348 13.5312 20.566 13.7437 20.1535C13.9562 19.741 14.1 19.2973 14.175 18.8223H12.0375C12.1 19.2723 12.2094 19.7004 12.3656 20.1066C12.5219 20.5129 12.7125 20.8973 12.9375 21.2598ZM23.0625 21.2598C23.2875 20.8973 23.4781 20.5129 23.6344 20.1066C23.7906 19.7004 23.9 19.2723 23.9625 18.8223H21.825C21.9 19.2973 22.0437 19.741 22.2562 20.1535C22.4687 20.566 22.7375 20.9348 23.0625 21.2598ZM15.7125 17.3223H17.25V12.1098C16.5875 12.2098 15.9719 12.3941 15.4031 12.6629C14.8344 12.9316 14.325 13.2848 13.875 13.7223C14.3625 14.1973 14.7656 14.7379 15.0844 15.3441C15.4031 15.9504 15.6125 16.6098 15.7125 17.3223ZM18.75 17.3223H20.2875C20.3875 16.6098 20.5969 15.9504 20.9156 15.3441C21.2344 14.7379 21.6375 14.1973 22.125 13.7223C21.675 13.2848 21.1656 12.9316 20.5969 12.6629C20.0281 12.3941 19.4125 12.2098 18.75 12.1098V17.3223ZM17.25 24.0348V18.8223H15.7125C15.6125 19.5348 15.4031 20.1941 15.0844 20.8004C14.7656 21.4066 14.3625 21.9473 13.875 22.4223C14.325 22.8598 14.8344 23.2129 15.4031 23.4816C15.9719 23.7504 16.5875 23.9348 17.25 24.0348ZM18.75 24.0348C19.4125 23.9348 20.0281 23.7504 20.5969 23.4816C21.1656 23.2129 21.675 22.8598 22.125 22.4223C21.6375 21.9473 21.2344 21.4066 20.9156 20.8004C20.5969 20.1941 20.3875 19.5348 20.2875 18.8223H18.75V24.0348ZM18 25.5723C16.9625 25.5723 15.9875 25.3754 15.075 24.9816C14.1625 24.5879 13.3687 24.0535 12.6937 23.3785C12.0187 22.7035 11.4844 21.9098 11.0906 20.9973C10.6969 20.0848 10.5 19.1098 10.5 18.0723C10.5 17.0348 10.6969 16.0598 11.0906 15.1473C11.4844 14.2348 12.0187 13.441 12.6937 12.766C13.3687 12.091 14.1625 11.5566 15.075 11.1629C15.9875 10.7691 16.9625 10.5723 18 10.5723C19.0375 10.5723 20.0125 10.7691 20.925 11.1629C21.8375 11.5566 22.6312 12.091 23.3062 12.766C23.9812 13.441 24.5156 14.2348 24.9094 15.1473C25.3031 16.0598 25.5 17.0348 25.5 18.0723C25.5 19.1098 25.3031 20.0848 24.9094 20.9973C24.5156 21.9098 23.9812 22.7035 23.3062 23.3785C22.6312 24.0535 21.8375 24.5879 20.925 24.9816C20.0125 25.3754 19.0375 25.5723 18 25.5723Z" fill="white"/>
</svg>
