<svg width="20" height="20" viewBox="0 0 20 20" fill="none" xmlns="http://www.w3.org/2000/svg">
<path d="M0.833984 16.6666V14.3333C0.833984 13.861 0.955512 13.427 1.19857 13.0312C1.44162 12.6353 1.76454 12.3333 2.16732 12.1249C3.02843 11.6944 3.90343 11.3714 4.79232 11.1562C5.68121 10.9409 6.58398 10.8333 7.50065 10.8333C8.41732 10.8333 9.3201 10.9409 10.209 11.1562C11.0979 11.3714 11.9729 11.6944 12.834 12.1249C13.2368 12.3333 13.5597 12.6353 13.8027 13.0312C14.0458 13.427 14.1673 13.861 14.1673 14.3333V16.6666H0.833984ZM15.834 16.6666V14.1666C15.834 13.5555 15.6638 12.9687 15.3236 12.4062C14.9833 11.8437 14.5007 11.361 13.8757 10.9583C14.584 11.0416 15.2507 11.1839 15.8757 11.3853C16.5007 11.5867 17.084 11.8333 17.6257 12.1249C18.1257 12.4027 18.5076 12.7117 18.7715 13.052C19.0354 13.3923 19.1673 13.7638 19.1673 14.1666V16.6666H15.834ZM7.50065 9.99992C6.58398 9.99992 5.79926 9.67353 5.14648 9.02075C4.49371 8.36797 4.16732 7.58325 4.16732 6.66659C4.16732 5.74992 4.49371 4.9652 5.14648 4.31242C5.79926 3.65964 6.58398 3.33325 7.50065 3.33325C8.41732 3.33325 9.20204 3.65964 9.85482 4.31242C10.5076 4.9652 10.834 5.74992 10.834 6.66659C10.834 7.58325 10.5076 8.36797 9.85482 9.02075C9.20204 9.67353 8.41732 9.99992 7.50065 9.99992ZM15.834 6.66659C15.834 7.58325 15.5076 8.36797 14.8548 9.02075C14.202 9.67353 13.4173 9.99992 12.5007 9.99992C12.3479 9.99992 12.1534 9.98256 11.9173 9.94783C11.6812 9.91311 11.4868 9.87492 11.334 9.83325C11.709 9.38881 11.9972 8.89575 12.1986 8.35408C12.4 7.81242 12.5007 7.24992 12.5007 6.66659C12.5007 6.08325 12.4 5.52075 12.1986 4.97909C11.9972 4.43742 11.709 3.94436 11.334 3.49992C11.5284 3.43047 11.7229 3.38534 11.9173 3.3645C12.1118 3.34367 12.3062 3.33325 12.5007 3.33325C13.4173 3.33325 14.202 3.65964 14.8548 4.31242C15.5076 4.9652 15.834 5.74992 15.834 6.66659ZM2.50065 14.9999H12.5007V14.3333C12.5007 14.1805 12.4625 14.0416 12.3861 13.9166C12.3097 13.7916 12.209 13.6944 12.084 13.6249C11.334 13.2499 10.577 12.9687 9.81315 12.7812C9.04926 12.5937 8.27843 12.4999 7.50065 12.4999C6.72287 12.4999 5.95204 12.5937 5.18815 12.7812C4.42426 12.9687 3.66732 13.2499 2.91732 13.6249C2.79232 13.6944 2.69162 13.7916 2.61523 13.9166C2.53885 14.0416 2.50065 14.1805 2.50065 14.3333V14.9999ZM7.50065 8.33325C7.95898 8.33325 8.35135 8.17006 8.67774 7.84367C9.00412 7.51728 9.16732 7.12492 9.16732 6.66659C9.16732 6.20825 9.00412 5.81589 8.67774 5.4895C8.35135 5.16311 7.95898 4.99992 7.50065 4.99992C7.04232 4.99992 6.64996 5.16311 6.32357 5.4895C5.99718 5.81589 5.83398 6.20825 5.83398 6.66659C5.83398 7.12492 5.99718 7.51728 6.32357 7.84367C6.64996 8.17006 7.04232 8.33325 7.50065 8.33325Z" fill="#1A1A1A"/>
</svg>
