<svg width="35" height="35" viewBox="0 0 35 35" fill="none" xmlns="http://www.w3.org/2000/svg">
<rect width="35" height="35" rx="3.97131" fill="#00732B"/>
<path d="M9.75049 24V21.9C9.75049 21.475 9.85986 21.0844 10.0786 20.7281C10.2974 20.3719 10.588 20.1 10.9505 19.9125C11.7255 19.525 12.513 19.2344 13.313 19.0406C14.113 18.8469 14.9255 18.75 15.7505 18.75C16.5755 18.75 17.388 18.8469 18.188 19.0406C18.988 19.2344 19.7755 19.525 20.5505 19.9125C20.913 20.1 21.2036 20.3719 21.4224 20.7281C21.6411 21.0844 21.7505 21.475 21.7505 21.9V24H9.75049ZM23.2505 24V21.75C23.2505 21.2 23.0974 20.6719 22.7911 20.1656C22.4849 19.6594 22.0505 19.225 21.488 18.8625C22.1255 18.9375 22.7255 19.0656 23.288 19.2469C23.8505 19.4281 24.3755 19.65 24.863 19.9125C25.313 20.1625 25.6567 20.4406 25.8942 20.7469C26.1317 21.0531 26.2505 21.3875 26.2505 21.75V24H23.2505ZM15.7505 18C14.9255 18 14.2192 17.7062 13.6317 17.1188C13.0442 16.5312 12.7505 15.825 12.7505 15C12.7505 14.175 13.0442 13.4688 13.6317 12.8812C14.2192 12.2937 14.9255 12 15.7505 12C16.5755 12 17.2817 12.2937 17.8692 12.8812C18.4567 13.4688 18.7505 14.175 18.7505 15C18.7505 15.825 18.4567 16.5312 17.8692 17.1188C17.2817 17.7062 16.5755 18 15.7505 18ZM23.2505 15C23.2505 15.825 22.9567 16.5312 22.3692 17.1188C21.7817 17.7062 21.0755 18 20.2505 18C20.113 18 19.938 17.9844 19.7255 17.9531C19.513 17.9219 19.338 17.8875 19.2005 17.85C19.538 17.45 19.7974 17.0062 19.9786 16.5188C20.1599 16.0312 20.2505 15.525 20.2505 15C20.2505 14.475 20.1599 13.9688 19.9786 13.4813C19.7974 12.9938 19.538 12.55 19.2005 12.15C19.3755 12.0875 19.5505 12.0469 19.7255 12.0281C19.9005 12.0094 20.0755 12 20.2505 12C21.0755 12 21.7817 12.2937 22.3692 12.8812C22.9567 13.4688 23.2505 14.175 23.2505 15ZM11.2505 22.5H20.2505V21.9C20.2505 21.7625 20.2161 21.6375 20.1474 21.525C20.0786 21.4125 19.988 21.325 19.8755 21.2625C19.2005 20.925 18.5192 20.6719 17.8317 20.5031C17.1442 20.3344 16.4505 20.25 15.7505 20.25C15.0505 20.25 14.3567 20.3344 13.6692 20.5031C12.9817 20.6719 12.3005 20.925 11.6255 21.2625C11.513 21.325 11.4224 21.4125 11.3536 21.525C11.2849 21.6375 11.2505 21.7625 11.2505 21.9V22.5ZM15.7505 16.5C16.163 16.5 16.5161 16.3531 16.8099 16.0594C17.1036 15.7656 17.2505 15.4125 17.2505 15C17.2505 14.5875 17.1036 14.2344 16.8099 13.9406C16.5161 13.6469 16.163 13.5 15.7505 13.5C15.338 13.5 14.9849 13.6469 14.6911 13.9406C14.3974 14.2344 14.2505 14.5875 14.2505 15C14.2505 15.4125 14.3974 15.7656 14.6911 16.0594C14.9849 16.3531 15.338 16.5 15.7505 16.5Z" fill="white"/>
</svg>
