<svg width="18" height="18" viewBox="0 0 18 18" fill="none" xmlns="http://www.w3.org/2000/svg">
<path d="M0.75 14.9995V12.8995C0.75 12.4745 0.859375 12.0839 1.07812 11.7276C1.29688 11.3714 1.5875 11.0995 1.95 10.912C2.725 10.5245 3.5125 10.2339 4.3125 10.0401C5.1125 9.84639 5.925 9.74951 6.75 9.74951C7.575 9.74951 8.3875 9.84639 9.1875 10.0401C9.9875 10.2339 10.775 10.5245 11.55 10.912C11.9125 11.0995 12.2031 11.3714 12.4219 11.7276C12.6406 12.0839 12.75 12.4745 12.75 12.8995V14.9995H0.75ZM14.25 14.9995V12.7495C14.25 12.1995 14.0969 11.6714 13.7906 11.1651C13.4844 10.6589 13.05 10.2245 12.4875 9.86201C13.125 9.93701 13.725 10.0651 14.2875 10.2464C14.85 10.4276 15.375 10.6495 15.8625 10.912C16.3125 11.162 16.6563 11.4401 16.8938 11.7464C17.1313 12.0526 17.25 12.387 17.25 12.7495V14.9995H14.25ZM6.75 8.99951C5.925 8.99951 5.21875 8.70576 4.63125 8.11826C4.04375 7.53076 3.75 6.82451 3.75 5.99951C3.75 5.17451 4.04375 4.46826 4.63125 3.88076C5.21875 3.29326 5.925 2.99951 6.75 2.99951C7.575 2.99951 8.28125 3.29326 8.86875 3.88076C9.45625 4.46826 9.75 5.17451 9.75 5.99951C9.75 6.82451 9.45625 7.53076 8.86875 8.11826C8.28125 8.70576 7.575 8.99951 6.75 8.99951ZM14.25 5.99951C14.25 6.82451 13.9563 7.53076 13.3688 8.11826C12.7812 8.70576 12.075 8.99951 11.25 8.99951C11.1125 8.99951 10.9375 8.98389 10.725 8.95264C10.5125 8.92139 10.3375 8.88701 10.2 8.84951C10.5375 8.44951 10.7969 8.00576 10.9781 7.51826C11.1594 7.03076 11.25 6.52451 11.25 5.99951C11.25 5.47451 11.1594 4.96826 10.9781 4.48076C10.7969 3.99326 10.5375 3.54951 10.2 3.14951C10.375 3.08701 10.55 3.04639 10.725 3.02764C10.9 3.00889 11.075 2.99951 11.25 2.99951C12.075 2.99951 12.7812 3.29326 13.3688 3.88076C13.9563 4.46826 14.25 5.17451 14.25 5.99951ZM2.25 13.4995H11.25V12.8995C11.25 12.762 11.2156 12.637 11.1469 12.5245C11.0781 12.412 10.9875 12.3245 10.875 12.262C10.2 11.9245 9.51875 11.6714 8.83125 11.5026C8.14375 11.3339 7.45 11.2495 6.75 11.2495C6.05 11.2495 5.35625 11.3339 4.66875 11.5026C3.98125 11.6714 3.3 11.9245 2.625 12.262C2.5125 12.3245 2.42188 12.412 2.35313 12.5245C2.28438 12.637 2.25 12.762 2.25 12.8995V13.4995ZM6.75 7.49951C7.1625 7.49951 7.51563 7.35264 7.80938 7.05889C8.10313 6.76514 8.25 6.41201 8.25 5.99951C8.25 5.58701 8.10313 5.23389 7.80938 4.94014C7.51563 4.64639 7.1625 4.49951 6.75 4.49951C6.3375 4.49951 5.98438 4.64639 5.69063 4.94014C5.39688 5.23389 5.25 5.58701 5.25 5.99951C5.25 6.41201 5.39688 6.76514 5.69063 7.05889C5.98438 7.35264 6.3375 7.49951 6.75 7.49951Z" fill="white"/>
</svg>
