<svg width="15" height="11" viewBox="0 0 15 11" fill="none" xmlns="http://www.w3.org/2000/svg">
<path d="M7.37915 8.28747C8.14223 8.28747 8.79085 8.02039 9.325 7.48623C9.85916 6.95208 10.1262 6.30346 10.1262 5.54038C10.1262 4.77731 9.85916 4.12869 9.325 3.59453C8.79085 3.06038 8.14223 2.7933 7.37915 2.7933C6.61607 2.7933 5.96746 3.06038 5.4333 3.59453C4.89915 4.12869 4.63207 4.77731 4.63207 5.54038C4.63207 6.30346 4.89915 6.95208 5.4333 7.48623C5.96746 8.02039 6.61607 8.28747 7.37915 8.28747ZM7.37915 7.18863C6.9213 7.18863 6.53213 7.02839 6.21164 6.70789C5.89115 6.3874 5.7309 5.99823 5.7309 5.54038C5.7309 5.08254 5.89115 4.69337 6.21164 4.37287C6.53213 4.05238 6.9213 3.89213 7.37915 3.89213C7.837 3.89213 8.22617 4.05238 8.54666 4.37287C8.86715 4.69337 9.0274 5.08254 9.0274 5.54038C9.0274 5.99823 8.86715 6.3874 8.54666 6.70789C8.22617 7.02839 7.837 7.18863 7.37915 7.18863ZM7.37915 10.1189C5.89369 10.1189 4.5405 9.70425 3.31957 8.87504C2.09865 8.04582 1.21348 6.93427 0.664062 5.54038C1.21348 4.14649 2.09865 3.03494 3.31957 2.20573C4.5405 1.37652 5.89369 0.961914 7.37915 0.961914C8.86461 0.961914 10.2178 1.37652 11.4387 2.20573C12.6597 3.03494 13.5448 4.14649 14.0942 5.54038C13.5448 6.93427 12.6597 8.04582 11.4387 8.87504C10.2178 9.70425 8.86461 10.1189 7.37915 10.1189ZM7.37915 8.89793C8.52886 8.89793 9.58445 8.59524 10.5459 7.98987C11.5074 7.38449 12.2425 6.568 12.7512 5.54038C12.2425 4.51277 11.5074 3.69628 10.5459 3.0909C9.58445 2.48553 8.52886 2.18284 7.37915 2.18284C6.22945 2.18284 5.17385 2.48553 4.21238 3.0909C3.2509 3.69628 2.5158 4.51277 2.00708 5.54038C2.5158 6.568 3.2509 7.38449 4.21238 7.98987C5.17385 8.59524 6.22945 8.89793 7.37915 8.89793Z" fill="white"/>
</svg>
