<svg width="25" height="25" viewBox="0 0 25 25" fill="none" xmlns="http://www.w3.org/2000/svg">
<path d="M5.20801 22.9173C4.33995 22.9173 3.6021 22.6135 2.99447 22.0059C2.38683 21.3982 2.08301 20.6604 2.08301 19.7923C2.08301 19.1152 2.27832 18.5119 2.66895 17.9824C3.05957 17.4529 3.5587 17.0753 4.16634 16.8496V8.15169C3.5587 7.926 3.05957 7.54839 2.66895 7.01888C2.27832 6.48937 2.08301 5.88607 2.08301 5.20898C2.08301 4.34093 2.38683 3.60308 2.99447 2.99544C3.6021 2.3878 4.33995 2.08398 5.20801 2.08398C5.88509 2.08398 6.48839 2.2793 7.0179 2.66992C7.54742 3.06055 7.92502 3.55968 8.15072 4.16732H16.8486C17.057 3.55968 17.4259 3.06055 17.9554 2.66992C18.4849 2.2793 19.0969 2.08398 19.7913 2.08398C20.6594 2.08398 21.3972 2.3878 22.0049 2.99544C22.6125 3.60308 22.9163 4.34093 22.9163 5.20898C22.9163 5.90343 22.721 6.51541 22.3304 7.04492C21.9398 7.57444 21.4406 7.94336 20.833 8.15169V16.8496C21.4406 17.0753 21.9398 17.4529 22.3304 17.9824C22.721 18.5119 22.9163 19.1152 22.9163 19.7923C22.9163 20.6604 22.6125 21.3982 22.0049 22.0059C21.3972 22.6135 20.6594 22.9173 19.7913 22.9173C19.1143 22.9173 18.511 22.722 17.9814 22.3314C17.4519 21.9408 17.0743 21.4416 16.8486 20.834H8.15072C7.92502 21.4416 7.54742 21.9408 7.0179 22.3314C6.48839 22.722 5.88509 22.9173 5.20801 22.9173ZM5.20801 6.25065C5.50315 6.25065 5.75054 6.15082 5.95019 5.95117C6.14985 5.75152 6.24967 5.50412 6.24967 5.20898C6.24967 4.91385 6.14985 4.66645 5.95019 4.4668C5.75054 4.26714 5.50315 4.16732 5.20801 4.16732C4.91287 4.16732 4.66547 4.26714 4.46582 4.4668C4.26617 4.66645 4.16634 4.91385 4.16634 5.20898C4.16634 5.50412 4.26617 5.75152 4.46582 5.95117C4.66547 6.15082 4.91287 6.25065 5.20801 6.25065ZM19.7913 6.25065C20.0865 6.25065 20.3339 6.15082 20.5335 5.95117C20.7332 5.75152 20.833 5.50412 20.833 5.20898C20.833 4.91385 20.7332 4.66645 20.5335 4.4668C20.3339 4.26714 20.0865 4.16732 19.7913 4.16732C19.4962 4.16732 19.2488 4.26714 19.0492 4.4668C18.8495 4.66645 18.7497 4.91385 18.7497 5.20898C18.7497 5.50412 18.8495 5.75152 19.0492 5.95117C19.2488 6.15082 19.4962 6.25065 19.7913 6.25065ZM8.15072 18.7506H16.8486C17.0049 18.2993 17.2479 17.9086 17.5778 17.5788C17.9077 17.2489 18.2983 17.0059 18.7497 16.8496V8.15169C18.2983 7.99544 17.9077 7.75239 17.5778 7.42253C17.2479 7.09266 17.0049 6.70204 16.8486 6.25065H8.15072C7.99447 6.70204 7.75141 7.09266 7.42155 7.42253C7.09169 7.75239 6.70106 7.99544 6.24967 8.15169V16.8496C6.70106 17.0059 7.09169 17.2489 7.42155 17.5788C7.75141 17.9086 7.99447 18.2993 8.15072 18.7506ZM19.7913 20.834C20.0865 20.834 20.3339 20.7342 20.5335 20.5345C20.7332 20.3349 20.833 20.0875 20.833 19.7923C20.833 19.4972 20.7332 19.2498 20.5335 19.0501C20.3339 18.8505 20.0865 18.7506 19.7913 18.7506C19.4962 18.7506 19.2488 18.8505 19.0492 19.0501C18.8495 19.2498 18.7497 19.4972 18.7497 19.7923C18.7497 20.0875 18.8495 20.3349 19.0492 20.5345C19.2488 20.7342 19.4962 20.834 19.7913 20.834ZM5.20801 20.834C5.50315 20.834 5.75054 20.7342 5.95019 20.5345C6.14985 20.3349 6.24967 20.0875 6.24967 19.7923C6.24967 19.4972 6.14985 19.2498 5.95019 19.0501C5.75054 18.8505 5.50315 18.7506 5.20801 18.7506C4.91287 18.7506 4.66547 18.8505 4.46582 19.0501C4.26617 19.2498 4.16634 19.4972 4.16634 19.7923C4.16634 20.0875 4.26617 20.3349 4.46582 20.5345C4.66547 20.7342 4.91287 20.834 5.20801 20.834Z" fill="white"/>
</svg>
