<svg width="25" height="25" viewBox="0 0 25 25" fill="none" xmlns="http://www.w3.org/2000/svg">
<path d="M5.20833 22.9173C4.63542 22.9173 4.14497 22.7133 3.73698 22.3053C3.32899 21.8974 3.125 21.4069 3.125 20.834V6.25065C3.125 5.67773 3.32899 5.18728 3.73698 4.7793C4.14497 4.37131 4.63542 4.16732 5.20833 4.16732H6.25V2.08398H8.33333V4.16732H16.6667V2.08398H18.75V4.16732H19.7917C20.3646 4.16732 20.855 4.37131 21.263 4.7793C21.671 5.18728 21.875 5.67773 21.875 6.25065V20.834C21.875 21.4069 21.671 21.8974 21.263 22.3053C20.855 22.7133 20.3646 22.9173 19.7917 22.9173H5.20833ZM5.20833 20.834H19.7917V10.4173H5.20833V20.834ZM5.20833 8.33398H19.7917V6.25065H5.20833V8.33398ZM12.5 14.584C12.2049 14.584 11.9575 14.4842 11.7578 14.2845C11.5582 14.0849 11.4583 13.8375 11.4583 13.5423C11.4583 13.2472 11.5582 12.9998 11.7578 12.8001C11.9575 12.6005 12.2049 12.5007 12.5 12.5007C12.7951 12.5007 13.0425 12.6005 13.2422 12.8001C13.4418 12.9998 13.5417 13.2472 13.5417 13.5423C13.5417 13.8375 13.4418 14.0849 13.2422 14.2845C13.0425 14.4842 12.7951 14.584 12.5 14.584ZM8.33333 14.584C8.03819 14.584 7.7908 14.4842 7.59115 14.2845C7.39149 14.0849 7.29167 13.8375 7.29167 13.5423C7.29167 13.2472 7.39149 12.9998 7.59115 12.8001C7.7908 12.6005 8.03819 12.5007 8.33333 12.5007C8.62847 12.5007 8.87587 12.6005 9.07552 12.8001C9.27517 12.9998 9.375 13.2472 9.375 13.5423C9.375 13.8375 9.27517 14.0849 9.07552 14.2845C8.87587 14.4842 8.62847 14.584 8.33333 14.584ZM16.6667 14.584C16.3715 14.584 16.1241 14.4842 15.9245 14.2845C15.7248 14.0849 15.625 13.8375 15.625 13.5423C15.625 13.2472 15.7248 12.9998 15.9245 12.8001C16.1241 12.6005 16.3715 12.5007 16.6667 12.5007C16.9618 12.5007 17.2092 12.6005 17.4089 12.8001C17.6085 12.9998 17.7083 13.2472 17.7083 13.5423C17.7083 13.8375 17.6085 14.0849 17.4089 14.2845C17.2092 14.4842 16.9618 14.584 16.6667 14.584ZM12.5 18.7506C12.2049 18.7506 11.9575 18.6508 11.7578 18.4512C11.5582 18.2515 11.4583 18.0041 11.4583 17.709C11.4583 17.4138 11.5582 17.1664 11.7578 16.9668C11.9575 16.7671 12.2049 16.6673 12.5 16.6673C12.7951 16.6673 13.0425 16.7671 13.2422 16.9668C13.4418 17.1664 13.5417 17.4138 13.5417 17.709C13.5417 18.0041 13.4418 18.2515 13.2422 18.4512C13.0425 18.6508 12.7951 18.7506 12.5 18.7506ZM8.33333 18.7506C8.03819 18.7506 7.7908 18.6508 7.59115 18.4512C7.39149 18.2515 7.29167 18.0041 7.29167 17.709C7.29167 17.4138 7.39149 17.1664 7.59115 16.9668C7.7908 16.7671 8.03819 16.6673 8.33333 16.6673C8.62847 16.6673 8.87587 16.7671 9.07552 16.9668C9.27517 17.1664 9.375 17.4138 9.375 17.709C9.375 18.0041 9.27517 18.2515 9.07552 18.4512C8.87587 18.6508 8.62847 18.7506 8.33333 18.7506ZM16.6667 18.7506C16.3715 18.7506 16.1241 18.6508 15.9245 18.4512C15.7248 18.2515 15.625 18.0041 15.625 17.709C15.625 17.4138 15.7248 17.1664 15.9245 16.9668C16.1241 16.7671 16.3715 16.6673 16.6667 16.6673C16.9618 16.6673 17.2092 16.7671 17.4089 16.9668C17.6085 17.1664 17.7083 17.4138 17.7083 17.709C17.7083 18.0041 17.6085 18.2515 17.4089 18.4512C17.2092 18.6508 16.9618 18.7506 16.6667 18.7506Z" fill="white"/>
</svg>
