<svg width="25" height="25" viewBox="0 0 25 25" fill="none" xmlns="http://www.w3.org/2000/svg">
<path d="M15.9372 17.3965L17.3955 15.9382L13.5413 12.084V7.29232H11.458V12.9173L15.9372 17.3965ZM12.4997 22.9173C11.0587 22.9173 9.70454 22.6439 8.43717 22.097C7.16981 21.5501 6.06738 20.8079 5.12988 19.8704C4.19238 18.9329 3.4502 17.8305 2.90332 16.5632C2.35645 15.2958 2.08301 13.9416 2.08301 12.5007C2.08301 11.0597 2.35645 9.70551 2.90332 8.43815C3.4502 7.17079 4.19238 6.06836 5.12988 5.13086C6.06738 4.19336 7.16981 3.45117 8.43717 2.9043C9.70454 2.35742 11.0587 2.08398 12.4997 2.08398C13.9406 2.08398 15.2948 2.35742 16.5622 2.9043C17.8295 3.45117 18.932 4.19336 19.8695 5.13086C20.807 6.06836 21.5492 7.17079 22.096 8.43815C22.6429 9.70551 22.9163 11.0597 22.9163 12.5007C22.9163 13.9416 22.6429 15.2958 22.096 16.5632C21.5492 17.8305 20.807 18.9329 19.8695 19.8704C18.932 20.8079 17.8295 21.5501 16.5622 22.097C15.2948 22.6439 13.9406 22.9173 12.4997 22.9173ZM12.4997 20.834C14.8087 20.834 16.7748 20.0224 18.3981 18.3991C20.0214 16.7758 20.833 14.8097 20.833 12.5007C20.833 10.1916 20.0214 8.22548 18.3981 6.60221C16.7748 4.97895 14.8087 4.16732 12.4997 4.16732C10.1906 4.16732 8.2245 4.97895 6.60124 6.60221C4.97797 8.22548 4.16634 10.1916 4.16634 12.5007C4.16634 14.8097 4.97797 16.7758 6.60124 18.3991C8.2245 20.0224 10.1906 20.834 12.4997 20.834Z" fill="white"/>
</svg>
