<svg width="28" height="28" viewBox="0 0 28 28" fill="none" xmlns="http://www.w3.org/2000/svg">
<path d="M13.9997 25.6673C12.3858 25.6673 10.8691 25.3611 9.44967 24.7486C8.03023 24.1361 6.79551 23.3048 5.74551 22.2548C4.69551 21.2048 3.86426 19.9701 3.25176 18.5507C2.63926 17.1312 2.33301 15.6145 2.33301 14.0007C2.33301 12.3868 2.63926 10.8701 3.25176 9.45065C3.86426 8.03121 4.69551 6.79648 5.74551 5.74648C6.79551 4.69648 8.03023 3.86523 9.44967 3.25273C10.8691 2.64023 12.3858 2.33398 13.9997 2.33398C16.8386 2.33398 19.3226 3.22357 21.4518 5.00273C23.5809 6.7819 24.908 9.01315 25.433 11.6965H23.0413C22.6719 10.277 22.0059 9.00829 21.0434 7.89023C20.0809 6.77218 18.8997 5.93121 17.4997 5.36732V5.83398C17.4997 6.47565 17.2712 7.02496 16.8143 7.4819C16.3573 7.93885 15.808 8.16732 15.1663 8.16732H12.833V10.5007C12.833 10.8312 12.7212 11.1083 12.4976 11.3319C12.274 11.5555 11.9969 11.6673 11.6663 11.6673H9.33301V14.0007H11.6663V17.5007H10.4997L4.89967 11.9007C4.84134 12.2507 4.78787 12.6007 4.73926 12.9507C4.69065 13.3007 4.66634 13.6507 4.66634 14.0007C4.66634 16.5479 5.56079 18.7354 7.34967 20.5632C9.13856 22.3909 11.3552 23.3145 13.9997 23.334V25.6673ZM24.6163 25.084L20.883 21.3507C20.4747 21.584 20.0372 21.7784 19.5705 21.934C19.1038 22.0895 18.608 22.1673 18.083 22.1673C16.6247 22.1673 15.3851 21.6569 14.3643 20.6361C13.3434 19.6152 12.833 18.3757 12.833 16.9173C12.833 15.459 13.3434 14.2194 14.3643 13.1986C15.3851 12.1777 16.6247 11.6673 18.083 11.6673C19.5413 11.6673 20.7809 12.1777 21.8018 13.1986C22.8226 14.2194 23.333 15.459 23.333 16.9173C23.333 17.4423 23.2552 17.9382 23.0997 18.4048C22.9441 18.8715 22.7497 19.309 22.5163 19.7173L26.2497 23.4507L24.6163 25.084ZM18.083 19.834C18.8997 19.834 19.59 19.552 20.1538 18.9882C20.7177 18.4243 20.9997 17.734 20.9997 16.9173C20.9997 16.1007 20.7177 15.4104 20.1538 14.8465C19.59 14.2826 18.8997 14.0007 18.083 14.0007C17.2663 14.0007 16.5761 14.2826 16.0122 14.8465C15.4483 15.4104 15.1663 16.1007 15.1663 16.9173C15.1663 17.734 15.4483 18.4243 16.0122 18.9882C16.5761 19.552 17.2663 19.834 18.083 19.834Z" fill="white"/>
</svg>
