<svg width="20" height="20" viewBox="0 0 20 20" fill="none" xmlns="http://www.w3.org/2000/svg">
<path d="M5.66667 19.75C4.16806 19.75 2.89062 19.2219 1.83438 18.1656C0.778125 17.1094 0.25 15.8319 0.25 14.3333V5.66667C0.25 4.16806 0.778125 2.89062 1.83438 1.83438C2.89062 0.778125 4.16806 0.25 5.66667 0.25H14.3333C15.8319 0.25 17.1094 0.778125 18.1656 1.83438C19.2219 2.89062 19.75 4.16806 19.75 5.66667V14.3333C19.75 15.8319 19.2219 17.1094 18.1656 18.1656C17.1094 19.2219 15.8319 19.75 14.3333 19.75H5.66667ZM5.66667 17.5833H14.3333C15.2361 17.5833 16.0035 17.2674 16.6354 16.6354C17.2674 16.0035 17.5833 15.2361 17.5833 14.3333V5.66667C17.5833 4.76389 17.2674 3.99653 16.6354 3.36458C16.0035 2.73264 15.2361 2.41667 14.3333 2.41667H5.66667C4.76389 2.41667 3.99653 2.73264 3.36458 3.36458C2.73264 3.99653 2.41667 4.76389 2.41667 5.66667V14.3333C2.41667 15.2361 2.73264 16.0035 3.36458 16.6354C3.99653 17.2674 4.76389 17.5833 5.66667 17.5833ZM10 15.4167C11.3542 15.4167 12.5052 14.9427 13.4531 13.9948C14.401 13.0469 14.875 11.8958 14.875 10.5417C14.875 9.1875 14.401 8.03646 13.4531 7.08854C12.5052 6.14062 11.3542 5.66667 10 5.66667C8.64583 5.66667 7.49479 6.14062 6.54688 7.08854C5.59896 8.03646 5.125 9.1875 5.125 10.5417C5.125 11.8958 5.59896 13.0469 6.54688 13.9948C7.49479 14.9427 8.64583 15.4167 10 15.4167ZM10 13.25C9.24167 13.25 8.60069 12.9882 8.07708 12.4646C7.55347 11.941 7.29167 11.3 7.29167 10.5417C7.29167 9.78333 7.55347 9.14236 8.07708 8.61875C8.60069 8.09514 9.24167 7.83333 10 7.83333C10.7583 7.83333 11.3993 8.09514 11.9229 8.61875C12.4465 9.14236 12.7083 9.78333 12.7083 10.5417C12.7083 11.3 12.4465 11.941 11.9229 12.4646C11.3993 12.9882 10.7583 13.25 10 13.25ZM10 5.125C10.3069 5.125 10.5642 5.02118 10.7719 4.81354C10.9795 4.6059 11.0833 4.34861 11.0833 4.04167C11.0833 3.73472 10.9795 3.47743 10.7719 3.26979C10.5642 3.06215 10.3069 2.95833 10 2.95833C9.69306 2.95833 9.43576 3.06215 9.22812 3.26979C9.02049 3.47743 8.91667 3.73472 8.91667 4.04167C8.91667 4.34861 9.02049 4.6059 9.22812 4.81354C9.43576 5.02118 9.69306 5.125 10 5.125Z" fill="#555555"/>
</svg>
