<svg width="20" height="20" viewBox="0 0 20 20" fill="none" xmlns="http://www.w3.org/2000/svg">
<path d="M9.99967 13.6673L13.6663 10.0007L9.99967 6.33398L8.71634 7.61732L10.183 9.08398H6.33301V10.9173H10.183L8.71634 12.384L9.99967 13.6673ZM9.99967 19.1673C8.73162 19.1673 7.53995 18.9267 6.42467 18.4454C5.3094 17.9642 4.33926 17.3111 3.51426 16.4861C2.68926 15.6611 2.03613 14.6909 1.55488 13.5757C1.07363 12.4604 0.833008 11.2687 0.833008 10.0007C0.833008 8.7326 1.07363 7.54093 1.55488 6.42565C2.03613 5.31037 2.68926 4.34023 3.51426 3.51523C4.33926 2.69023 5.3094 2.03711 6.42467 1.55586C7.53995 1.07461 8.73162 0.833984 9.99967 0.833984C11.2677 0.833984 12.4594 1.07461 13.5747 1.55586C14.69 2.03711 15.6601 2.69023 16.4851 3.51523C17.3101 4.34023 17.9632 5.31037 18.4445 6.42565C18.9257 7.54093 19.1663 8.7326 19.1663 10.0007C19.1663 11.2687 18.9257 12.4604 18.4445 13.5757C17.9632 14.6909 17.3101 15.6611 16.4851 16.4861C15.6601 17.3111 14.69 17.9642 13.5747 18.4454C12.4594 18.9267 11.2677 19.1673 9.99967 19.1673Z" fill="#00732B"/>
</svg>
