<svg width="22" height="22" viewBox="0 0 22 22" fill="none" xmlns="http://www.w3.org/2000/svg">
<path d="M5.16667 21.5V19.1667H9.83333V15.55C8.88056 15.3361 8.02986 14.9326 7.28125 14.3396C6.53264 13.7465 5.98333 13.0028 5.63333 12.1083C4.175 11.9333 2.95486 11.2965 1.97292 10.1979C0.990972 9.09931 0.5 7.81111 0.5 6.33333V5.16667C0.5 4.525 0.728472 3.97569 1.18542 3.51875C1.64236 3.06181 2.19167 2.83333 2.83333 2.83333H5.16667V0.5H16.8333V2.83333H19.1667C19.8083 2.83333 20.3576 3.06181 20.8146 3.51875C21.2715 3.97569 21.5 4.525 21.5 5.16667V6.33333C21.5 7.81111 21.009 9.09931 20.0271 10.1979C19.0451 11.2965 17.825 11.9333 16.3667 12.1083C16.0167 13.0028 15.4674 13.7465 14.7188 14.3396C13.9701 14.9326 13.1194 15.3361 12.1667 15.55V19.1667H16.8333V21.5H5.16667ZM5.16667 9.6V5.16667H2.83333V6.33333C2.83333 7.07222 3.04722 7.73819 3.475 8.33125C3.90278 8.92431 4.46667 9.34722 5.16667 9.6ZM11 13.3333C11.9722 13.3333 12.7986 12.9931 13.4792 12.3125C14.1597 11.6319 14.5 10.8056 14.5 9.83333V2.83333H7.5V9.83333C7.5 10.8056 7.84028 11.6319 8.52083 12.3125C9.20139 12.9931 10.0278 13.3333 11 13.3333ZM16.8333 9.6C17.5333 9.34722 18.0972 8.92431 18.525 8.33125C18.9528 7.73819 19.1667 7.07222 19.1667 6.33333V5.16667H16.8333V9.6Z" fill="white"/>
</svg>
