<svg width="24" height="24" viewBox="0 0 24 24" fill="none" xmlns="http://www.w3.org/2000/svg">
<path d="M3.83301 23.6673C2.86079 23.6673 2.0344 23.327 1.35384 22.6465C0.673286 21.9659 0.333008 21.1395 0.333008 20.1673C0.333008 19.409 0.551758 18.7333 0.989258 18.1402C1.42676 17.5472 1.98579 17.1243 2.66634 16.8715V7.12982C1.98579 6.87704 1.42676 6.45412 0.989258 5.86107C0.551758 5.26801 0.333008 4.59232 0.333008 3.83398C0.333008 2.86176 0.673286 2.03537 1.35384 1.35482C2.0344 0.674262 2.86079 0.333984 3.83301 0.333984C4.59134 0.333984 5.26704 0.552734 5.86009 0.990234C6.45315 1.42773 6.87606 1.98676 7.12884 2.66732H16.8705C17.1038 1.98676 17.517 1.42773 18.1101 0.990234C18.7031 0.552734 19.3886 0.333984 20.1663 0.333984C21.1386 0.333984 21.965 0.674262 22.6455 1.35482C23.3261 2.03537 23.6663 2.86176 23.6663 3.83398C23.6663 4.61176 23.4476 5.29718 23.0101 5.89023C22.5726 6.48329 22.0136 6.89648 21.333 7.12982V16.8715C22.0136 17.1243 22.5726 17.5472 23.0101 18.1402C23.4476 18.7333 23.6663 19.409 23.6663 20.1673C23.6663 21.1395 23.3261 21.9659 22.6455 22.6465C21.965 23.327 21.1386 23.6673 20.1663 23.6673C19.408 23.6673 18.7323 23.4486 18.1393 23.0111C17.5462 22.5736 17.1233 22.0145 16.8705 21.334H7.12884C6.87606 22.0145 6.45315 22.5736 5.86009 23.0111C5.26704 23.4486 4.59134 23.6673 3.83301 23.6673ZM3.83301 5.00065C4.16356 5.00065 4.44065 4.88885 4.66426 4.66523C4.88787 4.44162 4.99967 4.16454 4.99967 3.83398C4.99967 3.50343 4.88787 3.22635 4.66426 3.00273C4.44065 2.77912 4.16356 2.66732 3.83301 2.66732C3.50245 2.66732 3.22537 2.77912 3.00176 3.00273C2.77815 3.22635 2.66634 3.50343 2.66634 3.83398C2.66634 4.16454 2.77815 4.44162 3.00176 4.66523C3.22537 4.88885 3.50245 5.00065 3.83301 5.00065ZM20.1663 5.00065C20.4969 5.00065 20.774 4.88885 20.9976 4.66523C21.2212 4.44162 21.333 4.16454 21.333 3.83398C21.333 3.50343 21.2212 3.22635 20.9976 3.00273C20.774 2.77912 20.4969 2.66732 20.1663 2.66732C19.8358 2.66732 19.5587 2.77912 19.3351 3.00273C19.1115 3.22635 18.9997 3.50343 18.9997 3.83398C18.9997 4.16454 19.1115 4.44162 19.3351 4.66523C19.5587 4.88885 19.8358 5.00065 20.1663 5.00065ZM7.12884 19.0007H16.8705C17.0455 18.4951 17.3177 18.0576 17.6872 17.6882C18.0566 17.3187 18.4941 17.0465 18.9997 16.8715V7.12982C18.4941 6.95482 18.0566 6.6826 17.6872 6.31315C17.3177 5.94371 17.0455 5.50621 16.8705 5.00065H7.12884C6.95384 5.50621 6.68162 5.94371 6.31217 6.31315C5.94273 6.6826 5.50523 6.95482 4.99967 7.12982V16.8715C5.50523 17.0465 5.94273 17.3187 6.31217 17.6882C6.68162 18.0576 6.95384 18.4951 7.12884 19.0007ZM20.1663 21.334C20.4969 21.334 20.774 21.2222 20.9976 20.9986C21.2212 20.775 21.333 20.4979 21.333 20.1673C21.333 19.8368 21.2212 19.5597 20.9976 19.3361C20.774 19.1125 20.4969 19.0007 20.1663 19.0007C19.8358 19.0007 19.5587 19.1125 19.3351 19.3361C19.1115 19.5597 18.9997 19.8368 18.9997 20.1673C18.9997 20.4979 19.1115 20.775 19.3351 20.9986C19.5587 21.2222 19.8358 21.334 20.1663 21.334ZM3.83301 21.334C4.16356 21.334 4.44065 21.2222 4.66426 20.9986C4.88787 20.775 4.99967 20.4979 4.99967 20.1673C4.99967 19.8368 4.88787 19.5597 4.66426 19.3361C4.44065 19.1125 4.16356 19.0007 3.83301 19.0007C3.50245 19.0007 3.22537 19.1125 3.00176 19.3361C2.77815 19.5597 2.66634 19.8368 2.66634 20.1673C2.66634 20.4979 2.77815 20.775 3.00176 20.9986C3.22537 21.2222 3.50245 21.334 3.83301 21.334Z" fill="white"/>
</svg>
