<svg width="20" height="24" viewBox="0 0 20 24" fill="none" xmlns="http://www.w3.org/2000/svg">
<path d="M5.33366 19.0007H14.667V16.6673H5.33366V19.0007ZM5.33366 14.334H14.667V12.0007H5.33366V14.334ZM3.00033 23.6673C2.35866 23.6673 1.80935 23.4388 1.35241 22.9819C0.895464 22.525 0.666992 21.9757 0.666992 21.334V2.66732C0.666992 2.02565 0.895464 1.47635 1.35241 1.0194C1.80935 0.562457 2.35866 0.333984 3.00033 0.333984H12.3337L19.3337 7.33398V21.334C19.3337 21.9757 19.1052 22.525 18.6482 22.9819C18.1913 23.4388 17.642 23.6673 17.0003 23.6673H3.00033ZM11.167 8.50065V2.66732H3.00033V21.334H17.0003V8.50065H11.167Z" fill="white"/>
</svg>
