<svg width="16" height="16" viewBox="0 0 16 16" fill="none" xmlns="http://www.w3.org/2000/svg">
<path fill-rule="evenodd" clip-rule="evenodd" d="M11.5668 12.1746C10.8092 12.9301 9.84296 13.4417 8.79228 13.6438C7.73347 13.8488 6.63767 13.7357 5.64306 13.3187C3.60548 12.4656 2.27237 10.4803 2.25386 8.27155C2.24321 6.64785 2.96729 5.10639 4.22379 4.07785C5.48028 3.04932 7.13447 2.64399 8.72416 2.97512C9.77206 3.21281 10.7263 3.75495 11.467 4.53339C12.5057 5.52983 13.1068 6.89756 13.1383 8.33657C13.1488 9.77456 12.5828 11.1568 11.5668 12.1746Z" stroke="#075FB0" stroke-width="2" stroke-linecap="round" stroke-linejoin="round"/>
<path d="M10.7613 3.82581C10.3707 4.21632 10.3707 4.84947 10.7613 5.23999C11.1518 5.6305 11.785 5.6305 12.1755 5.23999L10.7613 3.82581ZM15.4176 1.99804C15.8082 1.60752 15.8082 0.974372 15.4176 0.583858C15.0271 0.193344 14.3939 0.193344 14.0034 0.583858L15.4176 1.99804ZM12.1501 0.275422C11.5978 0.272089 11.1474 0.717083 11.1441 1.26934C11.1407 1.8216 11.5858 2.272 12.138 2.27533L12.1501 0.275422ZM14.7036 2.29082C15.2559 2.29415 15.7063 1.84916 15.7096 1.2969C15.7129 0.744634 15.2679 0.294237 14.7156 0.290904L14.7036 2.29082ZM15.7096 1.28372C15.7062 0.731456 15.2558 0.286462 14.7035 0.289795C14.1512 0.293128 13.7062 0.743526 13.7096 1.29579L15.7096 1.28372ZM13.725 3.86117C13.7284 4.41343 14.1788 4.85843 14.7311 4.85509C15.2834 4.85176 15.7284 4.40136 15.725 3.8491L13.725 3.86117ZM11.4684 4.5329L12.1755 5.23999L15.4176 1.99804L14.7105 1.29095L14.0034 0.583858L10.7613 3.82581L11.4684 4.5329ZM12.1441 1.27538L12.138 2.27533L14.7036 2.29082L14.7096 1.29086L14.7156 0.290904L12.1501 0.275422L12.1441 1.27538ZM14.7096 1.28975L13.7096 1.29579L13.725 3.86117L14.725 3.85514L15.725 3.8491L15.7096 1.28372L14.7096 1.28975Z" fill="#075FB0"/>
</svg>
