<svg width="24" height="24" viewBox="0 0 24 24" fill="none" xmlns="http://www.w3.org/2000/svg">
<path d="M8.39939 17L11.9994 13.4L15.5994 17L16.9994 15.6L13.3994 12L16.9994 8.4L15.5994 7L11.9994 10.6L8.39939 7L6.99939 8.4L10.5994 12L6.99939 15.6L8.39939 17ZM11.9994 22C10.6161 22 9.31606 21.7375 8.09939 21.2125C6.88272 20.6875 5.82439 19.975 4.92439 19.075C4.02439 18.175 3.31189 17.1167 2.78689 15.9C2.26189 14.6833 1.99939 13.3833 1.99939 12C1.99939 10.6167 2.26189 9.31667 2.78689 8.1C3.31189 6.88333 4.02439 5.825 4.92439 4.925C5.82439 4.025 6.88272 3.3125 8.09939 2.7875C9.31606 2.2625 10.6161 2 11.9994 2C13.3827 2 14.6827 2.2625 15.8994 2.7875C17.1161 3.3125 18.1744 4.025 19.0744 4.925C19.9744 5.825 20.6869 6.88333 21.2119 8.1C21.7369 9.31667 21.9994 10.6167 21.9994 12C21.9994 13.3833 21.7369 14.6833 21.2119 15.9C20.6869 17.1167 19.9744 18.175 19.0744 19.075C18.1744 19.975 17.1161 20.6875 15.8994 21.2125C14.6827 21.7375 13.3827 22 11.9994 22Z" fill="#F46C6C"/>
</svg>
