<svg width="18" height="22" viewBox="0 0 18 22" fill="none" xmlns="http://www.w3.org/2000/svg">
<path fill-rule="evenodd" clip-rule="evenodd" d="M1 8.71498V15.5721C1 18.0969 3.0467 20.1436 5.57143 20.1436H12.4286C14.9533 20.1436 17 18.0969 17 15.5721V8.71498C17 6.19025 14.9533 4.14355 12.4286 4.14355H5.57143C3.0467 4.14355 1 6.19025 1 8.71498Z" stroke="#075FB0" stroke-width="1.8" stroke-linecap="round" stroke-linejoin="round"/>
<path d="M11.5284 5.28599C11.5284 5.78305 11.9314 6.18599 12.4284 6.18599C12.9255 6.18599 13.3284 5.78305 13.3284 5.28599H11.5284ZM13.3284 1.85742C13.3284 1.36037 12.9255 0.957422 12.4284 0.957422C11.9314 0.957422 11.5284 1.36037 11.5284 1.85742H13.3284ZM4.67129 5.28599C4.67129 5.78305 5.07423 6.18599 5.57129 6.18599C6.06835 6.18599 6.47129 5.78305 6.47129 5.28599H4.67129ZM6.47129 1.85742C6.47129 1.36037 6.06835 0.957422 5.57129 0.957422C5.07423 0.957422 4.67129 1.36037 4.67129 1.85742H6.47129ZM4.67129 10.1843C4.67129 10.6813 5.07423 11.0843 5.57129 11.0843C6.06835 11.0843 6.47129 10.6813 6.47129 10.1843H4.67129ZM8.99986 10.1843L9.89827 10.2378C9.89933 10.22 9.89986 10.2021 9.89986 10.1843H8.99986ZM8.27269 11.6487L8.85834 12.3321L8.85835 12.3321L8.27269 11.6487ZM6.71415 12.1431L6.62948 11.2471C6.16728 11.2908 5.81415 11.6789 5.81415 12.1431C5.81415 12.6074 6.16728 12.9955 6.62948 13.0391L6.71415 12.1431ZM8.27269 12.6375L8.85834 11.9541L8.27269 12.6375ZM8.99986 14.102H9.89986C9.89986 14.0841 9.89933 14.0663 9.89827 14.0485L8.99986 14.102ZM6.47129 14.102C6.47129 13.6049 6.06835 13.202 5.57129 13.202C5.07423 13.202 4.67129 13.6049 4.67129 14.102H6.47129ZM10.6999 9.01061C10.3225 9.33406 10.2787 9.90223 10.6022 10.2796C10.9256 10.6571 11.4938 10.7008 11.8712 10.3774L10.6999 9.01061ZM12.4284 8.71456H13.3284C13.3284 8.3631 13.1238 8.04379 12.8045 7.89692C12.4852 7.75004 12.1096 7.80248 11.8428 8.03119L12.4284 8.71456ZM11.5284 15.5717C11.5284 16.0688 11.9314 16.4717 12.4284 16.4717C12.9255 16.4717 13.3284 16.0688 13.3284 15.5717H11.5284ZM12.4284 5.28599H13.3284V1.85742H12.4284H11.5284V5.28599H12.4284ZM5.57129 5.28599H6.47129V1.85742H5.57129H4.67129V5.28599H5.57129ZM5.57129 10.1843H6.47129C6.47129 9.99148 6.54135 9.88292 6.65238 9.79834C6.78845 9.69469 7.01475 9.61512 7.28557 9.61512C7.5564 9.61512 7.7827 9.69469 7.91877 9.79834C8.0298 9.88292 8.09986 9.99148 8.09986 10.1843H8.99986H9.89986C9.89986 9.39762 9.54135 8.77161 9.00953 8.36648C8.50273 7.98041 7.87189 7.81512 7.28557 7.81512C6.69926 7.81512 6.06842 7.98041 5.56162 8.36648C5.0298 8.77161 4.67129 9.39762 4.67129 10.1843H5.57129ZM8.99986 10.1843L8.10145 10.1307C8.08222 10.4536 7.93265 10.7549 7.68703 10.9654L8.27269 11.6487L8.85835 12.3321C9.47467 11.8039 9.85 11.048 9.89827 10.2378L8.99986 10.1843ZM8.27269 11.6487L7.68703 10.9654C7.44142 11.1759 7.12084 11.2775 6.79881 11.2471L6.71415 12.1431L6.62948 13.0391C7.43758 13.1155 8.24202 12.8603 8.85834 12.3321L8.27269 11.6487ZM6.71415 12.1431L6.79881 13.0391C7.12084 13.0087 7.44142 13.1104 7.68703 13.3209L8.27269 12.6375L8.85834 11.9541C8.24202 11.4259 7.43758 11.1708 6.62948 11.2471L6.71415 12.1431ZM8.27269 12.6375L7.68703 13.3209C7.93264 13.5314 8.08222 13.8326 8.10145 14.1555L8.99986 14.102L9.89827 14.0485C9.85 13.2382 9.47467 12.4823 8.85834 11.9541L8.27269 12.6375ZM8.99986 14.102H8.09986C8.09986 14.2948 8.0298 14.4033 7.91877 14.4879C7.7827 14.5916 7.5564 14.6711 7.28557 14.6711C7.01475 14.6711 6.78845 14.5916 6.65238 14.4879C6.54135 14.4033 6.47129 14.2948 6.47129 14.102H5.57129H4.67129C4.67129 14.8886 5.0298 15.5146 5.56162 15.9198C6.06842 16.3058 6.69926 16.4711 7.28557 16.4711C7.87189 16.4711 8.50273 16.3058 9.00953 15.9198C9.54135 15.5146 9.89986 14.8886 9.89986 14.102H8.99986ZM11.2856 9.69399L11.8712 10.3774L13.0141 9.39794L12.4284 8.71456L11.8428 8.03119L10.6999 9.01061L11.2856 9.69399ZM12.4284 8.71456H11.5284V15.5717H12.4284H13.3284V8.71456H12.4284Z" fill="#075FB0"/>
</svg>
