<svg width="18" height="18" viewBox="0 0 18 18" fill="none" xmlns="http://www.w3.org/2000/svg">
<path fill-rule="evenodd" clip-rule="evenodd" d="M17.0225 3.49936V13.8454C17.0225 14.4323 16.7646 14.9896 16.3173 15.3696C15.87 15.7496 15.2783 15.9139 14.699 15.819L12.1333 15.3996L5.9116 16.9996L2.70018 16.4739C1.73287 16.3159 1.02253 15.4803 1.02246 14.5002V4.1542C1.02245 3.56725 1.28028 3.00993 1.72762 2.62993C2.17496 2.24993 2.76665 2.08562 3.34589 2.18054L5.9116 2.59996L12.1333 1L15.3447 1.5257C16.3121 1.68363 17.0224 2.51927 17.0225 3.49936Z" stroke="#075FB0" stroke-width="1.8" stroke-linecap="round" stroke-linejoin="round"/>
<path d="M6.81211 2.6004C6.81211 2.10335 6.40917 1.7004 5.91211 1.7004C5.41505 1.7004 5.01211 2.10335 5.01211 2.6004H6.81211ZM5.01211 17C5.01211 17.4971 5.41505 17.9 5.91211 17.9C6.40917 17.9 6.81211 17.4971 6.81211 17H5.01211ZM13.0342 1C13.0342 0.502944 12.6313 0.1 12.1342 0.1C11.6372 0.1 11.2342 0.502944 11.2342 1H13.0342ZM11.2342 15.3996C11.2342 15.8967 11.6372 16.2996 12.1342 16.2996C12.6313 16.2996 13.0342 15.8967 13.0342 15.3996H11.2342ZM5.91211 2.6004H5.01211V17H5.91211H6.81211V2.6004H5.91211ZM12.1342 1H11.2342V15.3996H12.1342H13.0342V1H12.1342Z" fill="#075FB0"/>
</svg>
