<svg width="19" height="18" viewBox="0 0 19 18" fill="none" xmlns="http://www.w3.org/2000/svg">
<path d="M16.0666 5.82251C16.0863 6.37444 16.5497 6.80594 17.1016 6.78629C17.6535 6.76664 18.085 6.30327 18.0654 5.75134L16.0666 5.82251ZM12.4754 1.50253V2.50253C12.4866 2.50253 12.4977 2.50234 12.5088 2.50197L12.4754 1.50253ZM5.5906 1.50253L5.55719 2.50197C5.56832 2.50234 5.57946 2.50253 5.5906 2.50253V1.50253ZM0.000633359 5.75134C-0.01902 6.30327 0.41248 6.76664 0.964415 6.78629C1.51635 6.80594 1.97971 6.37444 1.99937 5.82251L0.000633359 5.75134ZM18.066 5.78649C18.066 5.2342 17.6183 4.78649 17.066 4.78649C16.5137 4.78649 16.066 5.2342 16.066 5.78649H18.066ZM17.066 12.2131L18.0654 12.2487C18.0658 12.2368 18.066 12.2249 18.066 12.2131H17.066ZM12.4754 16.4975L12.5088 15.498C12.4977 15.4977 12.4866 15.4975 12.4754 15.4975V16.4975ZM5.5906 16.4975V15.4975C5.57946 15.4975 5.56832 15.4977 5.55719 15.498L5.5906 16.4975ZM1 12.2131H0C0 12.2249 0.000211179 12.2368 0.000633359 12.2487L1 12.2131ZM2 5.78649C2 5.2342 1.55228 4.78649 1 4.78649C0.447715 4.78649 0 5.2342 0 5.78649H2ZM17.5704 6.64995C18.0473 6.37137 18.2081 5.75895 17.9295 5.28207C17.6509 4.8052 17.0385 4.64444 16.5616 4.92302L17.5704 6.64995ZM11.4279 9.08011L10.9235 8.21661L10.9152 8.22157L11.4279 9.08011ZM6.6381 9.08011L7.15086 8.22153L7.14251 8.21665L6.6381 9.08011ZM1.50441 4.92302C1.02753 4.64444 0.415116 4.8052 0.136537 5.28207C-0.142042 5.75895 0.0187104 6.37137 0.495588 6.64995L1.50441 4.92302ZM17.066 5.78692L18.0654 5.75134C17.9585 2.75068 15.4429 0.402786 12.442 0.503087L12.4754 1.50253L12.5088 2.50197C14.4074 2.43851 15.999 3.92397 16.0666 5.82251L17.066 5.78692ZM12.4754 1.50253V0.502529H5.5906V1.50253V2.50253H12.4754V1.50253ZM5.5906 1.50253L5.624 0.503087C2.62314 0.402786 0.107481 2.75068 0.000633359 5.75134L1 5.78692L1.99937 5.82251C2.06697 3.92397 3.65863 2.43851 5.55719 2.50197L5.5906 1.50253ZM17.066 5.78649H16.066V12.2131H17.066H18.066V5.78649H17.066ZM17.066 12.2131L16.0666 12.1775C15.999 14.076 14.4074 15.5615 12.5088 15.498L12.4754 16.4975L12.442 17.4969C15.4429 17.5972 17.9585 15.2493 18.0654 12.2487L17.066 12.2131ZM12.4754 16.4975V15.4975H5.5906V16.4975V17.4975H12.4754V16.4975ZM5.5906 16.4975L5.55719 15.498C3.65863 15.5615 2.06697 14.076 1.99937 12.1775L1 12.2131L0.000633359 12.2487C0.107481 15.2493 2.62314 17.5972 5.624 17.4969L5.5906 16.4975ZM1 12.2131H2V5.78649H1H0V12.2131H1ZM17.066 5.78649L16.5616 4.92302L10.9235 8.21665L11.4279 9.08011L11.9323 9.94358L17.5704 6.64995L17.066 5.78649ZM11.4279 9.08011L10.9152 8.22157C9.75589 8.91391 8.31012 8.91391 7.15084 8.22157L6.6381 9.08011L6.12536 9.93866C7.91626 11.0082 10.1497 11.0082 11.9406 9.93866L11.4279 9.08011ZM6.6381 9.08011L7.14251 8.21665L1.50441 4.92302L1 5.78649L0.495588 6.64995L6.13369 9.94358L6.6381 9.08011Z" fill="#075FB0"/>
</svg>
