<svg width="13" height="14" viewBox="0 0 13 14" fill="none" xmlns="http://www.w3.org/2000/svg">
<rect y="0.143555" width="12.9167" height="12.9167" rx="6.45834" fill="#E77213"/>
<path d="M5.99753 7.90074L5.94851 3.09668H6.95834L6.91912 7.90074H5.99753ZM6.45832 10.1067C6.28838 10.1067 6.14459 10.0479 6.02694 9.9302C5.90929 9.80602 5.85046 9.65895 5.85046 9.48902C5.85046 9.32561 5.90929 9.18509 6.02694 9.06744C6.14459 8.94325 6.28838 8.88116 6.45832 8.88116C6.62173 8.88116 6.76225 8.94325 6.8799 9.06744C7.00409 9.18509 7.06618 9.32561 7.06618 9.48902C7.06618 9.65895 7.00409 9.80602 6.8799 9.9302C6.76225 10.0479 6.62173 10.1067 6.45832 10.1067Z" fill="white"/>
</svg>
