<svg width="14" height="14" viewBox="0 0 14 14" fill="none" xmlns="http://www.w3.org/2000/svg">
<path d="M5.85049 13.4349C5.61438 13.4349 5.41646 13.355 5.25674 13.1953C5.09702 13.0356 5.01716 12.8377 5.01716 12.6016V7.60156L0.183824 1.4349C-0.0245098 1.15712 -0.0557598 0.865451 0.0900735 0.559896C0.235907 0.25434 0.489379 0.101562 0.85049 0.101562H12.5172C12.8783 0.101562 13.1317 0.25434 13.2776 0.559896C13.4234 0.865451 13.3922 1.15712 13.1838 1.4349L8.35049 7.60156V12.6016C8.35049 12.8377 8.27063 13.0356 8.11091 13.1953C7.95118 13.355 7.75327 13.4349 7.51716 13.4349H5.85049ZM6.68382 7.01823L10.8088 1.76823H2.55882L6.68382 7.01823Z" fill="#2F2F2F"/>
</svg>
