<svg width="13" height="14" viewBox="0 0 13 14" fill="none" xmlns="http://www.w3.org/2000/svg">
<rect y="0.143555" width="12.9167" height="12.9167" rx="6.45834" fill="#00732B"/>
<path d="M4.13383 6.53106C4.09553 6.4873 4.04898 6.45151 3.99685 6.42573C3.94472 6.39996 3.88802 6.38471 3.82999 6.38084C3.77196 6.37698 3.71374 6.38459 3.65865 6.40322C3.60356 6.42186 3.55269 6.45117 3.50892 6.48947C3.46516 6.52777 3.42937 6.57432 3.40359 6.62645C3.37782 6.67858 3.36257 6.73528 3.3587 6.79331C3.35484 6.85134 3.36245 6.90956 3.38109 6.96465C3.39972 7.01974 3.42903 7.07062 3.46733 7.11438L5.01733 8.88603C5.05797 8.93262 5.10791 8.97019 5.16394 8.99631C5.21997 9.02243 5.28086 9.03653 5.34267 9.0377C5.40448 9.03887 5.46585 9.02708 5.52283 9.00309C5.57981 8.97911 5.63113 8.94345 5.6735 8.89843L9.43793 4.91286C9.51858 4.82749 9.562 4.71359 9.55866 4.5962C9.55532 4.47881 9.50548 4.36756 9.42011 4.28692C9.33474 4.20628 9.22083 4.16285 9.10345 4.1662C8.98606 4.16954 8.87481 4.21938 8.79417 4.30474L5.36402 7.93743L4.13383 6.53106Z" fill="white"/>
</svg>
