<svg width="18" height="12" viewBox="0 0 18 12" fill="none" xmlns="http://www.w3.org/2000/svg">
<path d="M12.4393 0.528711C11.9423 0.528711 11.5393 0.931655 11.5393 1.42871C11.5393 1.92577 11.9423 2.32871 12.4393 2.32871V0.528711ZM17.0107 2.32871C17.5078 2.32871 17.9107 1.92577 17.9107 1.42871C17.9107 0.931655 17.5078 0.528711 17.0107 0.528711V2.32871ZM17.9107 1.42871C17.9107 0.931655 17.5078 0.528711 17.0107 0.528711C16.5137 0.528711 16.1107 0.931655 16.1107 1.42871H17.9107ZM16.1107 6.00014C16.1107 6.4972 16.5137 6.90014 17.0107 6.90014C17.5078 6.90014 17.9107 6.4972 17.9107 6.00014H16.1107ZM17.6471 2.06511C17.9986 1.71364 17.9986 1.14379 17.6471 0.792315C17.2957 0.440843 16.7258 0.440843 16.3743 0.792315L17.6471 2.06511ZM9.01074 9.42871L8.37435 10.0651C8.72582 10.4166 9.29567 10.4166 9.64714 10.0651L9.01074 9.42871ZM5.58217 6.00014L6.21857 5.36374C5.86709 5.01227 5.29725 5.01227 4.94577 5.36374L5.58217 6.00014ZM0.374346 9.93517C0.0228742 10.2866 0.0228742 10.8565 0.374346 11.208C0.725818 11.5594 1.29567 11.5594 1.64714 11.208L0.374346 9.93517ZM12.4393 1.42871V2.32871H17.0107V1.42871V0.528711H12.4393V1.42871ZM17.0107 1.42871H16.1107V6.00014H17.0107H17.9107V1.42871H17.0107ZM17.0107 1.42871L16.3743 0.792315L8.37435 8.79232L9.01074 9.42871L9.64714 10.0651L17.6471 2.06511L17.0107 1.42871ZM9.01074 9.42871L9.64714 8.79232L6.21857 5.36374L5.58217 6.00014L4.94577 6.63654L8.37435 10.0651L9.01074 9.42871ZM5.58217 6.00014L4.94577 5.36374L0.374346 9.93517L1.01074 10.5716L1.64714 11.208L6.21857 6.63654L5.58217 6.00014Z" fill="#075FB0"/>
</svg>
