<svg width="16" height="20" viewBox="0 0 16 20" fill="none" xmlns="http://www.w3.org/2000/svg">
<path d="M7.99866 9C9.09866 9 10.0403 8.60833 10.8237 7.825C11.607 7.04167 11.9987 6.1 11.9987 5V2H3.99866V5C3.99866 6.1 4.39032 7.04167 5.17366 7.825C5.95699 8.60833 6.89866 9 7.99866 9ZM-0.00134277 20V18H1.99866V15C1.99866 13.9833 2.23616 13.0292 2.71116 12.1375C3.18616 11.2458 3.84866 10.5333 4.69866 10C3.84866 9.46667 3.18616 8.75417 2.71116 7.8625C2.23616 6.97083 1.99866 6.01667 1.99866 5V2H-0.00134277V0H15.9987V2H13.9987V5C13.9987 6.01667 13.7612 6.97083 13.2862 7.8625C12.8112 8.75417 12.1487 9.46667 11.2987 10C12.1487 10.5333 12.8112 11.2458 13.2862 12.1375C13.7612 13.0292 13.9987 13.9833 13.9987 15V18H15.9987V20H-0.00134277Z" fill="#7C4DFF"/>
</svg>
