<svg width="22" height="22" viewBox="0 0 22 22" fill="none" xmlns="http://www.w3.org/2000/svg">
<path d="M10.083 15.583H11.9163V10.083H10.083V15.583ZM10.9997 8.24967C11.2594 8.24967 11.4771 8.16183 11.6528 7.98613C11.8285 7.81044 11.9163 7.59273 11.9163 7.33301C11.9163 7.07329 11.8285 6.85558 11.6528 6.67988C11.4771 6.50419 11.2594 6.41634 10.9997 6.41634C10.74 6.41634 10.5222 6.50419 10.3465 6.67988C10.1709 6.85558 10.083 7.07329 10.083 7.33301C10.083 7.59273 10.1709 7.81044 10.3465 7.98613C10.5222 8.16183 10.74 8.24967 10.9997 8.24967ZM10.9997 20.1663C9.73162 20.1663 8.53995 19.9257 7.42467 19.4445C6.3094 18.9632 5.33926 18.3101 4.51426 17.4851C3.68926 16.6601 3.03613 15.69 2.55488 14.5747C2.07363 13.4594 1.83301 12.2677 1.83301 10.9997C1.83301 9.73162 2.07363 8.53995 2.55488 7.42467C3.03613 6.3094 3.68926 5.33926 4.51426 4.51426C5.33926 3.68926 6.3094 3.03613 7.42467 2.55488C8.53995 2.07363 9.73162 1.83301 10.9997 1.83301C12.2677 1.83301 13.4594 2.07363 14.5747 2.55488C15.69 3.03613 16.6601 3.68926 17.4851 4.51426C18.3101 5.33926 18.9632 6.3094 19.4445 7.42467C19.9257 8.53995 20.1663 9.73162 20.1663 10.9997C20.1663 12.2677 19.9257 13.4594 19.4445 14.5747C18.9632 15.69 18.3101 16.6601 17.4851 17.4851C16.6601 18.3101 15.69 18.9632 14.5747 19.4445C13.4594 19.9257 12.2677 20.1663 10.9997 20.1663ZM10.9997 18.333C13.0469 18.333 14.7809 17.6226 16.2018 16.2018C17.6226 14.7809 18.333 13.0469 18.333 10.9997C18.333 8.95245 17.6226 7.21842 16.2018 5.79759C14.7809 4.37676 13.0469 3.66634 10.9997 3.66634C8.95245 3.66634 7.21842 4.37676 5.79759 5.79759C4.37676 7.21842 3.66634 8.95245 3.66634 10.9997C3.66634 13.0469 4.37676 14.7809 5.79759 16.2018C7.21842 17.6226 8.95245 18.333 10.9997 18.333Z" fill="#1A1A1A"/>
</svg>
