<svg width="19" height="18" viewBox="0 0 19 18" fill="none" xmlns="http://www.w3.org/2000/svg">
<path fill-rule="evenodd" clip-rule="evenodd" d="M2.03188 2.55569C3.03878 1.49682 3.39463 1.19984 3.8237 1.06163C4.12064 0.98395 4.43207 0.979638 4.73105 1.04906C5.12466 1.16329 5.22878 1.2501 6.51944 2.53398C7.65334 3.66138 7.76662 3.7836 7.87532 4.00406C8.08316 4.39102 8.11563 4.84816 7.96457 5.26053C7.85015 5.57465 7.68767 5.78254 7 6.47131L6.55148 6.92022C6.43369 7.03972 6.406 7.22118 6.48282 7.37026C7.47935 9.06748 8.89317 10.4828 10.5905 11.4824C10.7859 11.5868 11.0265 11.5531 11.1855 11.399L11.6169 10.9752C11.8835 10.7024 12.1658 10.4453 12.4624 10.2053C12.9283 9.91977 13.5088 9.8943 13.9979 10.1379C14.2371 10.2522 14.316 10.323 15.4854 11.4881C16.6914 12.6886 16.7257 12.7263 16.8584 13.0015C17.1082 13.4572 17.1056 14.0091 16.8516 14.4625C16.7223 14.7183 16.6433 14.8109 15.9648 15.5031C15.5552 15.9211 15.1696 16.3026 15.1078 16.3586C14.5481 16.8213 13.8299 17.0482 13.1055 16.9914C11.7799 16.8708 10.497 16.4618 9.34676 15.7932C6.79878 14.4456 4.62968 12.482 3.03764 10.082C2.69088 9.57968 2.38259 9.05198 2.11541 8.50337C1.39866 7.27702 1.02853 5.87956 1.04444 4.45982C1.09916 3.71708 1.45595 3.02905 2.03188 2.55569Z" stroke="#075FB0" stroke-width="2" stroke-linecap="round" stroke-linejoin="round"/>
</svg>
