<svg width="24" height="24" viewBox="0 0 24 24" fill="none" xmlns="http://www.w3.org/2000/svg">
<path d="M10.5993 16.6L17.6493 9.55L16.2493 8.15L10.5993 13.8L7.74927 10.95L6.34927 12.35L10.5993 16.6ZM11.9993 22C10.6159 22 9.31593 21.7375 8.09927 21.2125C6.8826 20.6875 5.82427 19.975 4.92427 19.075C4.02427 18.175 3.31177 17.1167 2.78677 15.9C2.26177 14.6833 1.99927 13.3833 1.99927 12C1.99927 10.6167 2.26177 9.31667 2.78677 8.1C3.31177 6.88333 4.02427 5.825 4.92427 4.925C5.82427 4.025 6.8826 3.3125 8.09927 2.7875C9.31593 2.2625 10.6159 2 11.9993 2C13.3826 2 14.6826 2.2625 15.8993 2.7875C17.1159 3.3125 18.1743 4.025 19.0743 4.925C19.9743 5.825 20.6868 6.88333 21.2118 8.1C21.7368 9.31667 21.9993 10.6167 21.9993 12C21.9993 13.3833 21.7368 14.6833 21.2118 15.9C20.6868 17.1167 19.9743 18.175 19.0743 19.075C18.1743 19.975 17.1159 20.6875 15.8993 21.2125C14.6826 21.7375 13.3826 22 11.9993 22Z" fill="#E77213"/>
</svg>
