<svg width="18" height="18" viewBox="0 0 18 18" fill="none" xmlns="http://www.w3.org/2000/svg">
<path d="M10.9525 17.7949C11.4923 17.6781 11.8351 17.1458 11.7183 16.606C11.6015 16.0662 11.0692 15.7234 10.5294 15.8402L10.9525 17.7949ZM4.22324 14.1095C3.81871 13.7335 3.18597 13.7567 2.80997 14.1612C2.43398 14.5657 2.45711 15.1985 2.86164 15.5745L4.22324 14.1095ZM9.31932 2.00785C9.87116 2.02986 10.3364 1.60034 10.3584 1.0485C10.3804 0.496652 9.95086 0.0314503 9.39902 0.00944126L9.31932 2.00785ZM4.24252 2.58089L4.83572 3.38595L4.83658 3.38531L4.24252 2.58089ZM3.0348 2.27393C2.62232 2.64119 2.58565 3.27329 2.95291 3.68577C3.32016 4.09826 3.95226 4.13492 4.36475 3.76767L3.0348 2.27393ZM8.6765 15.9913C8.12466 15.9691 7.65929 16.3984 7.63706 16.9502C7.61483 17.5021 8.04416 17.9674 8.59599 17.9897L8.6765 15.9913ZM15.0874 15.611C15.4942 15.2374 15.5212 14.6048 15.1476 14.198C14.7741 13.7912 14.1415 13.7642 13.7347 14.1377L15.0874 15.611ZM7.04275 0.204216C6.50289 0.320732 6.15971 0.852826 6.27623 1.39268C6.39275 1.93253 6.92484 2.27572 7.46469 2.1592L7.04275 0.204216ZM13.7449 3.8699C14.1511 4.24411 14.7838 4.2182 15.158 3.81201C15.5322 3.40583 15.5063 2.7732 15.1001 2.39899L13.7449 3.8699ZM15.0992 2.39867C14.6927 2.02474 14.0601 2.0511 13.6862 2.45755C13.3123 2.86399 13.3386 3.49661 13.7451 3.87054L15.0992 2.39867ZM16.9956 9.00675L15.9956 9.00577L16.9956 9.00675ZM13.7351 14.1366C13.3279 14.5098 13.3003 15.1423 13.6735 15.5495C14.0466 15.9567 14.6792 15.9843 15.0863 15.6111L13.7351 14.1366ZM15.2521 3.69293C15.5605 3.23474 15.439 2.61334 14.9808 2.30498C14.5226 1.99662 13.9012 2.11809 13.5929 2.57627L15.2521 3.69293ZM13.5804 15.4306C13.8878 15.8894 14.509 16.012 14.9678 15.7046C15.4266 15.3971 15.5492 14.7759 15.2418 14.3172L13.5804 15.4306ZM2.86649 15.5729C3.27121 15.9486 3.90395 15.9252 4.27973 15.5205C4.65552 15.1157 4.63207 14.483 4.22735 14.1072L2.86649 15.5729ZM1.00067 8.89644L2.00059 8.90939L1.00067 8.89644ZM4.36125 3.77098C4.77557 3.4058 4.81541 2.77389 4.45023 2.35957C4.08505 1.94525 3.45314 1.90541 3.03881 2.27059L4.36125 3.77098ZM2.72513 14.2702C2.41043 14.7241 2.52324 15.3471 2.97709 15.6618C3.43094 15.9765 4.05398 15.8637 4.36868 15.4099L2.72513 14.2702ZM4.53627 2.47245C4.23344 2.0106 3.61353 1.88169 3.15168 2.18453C2.68983 2.48736 2.56092 3.10727 2.86376 3.56912L4.53627 2.47245ZM10.7409 16.8176L10.5294 15.8402C8.27081 16.3291 5.91589 15.6828 4.22324 14.1095L3.54244 14.842L2.86164 15.5745C5.03332 17.593 8.0547 18.4222 10.9525 17.7949L10.7409 16.8176ZM9.35917 1.00865L9.39902 0.00944126C7.33697 -0.0727985 5.30851 0.550506 3.64845 1.77648L4.24252 2.58089L4.83658 3.38531C6.13065 2.42963 7.71189 1.94374 9.31932 2.00785L9.35917 1.00865ZM4.24252 2.58089L3.64932 1.77584C3.43648 1.93266 3.23161 2.0987 3.0348 2.27393L3.69977 3.0208L4.36475 3.76767C4.51529 3.63363 4.67225 3.5064 4.83572 3.38595L4.24252 2.58089ZM8.63625 16.9905L8.59599 17.9897C10.9892 18.0861 13.3231 17.2308 15.0874 15.611L14.411 14.8743L13.7347 14.1377C12.36 15.4 10.5413 16.0664 8.6765 15.9913L8.63625 16.9905ZM7.25372 1.18171L7.46469 2.1592C9.71174 1.67422 12.0543 2.31231 13.7449 3.8699L14.4225 3.13444L15.1001 2.39899C12.931 0.400652 9.92563 -0.417999 7.04275 0.204216L7.25372 1.18171ZM14.4221 3.1346L13.7451 3.87054C15.1811 5.19169 15.9975 7.05444 15.9956 9.00577L16.9956 9.00675L17.9956 9.00772C17.998 6.49635 16.9474 4.099 15.0992 2.39867L14.4221 3.1346ZM16.9956 9.00675L15.9956 9.00577C15.9937 10.9571 15.1737 12.8183 13.7351 14.1366L14.4107 14.8739L15.0863 15.6111C16.9378 13.9144 17.9931 11.5191 17.9956 9.00772L16.9956 9.00675ZM14.4225 3.1346L13.5929 2.57627C10.9786 6.46088 10.9736 11.5409 13.5804 15.4306L14.4111 14.8739L15.2418 14.3172C13.0873 11.1023 13.0914 6.9036 15.2521 3.69293L14.4225 3.1346ZM3.54692 14.84L4.22735 14.1072C2.78401 12.7671 1.97507 10.8788 2.00059 8.90939L1.00067 8.89644L0.000753641 8.88348C-0.0320797 11.418 1.00898 13.8481 2.86649 15.5729L3.54692 14.84ZM1.00067 8.89644L2.00059 8.90939C2.0261 6.93998 2.88368 5.0733 4.36125 3.77098L3.70003 3.02078L3.03881 2.27059C1.13725 3.94661 0.0335871 6.34894 0.000753641 8.88348L1.00067 8.89644ZM3.5469 14.84L4.36868 15.4099C7.05582 11.5345 7.12213 6.4161 4.53627 2.47245L3.70001 3.02078L2.86376 3.56912C5.00263 6.83109 4.94779 11.0648 2.72513 14.2702L3.5469 14.84Z" fill="#075FB0"/>
</svg>
