<svg width="20" height="20" viewBox="0 0 20 20" fill="none" xmlns="http://www.w3.org/2000/svg">
<path d="M9.08301 14.583H10.9163V9.08301H9.08301V14.583ZM9.99967 7.24967C10.2594 7.24967 10.4771 7.16183 10.6528 6.98613C10.8285 6.81044 10.9163 6.59273 10.9163 6.33301C10.9163 6.07329 10.8285 5.85558 10.6528 5.67988C10.4771 5.50419 10.2594 5.41634 9.99967 5.41634C9.73995 5.41634 9.52224 5.50419 9.34655 5.67988C9.17086 5.85558 9.08301 6.07329 9.08301 6.33301C9.08301 6.59273 9.17086 6.81044 9.34655 6.98613C9.52224 7.16183 9.73995 7.24967 9.99967 7.24967ZM9.99967 19.1663C8.73162 19.1663 7.53995 18.9257 6.42467 18.4445C5.3094 17.9632 4.33926 17.3101 3.51426 16.4851C2.68926 15.6601 2.03613 14.69 1.55488 13.5747C1.07363 12.4594 0.833008 11.2677 0.833008 9.99967C0.833008 8.73162 1.07363 7.53995 1.55488 6.42467C2.03613 5.3094 2.68926 4.33926 3.51426 3.51426C4.33926 2.68926 5.3094 2.03613 6.42467 1.55488C7.53995 1.07363 8.73162 0.833008 9.99967 0.833008C11.2677 0.833008 12.4594 1.07363 13.5747 1.55488C14.69 2.03613 15.6601 2.68926 16.4851 3.51426C17.3101 4.33926 17.9632 5.3094 18.4445 6.42467C18.9257 7.53995 19.1663 8.73162 19.1663 9.99967C19.1663 11.2677 18.9257 12.4594 18.4445 13.5747C17.9632 14.69 17.3101 15.6601 16.4851 16.4851C15.6601 17.3101 14.69 17.9632 13.5747 18.4445C12.4594 18.9257 11.2677 19.1663 9.99967 19.1663ZM9.99967 17.333C12.0469 17.333 13.7809 16.6226 15.2018 15.2018C16.6226 13.7809 17.333 12.0469 17.333 9.99967C17.333 7.95245 16.6226 6.21842 15.2018 4.79759C13.7809 3.37676 12.0469 2.66634 9.99967 2.66634C7.95245 2.66634 6.21842 3.37676 4.79759 4.79759C3.37676 6.21842 2.66634 7.95245 2.66634 9.99967C2.66634 12.0469 3.37676 13.7809 4.79759 15.2018C6.21842 16.6226 7.95245 17.333 9.99967 17.333Z" fill="#1A1A1A"/>
</svg>
