<svg width="25" height="24" viewBox="0 0 25 24" fill="none" xmlns="http://www.w3.org/2000/svg">
<path d="M1.10831 20.0204V17.2312C1.10831 16.6667 1.25358 16.1479 1.54412 15.6747C1.83467 15.2015 2.22067 14.8404 2.70214 14.5914C3.7315 14.0767 4.77745 13.6907 5.84001 13.4334C6.90257 13.176 7.98173 13.0474 9.0775 13.0474C10.1733 13.0474 11.2524 13.176 12.315 13.4334C13.3775 13.6907 14.4235 14.0767 15.4529 14.5914C15.9343 14.8404 16.3203 15.2015 16.6109 15.6747C16.9014 16.1479 17.0467 16.6667 17.0467 17.2312V20.0204H1.10831ZM19.039 20.0204V17.032C19.039 16.3015 18.8356 15.6 18.4288 14.9276C18.0221 14.2552 17.4451 13.6783 16.698 13.1968C17.5448 13.2964 18.3417 13.4666 19.0888 13.7073C19.8359 13.9481 20.5332 14.2427 21.1807 14.5914C21.7784 14.9234 22.235 15.2929 22.5504 15.6996C22.8659 16.1064 23.0236 16.5505 23.0236 17.032V20.0204H19.039ZM9.0775 12.0512C7.98173 12.0512 7.04369 11.6611 6.26338 10.8807C5.48306 10.1004 5.0929 9.16239 5.0929 8.06663C5.0929 6.97086 5.48306 6.03282 6.26338 5.25251C7.04369 4.47219 7.98173 4.08203 9.0775 4.08203C10.1733 4.08203 11.1113 4.47219 11.8916 5.25251C12.6719 6.03282 13.0621 6.97086 13.0621 8.06663C13.0621 9.16239 12.6719 10.1004 11.8916 10.8807C11.1113 11.6611 10.1733 12.0512 9.0775 12.0512ZM19.039 8.06663C19.039 9.16239 18.6488 10.1004 17.8685 10.8807C17.0882 11.6611 16.1502 12.0512 15.0544 12.0512C14.8718 12.0512 14.6393 12.0305 14.3571 11.989C14.0748 11.9475 13.8424 11.9018 13.6598 11.852C14.108 11.3207 14.4526 10.7313 14.6933 10.0838C14.934 9.43633 15.0544 8.76393 15.0544 8.06663C15.0544 7.36932 14.934 6.69692 14.6933 6.04942C14.4526 5.40193 14.108 4.81254 13.6598 4.28126C13.8922 4.19825 14.1247 4.14429 14.3571 4.11939C14.5895 4.09448 14.822 4.08203 15.0544 4.08203C16.1502 4.08203 17.0882 4.47219 17.8685 5.25251C18.6488 6.03282 19.039 6.97086 19.039 8.06663ZM3.1006 18.0281H15.0544V17.2312C15.0544 17.0486 15.0087 16.8825 14.9174 16.7331C14.8261 16.5837 14.7057 16.4675 14.5563 16.3845C13.6598 15.9362 12.7549 15.6 11.8418 15.3759C10.9287 15.1517 10.0072 15.0397 9.0775 15.0397C8.14776 15.0397 7.22632 15.1517 6.31318 15.3759C5.40005 15.6 4.49521 15.9362 3.59868 16.3845C3.44926 16.4675 3.32889 16.5837 3.23758 16.7331C3.14626 16.8825 3.1006 17.0486 3.1006 17.2312V18.0281ZM9.0775 10.0589C9.62538 10.0589 10.0944 9.86384 10.4846 9.47369C10.8747 9.08353 11.0698 8.61451 11.0698 8.06663C11.0698 7.51874 10.8747 7.04972 10.4846 6.65957C10.0944 6.26941 9.62538 6.07433 9.0775 6.07433C8.52962 6.07433 8.0606 6.26941 7.67044 6.65957C7.28028 7.04972 7.0852 7.51874 7.0852 8.06663C7.0852 8.61451 7.28028 9.08353 7.67044 9.47369C8.0606 9.86384 8.52962 10.0589 9.0775 10.0589Z" fill="#075FB0"/>
</svg>
