<svg width="20" height="16" viewBox="0 0 20 16" fill="none" xmlns="http://www.w3.org/2000/svg">
<mask id="path-1-inside-1_1_4461" fill="white">
<path d="M10.1675 0.5C11.1715 0.500234 12.0276 1.26 12.3597 2.32713C12.5238 2.85446 12.9551 3.3125 13.5073 3.3125H16.3883C16.8563 3.3125 17.2617 3.63711 17.3641 4.09381L19.6473 14.2813C19.7874 14.9063 19.312 15.5 18.6715 15.5H1.66252C1.02203 15.5 0.546657 14.9063 0.686727 14.2813L2.96994 4.09381C3.07229 3.63711 3.47771 3.3125 3.94573 3.3125H6.82668C7.37897 3.3125 7.81018 2.85445 7.97437 2.32714C8.3067 1.25984 9.16326 0.5 10.1675 0.5Z"/>
</mask>
<path d="M10.1675 0.5L10.1679 -1.3H10.1675V0.5ZM7.97437 2.32714L6.25576 1.79201L7.97437 2.32714ZM19.6473 14.2813L17.8909 14.675L19.6473 14.2813ZM17.3641 4.09381L15.6077 4.48745L17.3641 4.09381ZM10.1675 0.5L10.1671 2.3C10.1974 2.30001 10.2588 2.30772 10.3509 2.38588C10.4494 2.46953 10.5675 2.62572 10.641 2.86206L12.3597 2.32713L14.0784 1.79219C13.5761 0.178337 12.1558 -1.29954 10.1679 -1.3L10.1675 0.5ZM13.5073 3.3125V5.1125H16.3883V3.3125V1.5125H13.5073V3.3125ZM17.3641 4.09381L15.6077 4.48745L17.8909 14.675L19.6473 14.2813L21.4037 13.8877L19.1205 3.70016L17.3641 4.09381ZM18.6715 15.5V13.7H1.66252V15.5V17.3H18.6715V15.5ZM0.686727 14.2813L2.44316 14.675L4.72636 4.48746L2.96994 4.09381L1.21351 3.70016L-1.0697 13.8877L0.686727 14.2813ZM3.94573 3.3125V5.1125H6.82668V3.3125V1.5125H3.94573V3.3125ZM7.97437 2.32714L9.69299 2.86227C9.76656 2.62596 9.88466 2.46971 9.98336 2.38599C10.0756 2.30773 10.1372 2.3 10.1675 2.3V0.5V-1.3C8.1794 -1.3 6.75838 0.177802 6.25576 1.79201L7.97437 2.32714ZM6.82668 3.3125V5.1125C8.45982 5.1125 9.39515 3.8188 9.69299 2.86227L7.97437 2.32714L6.25576 1.79201C6.25797 1.78491 6.26883 1.74638 6.33155 1.68904C6.40494 1.62195 6.57698 1.5125 6.82668 1.5125V3.3125ZM2.96994 4.09381L4.72636 4.48746C4.64448 4.85281 4.32015 5.1125 3.94573 5.1125V3.3125V1.5125C2.63527 1.5125 1.5001 2.42142 1.21351 3.70016L2.96994 4.09381ZM1.66252 15.5V13.7C2.17491 13.7 2.55521 14.175 2.44316 14.675L0.686727 14.2813L-1.0697 13.8877C-1.4619 15.6376 -0.130846 17.3 1.66252 17.3V15.5ZM19.6473 14.2813L17.8909 14.675C17.7788 14.175 18.1591 13.7 18.6715 13.7V15.5V17.3C20.4649 17.3 21.7959 15.6376 21.4037 13.8877L19.6473 14.2813ZM16.3883 3.3125V5.1125C16.0139 5.1125 15.6895 4.85281 15.6077 4.48745L17.3641 4.09381L19.1205 3.70016C18.8339 2.42142 17.6988 1.5125 16.3883 1.5125V3.3125ZM12.3597 2.32713L10.641 2.86206C10.9388 3.8188 11.8742 5.1125 13.5073 5.1125V3.3125V1.5125C13.757 1.5125 13.9291 1.62194 14.0025 1.68907C14.0653 1.74644 14.0762 1.78502 14.0784 1.79219L12.3597 2.32713Z" fill="#075FB0" mask="url(#path-1-inside-1_1_4461)"/>
</svg>
