<svg width="50" height="50" viewBox="0 0 50 50" fill="none" xmlns="http://www.w3.org/2000/svg">
<rect width="50" height="50" rx="6" fill="#00732B"/>
<path d="M24.9987 36.6673C23.3848 36.6673 21.8681 36.3611 20.4487 35.7486C19.0293 35.1361 17.7945 34.3048 16.7445 33.2548C15.6945 32.2048 14.8633 30.9701 14.2508 29.5507C13.6383 28.1312 13.332 26.6145 13.332 25.0007C13.332 23.3868 13.6383 21.8701 14.2508 20.4507C14.8633 19.0312 15.6945 17.7965 16.7445 16.7465C17.7945 15.6965 19.0293 14.8652 20.4487 14.2527C21.8681 13.6402 23.3848 13.334 24.9987 13.334C27.8376 13.334 30.3216 14.2236 32.4508 16.0027C34.5799 17.7819 35.907 20.0132 36.432 22.6965H34.0404C33.6709 21.277 33.0049 20.0083 32.0424 18.8902C31.0799 17.7722 29.8987 16.9312 28.4987 16.3673V16.834C28.4987 17.4757 28.2702 18.025 27.8133 18.4819C27.3563 18.9388 26.807 19.1673 26.1654 19.1673H23.832V21.5007C23.832 21.8312 23.7202 22.1083 23.4966 22.3319C23.273 22.5555 22.9959 22.6673 22.6654 22.6673H20.332V25.0007H22.6654V28.5007H21.4987L15.8987 22.9007C15.8404 23.2507 15.7869 23.6007 15.7383 23.9507C15.6897 24.3007 15.6654 24.6507 15.6654 25.0007C15.6654 27.5479 16.5598 29.7354 18.3487 31.5632C20.1376 33.3909 22.3543 34.3145 24.9987 34.334V36.6673ZM35.6154 36.084L31.882 32.3507C31.4737 32.584 31.0362 32.7784 30.5695 32.934C30.1029 33.0895 29.607 33.1673 29.082 33.1673C27.6237 33.1673 26.3841 32.6569 25.3633 31.6361C24.3424 30.6152 23.832 29.3757 23.832 27.9173C23.832 26.459 24.3424 25.2194 25.3633 24.1986C26.3841 23.1777 27.6237 22.6673 29.082 22.6673C30.5404 22.6673 31.7799 23.1777 32.8008 24.1986C33.8216 25.2194 34.332 26.459 34.332 27.9173C34.332 28.4423 34.2543 28.9382 34.0987 29.4048C33.9431 29.8715 33.7487 30.309 33.5154 30.7173L37.2487 34.4507L35.6154 36.084ZM29.082 30.834C29.8987 30.834 30.589 30.552 31.1529 29.9882C31.7168 29.4243 31.9987 28.734 31.9987 27.9173C31.9987 27.1007 31.7168 26.4104 31.1529 25.8465C30.589 25.2826 29.8987 25.0007 29.082 25.0007C28.2654 25.0007 27.5751 25.2826 27.0112 25.8465C26.4473 26.4104 26.1654 27.1007 26.1654 27.9173C26.1654 28.734 26.4473 29.4243 27.0112 29.9882C27.5751 30.552 28.2654 30.834 29.082 30.834Z" fill="white"/>
</svg>
