<svg width="15" height="12" viewBox="0 0 15 12" fill="none" xmlns="http://www.w3.org/2000/svg">
<path d="M7.5 9.06854C8.35227 9.06854 9.0767 8.77024 9.6733 8.17365C10.2699 7.57706 10.5682 6.85263 10.5682 6.00035C10.5682 5.14808 10.2699 4.42365 9.6733 3.82706C9.0767 3.23047 8.35227 2.93217 7.5 2.93217C6.64773 2.93217 5.9233 3.23047 5.3267 3.82706C4.73011 4.42365 4.43182 5.14808 4.43182 6.00035C4.43182 6.85263 4.73011 7.57706 5.3267 8.17365C5.9233 8.77024 6.64773 9.06854 7.5 9.06854ZM7.5 7.84126C6.98864 7.84126 6.55398 7.66229 6.19602 7.30433C5.83807 6.94638 5.65909 6.51172 5.65909 6.00035C5.65909 5.48899 5.83807 5.05433 6.19602 4.69638C6.55398 4.33842 6.98864 4.15945 7.5 4.15945C8.01136 4.15945 8.44602 4.33842 8.80398 4.69638C9.16193 5.05433 9.34091 5.48899 9.34091 6.00035C9.34091 6.51172 9.16193 6.94638 8.80398 7.30433C8.44602 7.66229 8.01136 7.84126 7.5 7.84126ZM7.5 11.114C5.84091 11.114 4.32955 10.6509 2.96591 9.72479C1.60227 8.79865 0.613636 7.55717 0 6.00035C0.613636 4.44354 1.60227 3.20206 2.96591 2.27592C4.32955 1.34979 5.84091 0.886719 7.5 0.886719C9.15909 0.886719 10.6705 1.34979 12.0341 2.27592C13.3977 3.20206 14.3864 4.44354 15 6.00035C14.3864 7.55717 13.3977 8.79865 12.0341 9.72479C10.6705 10.6509 9.15909 11.114 7.5 11.114ZM7.5 9.75035C8.78409 9.75035 9.96307 9.41229 11.0369 8.73615C12.1108 8.06001 12.9318 7.14808 13.5 6.00035C12.9318 4.85263 12.1108 3.9407 11.0369 3.26456C9.96307 2.58842 8.78409 2.25036 7.5 2.25036C6.21591 2.25036 5.03693 2.58842 3.96307 3.26456C2.8892 3.9407 2.06818 4.85263 1.5 6.00035C2.06818 7.14808 2.8892 8.06001 3.96307 8.73615C5.03693 9.41229 6.21591 9.75035 7.5 9.75035Z" fill="#075FB0"/>
</svg>
