<svg width="4" height="12" viewBox="0 0 4 12" fill="none" xmlns="http://www.w3.org/2000/svg">
<path d="M0.5 1.5C0.5 1.0875 0.646875 0.734375 0.940625 0.440625C1.23437 0.146875 1.5875 -8.3598e-08 2 -6.55671e-08C2.4125 -4.75361e-08 2.76562 0.146875 3.05937 0.440625C3.35312 0.734375 3.5 1.0875 3.5 1.5C3.5 1.9125 3.35312 2.26562 3.05937 2.55938C2.76562 2.85313 2.4125 3 2 3C1.5875 3 1.23437 2.85312 0.940625 2.55937C0.646875 2.26562 0.5 1.9125 0.5 1.5ZM0.5 6C0.5 5.5875 0.646875 5.23437 0.940625 4.94063C1.23437 4.64688 1.5875 4.5 2 4.5C2.4125 4.5 2.76562 4.64688 3.05937 4.94063C3.35312 5.23437 3.5 5.5875 3.5 6C3.5 6.4125 3.35312 6.76563 3.05937 7.05938C2.76562 7.35313 2.4125 7.5 2 7.5C1.5875 7.5 1.23437 7.35312 0.940625 7.05938C0.646875 6.76563 0.5 6.4125 0.5 6ZM0.5 10.5C0.5 10.0875 0.646874 9.73437 0.940625 9.44063C1.23437 9.14688 1.5875 9 2 9C2.4125 9 2.76562 9.14688 3.05937 9.44063C3.35312 9.73437 3.5 10.0875 3.5 10.5C3.5 10.9125 3.35312 11.2656 3.05937 11.5594C2.76562 11.8531 2.4125 12 2 12C1.5875 12 1.23437 11.8531 0.940624 11.5594C0.646874 11.2656 0.5 10.9125 0.5 10.5Z" fill="#075FB0"/>
</svg>
