<svg width="13" height="14" viewBox="0 0 13 14" fill="none" xmlns="http://www.w3.org/2000/svg">
<path d="M6.5 13.5C5.61167 13.5 4.77208 13.3294 3.98125 12.9881C3.19042 12.6469 2.49979 12.181 1.90937 11.5906C1.31896 11.0002 0.853125 10.3096 0.511875 9.51875C0.170625 8.72792 0 7.88833 0 7C0 6.10083 0.170625 5.25854 0.511875 4.47312C0.853125 3.68771 1.31896 2.99979 1.90937 2.40937C2.49979 1.81896 3.19042 1.35312 3.98125 1.01187C4.77208 0.670625 5.61167 0.5 6.5 0.5C7.39917 0.5 8.24146 0.670625 9.02687 1.01187C9.81229 1.35312 10.5002 1.81896 11.0906 2.40937C11.681 2.99979 12.1469 3.68771 12.4881 4.47312C12.8294 5.25854 13 6.10083 13 7C13 7.88833 12.8294 8.72792 12.4881 9.51875C12.1469 10.3096 11.681 11.0002 11.0906 11.5906C10.5002 12.181 9.81229 12.6469 9.02687 12.9881C8.24146 13.3294 7.39917 13.5 6.5 13.5ZM6.5 12.1675C6.78167 11.7775 7.02542 11.3712 7.23125 10.9487C7.43708 10.5262 7.605 10.0767 7.735 9.6H5.265C5.395 10.0767 5.56292 10.5262 5.76875 10.9487C5.97458 11.3712 6.21833 11.7775 6.5 12.1675ZM4.81 11.9075C4.615 11.55 4.44438 11.179 4.29812 10.7944C4.15188 10.4098 4.03 10.0117 3.9325 9.6H2.015C2.32917 10.1417 2.72187 10.6129 3.19312 11.0138C3.66437 11.4146 4.20333 11.7125 4.81 11.9075ZM8.19 11.9075C8.79667 11.7125 9.33562 11.4146 9.80687 11.0138C10.2781 10.6129 10.6708 10.1417 10.985 9.6H9.0675C8.97 10.0117 8.84812 10.4098 8.70187 10.7944C8.55562 11.179 8.385 11.55 8.19 11.9075ZM1.4625 8.3H3.6725C3.64 8.08333 3.61562 7.86937 3.59937 7.65812C3.58312 7.44687 3.575 7.2275 3.575 7C3.575 6.7725 3.58312 6.55312 3.59937 6.34187C3.61562 6.13062 3.64 5.91667 3.6725 5.7H1.4625C1.40833 5.91667 1.36771 6.13062 1.34062 6.34187C1.31354 6.55312 1.3 6.7725 1.3 7C1.3 7.2275 1.31354 7.44687 1.34062 7.65812C1.36771 7.86937 1.40833 8.08333 1.4625 8.3ZM4.9725 8.3H8.0275C8.06 8.08333 8.08437 7.86937 8.10063 7.65812C8.11687 7.44687 8.125 7.2275 8.125 7C8.125 6.7725 8.11687 6.55312 8.10063 6.34187C8.08437 6.13062 8.06 5.91667 8.0275 5.7H4.9725C4.94 5.91667 4.91562 6.13062 4.89937 6.34187C4.88312 6.55312 4.875 6.7725 4.875 7C4.875 7.2275 4.88312 7.44687 4.89937 7.65812C4.91562 7.86937 4.94 8.08333 4.9725 8.3ZM9.3275 8.3H11.5375C11.5917 8.08333 11.6323 7.86937 11.6594 7.65812C11.6865 7.44687 11.7 7.2275 11.7 7C11.7 6.7725 11.6865 6.55312 11.6594 6.34187C11.6323 6.13062 11.5917 5.91667 11.5375 5.7H9.3275C9.36 5.91667 9.38437 6.13062 9.40062 6.34187C9.41687 6.55312 9.425 6.7725 9.425 7C9.425 7.2275 9.41687 7.44687 9.40062 7.65812C9.38437 7.86937 9.36 8.08333 9.3275 8.3ZM9.0675 4.4H10.985C10.6708 3.85833 10.2781 3.38708 9.80687 2.98625C9.33562 2.58542 8.79667 2.2875 8.19 2.0925C8.385 2.45 8.55562 2.82104 8.70187 3.20562C8.84812 3.59021 8.97 3.98833 9.0675 4.4ZM5.265 4.4H7.735C7.605 3.92333 7.43708 3.47375 7.23125 3.05125C7.02542 2.62875 6.78167 2.2225 6.5 1.8325C6.21833 2.2225 5.97458 2.62875 5.76875 3.05125C5.56292 3.47375 5.395 3.92333 5.265 4.4ZM2.015 4.4H3.9325C4.03 3.98833 4.15188 3.59021 4.29812 3.20562C4.44438 2.82104 4.615 2.45 4.81 2.0925C4.20333 2.2875 3.66437 2.58542 3.19312 2.98625C2.72187 3.38708 2.32917 3.85833 2.015 4.4Z" fill="#075FB0"/>
</svg>
