<svg width="16" height="16" viewBox="0 0 16 16" fill="none" xmlns="http://www.w3.org/2000/svg">
<path d="M2.0375 7.32227H4.175C4.1 6.84727 3.95625 6.40352 3.74375 5.99102C3.53125 5.57852 3.2625 5.20977 2.9375 4.88477C2.7125 5.24727 2.52187 5.63164 2.36562 6.03789C2.20937 6.44414 2.1 6.87227 2.0375 7.32227ZM11.825 7.32227H13.9625C13.9 6.87227 13.7906 6.44414 13.6344 6.03789C13.4781 5.63164 13.2875 5.24727 13.0625 4.88477C12.7375 5.20977 12.4687 5.57852 12.2562 5.99102C12.0437 6.40352 11.9 6.84727 11.825 7.32227ZM2.9375 11.2598C3.2625 10.9348 3.53125 10.566 3.74375 10.1535C3.95625 9.74102 4.1 9.29727 4.175 8.82226H2.0375C2.1 9.27227 2.20937 9.70039 2.36562 10.1066C2.52187 10.5129 2.7125 10.8973 2.9375 11.2598ZM13.0625 11.2598C13.2875 10.8973 13.4781 10.5129 13.6344 10.1066C13.7906 9.70039 13.9 9.27227 13.9625 8.82226H11.825C11.9 9.29727 12.0437 9.74102 12.2562 10.1535C12.4687 10.566 12.7375 10.9348 13.0625 11.2598ZM5.7125 7.32227H7.25V2.10977C6.5875 2.20977 5.97187 2.39414 5.40312 2.66289C4.83437 2.93164 4.325 3.28477 3.875 3.72227C4.3625 4.19727 4.76562 4.73789 5.08437 5.34414C5.40312 5.95039 5.6125 6.60977 5.7125 7.32227ZM8.75 7.32227H10.2875C10.3875 6.60977 10.5969 5.95039 10.9156 5.34414C11.2344 4.73789 11.6375 4.19727 12.125 3.72227C11.675 3.28477 11.1656 2.93164 10.5969 2.66289C10.0281 2.39414 9.4125 2.20977 8.75 2.10977V7.32227ZM7.25 14.0348V8.82226H5.7125C5.6125 9.53477 5.40312 10.1941 5.08437 10.8004C4.76562 11.4066 4.3625 11.9473 3.875 12.4223C4.325 12.8598 4.83437 13.2129 5.40312 13.4816C5.97187 13.7504 6.5875 13.9348 7.25 14.0348ZM8.75 14.0348C9.4125 13.9348 10.0281 13.7504 10.5969 13.4816C11.1656 13.2129 11.675 12.8598 12.125 12.4223C11.6375 11.9473 11.2344 11.4066 10.9156 10.8004C10.5969 10.1941 10.3875 9.53477 10.2875 8.82226H8.75V14.0348ZM8 15.5723C6.9625 15.5723 5.9875 15.3754 5.075 14.9816C4.1625 14.5879 3.36875 14.0535 2.69375 13.3785C2.01875 12.7035 1.48437 11.9098 1.09062 10.9973C0.696875 10.0848 0.5 9.10977 0.5 8.07227C0.5 7.03477 0.696875 6.05977 1.09062 5.14727C1.48437 4.23477 2.01875 3.44102 2.69375 2.76602C3.36875 2.09102 4.1625 1.55664 5.075 1.16289C5.9875 0.769141 6.9625 0.572266 8 0.572266C9.0375 0.572266 10.0125 0.769141 10.925 1.16289C11.8375 1.55664 12.6312 2.09102 13.3062 2.76602C13.9812 3.44102 14.5156 4.23477 14.9094 5.14727C15.3031 6.05977 15.5 7.03477 15.5 8.07227C15.5 9.10977 15.3031 10.0848 14.9094 10.9973C14.5156 11.9098 13.9812 12.7035 13.3062 13.3785C12.6312 14.0535 11.8375 14.5879 10.925 14.9816C10.0125 15.3754 9.0375 15.5723 8 15.5723Z" fill="white"/>
</svg>
