<svg width="15" height="15" viewBox="0 0 15 15" fill="none" xmlns="http://www.w3.org/2000/svg">
<path d="M1.5375 6.75H3.675C3.6 6.275 3.45625 5.83125 3.24375 5.41875C3.03125 5.00625 2.7625 4.6375 2.4375 4.3125C2.2125 4.675 2.02187 5.05937 1.86562 5.46562C1.70937 5.87187 1.6 6.3 1.5375 6.75ZM11.325 6.75H13.4625C13.4 6.3 13.2906 5.87187 13.1344 5.46562C12.9781 5.05937 12.7875 4.675 12.5625 4.3125C12.2375 4.6375 11.9687 5.00625 11.7562 5.41875C11.5437 5.83125 11.4 6.275 11.325 6.75ZM2.4375 10.6875C2.7625 10.3625 3.03125 9.99375 3.24375 9.58125C3.45625 9.16875 3.6 8.725 3.675 8.25H1.5375C1.6 8.7 1.70937 9.12812 1.86562 9.53437C2.02187 9.94062 2.2125 10.325 2.4375 10.6875ZM12.5625 10.6875C12.7875 10.325 12.9781 9.94062 13.1344 9.53437C13.2906 9.12812 13.4 8.7 13.4625 8.25H11.325C11.4 8.725 11.5437 9.16875 11.7562 9.58125C11.9687 9.99375 12.2375 10.3625 12.5625 10.6875ZM5.2125 6.75H6.75V1.5375C6.0875 1.6375 5.47187 1.82187 4.90312 2.09062C4.33437 2.35937 3.825 2.7125 3.375 3.15C3.8625 3.625 4.26562 4.16563 4.58437 4.77187C4.90312 5.37812 5.1125 6.0375 5.2125 6.75ZM8.25 6.75H9.7875C9.8875 6.0375 10.0969 5.37812 10.4156 4.77187C10.7344 4.16563 11.1375 3.625 11.625 3.15C11.175 2.7125 10.6656 2.35937 10.0969 2.09062C9.52812 1.82187 8.9125 1.6375 8.25 1.5375V6.75ZM6.75 13.4625V8.25H5.2125C5.1125 8.9625 4.90312 9.62187 4.58437 10.2281C4.26562 10.8344 3.8625 11.375 3.375 11.85C3.825 12.2875 4.33437 12.6406 4.90312 12.9094C5.47187 13.1781 6.0875 13.3625 6.75 13.4625ZM8.25 13.4625C8.9125 13.3625 9.52812 13.1781 10.0969 12.9094C10.6656 12.6406 11.175 12.2875 11.625 11.85C11.1375 11.375 10.7344 10.8344 10.4156 10.2281C10.0969 9.62187 9.8875 8.9625 9.7875 8.25H8.25V13.4625ZM7.5 15C6.4625 15 5.4875 14.8031 4.575 14.4094C3.6625 14.0156 2.86875 13.4812 2.19375 12.8062C1.51875 12.1312 0.984375 11.3375 0.590625 10.425C0.196875 9.5125 0 8.5375 0 7.5C0 6.4625 0.196875 5.4875 0.590625 4.575C0.984375 3.6625 1.51875 2.86875 2.19375 2.19375C2.86875 1.51875 3.6625 0.984375 4.575 0.590625C5.4875 0.196875 6.4625 0 7.5 0C8.5375 0 9.5125 0.196875 10.425 0.590625C11.3375 0.984375 12.1312 1.51875 12.8062 2.19375C13.4812 2.86875 14.0156 3.6625 14.4094 4.575C14.8031 5.4875 15 6.4625 15 7.5C15 8.5375 14.8031 9.5125 14.4094 10.425C14.0156 11.3375 13.4812 12.1312 12.8062 12.8062C12.1312 13.4812 11.3375 14.0156 10.425 14.4094C9.5125 14.8031 8.5375 15 7.5 15Z" fill="#00732B"/>
</svg>
