<svg width="14" height="14" viewBox="0 0 14 14" fill="none" xmlns="http://www.w3.org/2000/svg">
<path d="M4.70476 13.5L3.52857 11.519L1.3 11.0238L1.51667 8.73333L0 7L1.51667 5.26667L1.3 2.97619L3.52857 2.48095L4.70476 0.5L6.80952 1.39762L8.91429 0.5L10.0905 2.48095L12.319 2.97619L12.1024 5.26667L13.619 7L12.1024 8.73333L12.319 11.0238L10.0905 11.519L8.91429 13.5L6.80952 12.6024L4.70476 13.5ZM5.23095 11.9214L6.80952 11.2405L8.41905 11.9214L9.28572 10.4357L10.9881 10.0333L10.8333 8.3L11.9786 7L10.8333 5.66905L10.9881 3.93571L9.28572 3.56429L8.3881 2.07857L6.80952 2.75952L5.2 2.07857L4.33333 3.56429L2.63095 3.93571L2.78571 5.66905L1.64048 7L2.78571 8.3L2.63095 10.0643L4.33333 10.4357L5.23095 11.9214ZM6.15952 9.19762L9.65714 5.7L8.79048 4.80238L6.15952 7.43333L4.82857 6.13333L3.96191 7L6.15952 9.19762Z" fill="#075FB0"/>
</svg>
