<svg width="13" height="14" viewBox="0 0 13 14" fill="none" xmlns="http://www.w3.org/2000/svg">
<path d="M1.44444 12.0556H2.47361L9.53333 4.99583L8.50417 3.96667L1.44444 11.0264V12.0556ZM0 13.5V10.4306L9.53333 0.915278C9.67778 0.78287 9.83727 0.680556 10.0118 0.608333C10.1863 0.536111 10.3699 0.5 10.5625 0.5C10.7551 0.5 10.9417 0.536111 11.1222 0.608333C11.3028 0.680556 11.4593 0.788889 11.5917 0.933333L12.5847 1.94444C12.7292 2.07685 12.8345 2.23333 12.9007 2.41389C12.9669 2.59444 13 2.775 13 2.95556C13 3.14815 12.9669 3.33171 12.9007 3.50625C12.8345 3.68079 12.7292 3.84028 12.5847 3.98472L3.06944 13.5H0ZM9.00972 4.49028L8.50417 3.96667L9.53333 4.99583L9.00972 4.49028Z" fill="#075FB0"/>
</svg>
