<svg width="26" height="26" viewBox="0 0 26 26" fill="none" xmlns="http://www.w3.org/2000/svg">
<path d="M7.58331 19.5C5.77776 19.5 4.24304 18.8681 2.97915 17.6042C1.71526 16.3403 1.08331 14.8056 1.08331 13C1.08331 11.1944 1.71526 9.65972 2.97915 8.39583C4.24304 7.13194 5.77776 6.5 7.58331 6.5H18.4166C20.2222 6.5 21.7569 7.13194 23.0208 8.39583C24.2847 9.65972 24.9166 11.1944 24.9166 13C24.9166 14.8056 24.2847 16.3403 23.0208 17.6042C21.7569 18.8681 20.2222 19.5 18.4166 19.5H7.58331ZM7.58331 17.3333H18.4166C19.6083 17.3333 20.6285 16.909 21.4771 16.0604C22.3257 15.2118 22.75 14.1917 22.75 13C22.75 11.8083 22.3257 10.7882 21.4771 9.93958C20.6285 9.09097 19.6083 8.66667 18.4166 8.66667H7.58331C6.39165 8.66667 5.37151 9.09097 4.5229 9.93958C3.67428 10.7882 3.24998 11.8083 3.24998 13C3.24998 14.1917 3.67428 15.2118 4.5229 16.0604C5.37151 16.909 6.39165 17.3333 7.58331 17.3333ZM18.4166 16.25C19.3194 16.25 20.0868 15.934 20.7187 15.3021C21.3507 14.6701 21.6666 13.9028 21.6666 13C21.6666 12.0972 21.3507 11.3299 20.7187 10.6979C20.0868 10.066 19.3194 9.75 18.4166 9.75C17.5139 9.75 16.7465 10.066 16.1146 10.6979C15.4826 11.3299 15.1666 12.0972 15.1666 13C15.1666 13.9028 15.4826 14.6701 16.1146 15.3021C16.7465 15.934 17.5139 16.25 18.4166 16.25Z" fill="#00732B"/>
</svg>
