<svg width="24" height="14" viewBox="0 0 24 14" fill="none" xmlns="http://www.w3.org/2000/svg">
<path d="M17.4166 13.5C19.2222 13.5 20.7569 12.8681 22.0208 11.6042C23.2847 10.3403 23.9166 8.80556 23.9166 7C23.9166 5.19444 23.2847 3.65972 22.0208 2.39583C20.7569 1.13194 19.2222 0.5 17.4166 0.5H6.58329C4.77774 0.5 3.24302 1.13194 1.97913 2.39583C0.715239 3.65972 0.0832939 5.19444 0.0832939 7C0.0832939 8.80556 0.715239 10.3403 1.97913 11.6042C3.24302 12.8681 4.77774 13.5 6.58329 13.5H17.4166ZM17.4166 11.3333H6.58329C5.39163 11.3333 4.37149 10.909 3.52288 10.0604C2.67427 9.21181 2.24996 8.19167 2.24996 7C2.24996 5.80833 2.67427 4.78819 3.52288 3.93958C4.37149 3.09097 5.39163 2.66667 6.58329 2.66667H17.4166C18.6083 2.66667 19.6284 3.09097 20.477 3.93958C21.3257 4.78819 21.75 5.80833 21.75 7C21.75 8.19167 21.3257 9.21181 20.477 10.0604C19.6284 10.909 18.6083 11.3333 17.4166 11.3333ZM6.58329 10.25C5.68052 10.25 4.91315 9.93403 4.28121 9.30208C3.64927 8.67014 3.33329 7.90278 3.33329 7C3.33329 6.09722 3.64927 5.32986 4.28121 4.69792C4.91315 4.06597 5.68052 3.75 6.58329 3.75C7.48607 3.75 8.25343 4.06597 8.88538 4.69792C9.51732 5.32986 9.83329 6.09722 9.83329 7C9.83329 7.90278 9.51732 8.67014 8.88538 9.30208C8.25343 9.93403 7.48607 10.25 6.58329 10.25Z" fill="#E77213"/>
</svg>
