<svg width="17" height="18" viewBox="0 0 17 18" fill="none" xmlns="http://www.w3.org/2000/svg">
<path d="M8.66732 17.3337V14.7712L13.2715 10.1878C13.3965 10.0628 13.5354 9.97255 13.6882 9.91699C13.8409 9.86144 13.9937 9.83366 14.1465 9.83366C14.3132 9.83366 14.4729 9.86491 14.6257 9.92741C14.7784 9.98991 14.9173 10.0837 15.0423 10.2087L15.8132 10.9795C15.9243 11.1045 16.0111 11.2434 16.0736 11.3962C16.1361 11.5489 16.1673 11.7017 16.1673 11.8545C16.1673 12.0073 16.1395 12.1635 16.084 12.3232C16.0284 12.483 15.9382 12.6253 15.8132 12.7503L11.2298 17.3337H8.66732ZM9.91732 16.0837H10.709L13.2298 13.542L12.8548 13.1462L12.459 12.7712L9.91732 15.292V16.0837ZM2.00065 17.3337C1.54232 17.3337 1.14996 17.1705 0.823568 16.8441C0.497179 16.5177 0.333984 16.1253 0.333984 15.667V2.33366C0.333984 1.87533 0.497179 1.48296 0.823568 1.15658C1.14996 0.830187 1.54232 0.666992 2.00065 0.666992H8.66732L13.6673 5.66699V8.16699H12.0007V6.50033H7.83398V2.33366H2.00065V15.667H7.00065V17.3337H2.00065ZM12.8548 13.1462L12.459 12.7712L13.2298 13.542L12.8548 13.1462Z" fill="#00732B"/>
</svg>
