<svg width="24" height="24" viewBox="0 0 24 24" fill="none" xmlns="http://www.w3.org/2000/svg">
<path d="M4.98094 21.9174C4.15073 21.9174 3.44505 21.6269 2.86391 21.0457C2.28276 20.4646 1.99219 19.7589 1.99219 18.9287C1.99219 18.2811 2.17898 17.7041 2.55258 17.1977C2.92617 16.6913 3.40354 16.3301 3.98469 16.1143V7.79559C3.40354 7.57973 2.92617 7.21859 2.55258 6.71217C2.17898 6.20574 1.99219 5.62874 1.99219 4.98118C1.99219 4.15097 2.28276 3.4453 2.86391 2.86415C3.44505 2.283 4.15073 1.99243 4.98094 1.99243C5.6285 1.99243 6.20549 2.17923 6.71192 2.55282C7.21835 2.92642 7.57949 3.40379 7.79534 3.98493H16.114C16.3133 3.40379 16.6661 2.92642 17.1725 2.55282C17.679 2.17923 18.2643 1.99243 18.9284 1.99243C19.7586 1.99243 20.4643 2.283 21.0455 2.86415C21.6266 3.4453 21.9172 4.15097 21.9172 4.98118C21.9172 5.64535 21.7304 6.23065 21.3568 6.73707C20.9832 7.2435 20.5058 7.59634 19.9247 7.79559V16.1143C20.5058 16.3301 20.9832 16.6913 21.3568 17.1977C21.7304 17.7041 21.9172 18.2811 21.9172 18.9287C21.9172 19.7589 21.6266 20.4646 21.0455 21.0457C20.4643 21.6269 19.7586 21.9174 18.9284 21.9174C18.2809 21.9174 17.7039 21.7306 17.1975 21.357C16.691 20.9834 16.3299 20.5061 16.114 19.9249H7.79534C7.57949 20.5061 7.21835 20.9834 6.71192 21.357C6.20549 21.7306 5.6285 21.9174 4.98094 21.9174ZM4.98094 5.97743C5.26321 5.97743 5.49982 5.88196 5.69077 5.69101C5.88171 5.50006 5.97719 5.26345 5.97719 4.98118C5.97719 4.69891 5.88171 4.4623 5.69077 4.27135C5.49982 4.08041 5.26321 3.98493 4.98094 3.98493C4.69867 3.98493 4.46206 4.08041 4.27111 4.27135C4.08016 4.4623 3.98469 4.69891 3.98469 4.98118C3.98469 5.26345 4.08016 5.50006 4.27111 5.69101C4.46206 5.88196 4.69867 5.97743 4.98094 5.97743ZM18.9284 5.97743C19.2107 5.97743 19.4473 5.88196 19.6383 5.69101C19.8292 5.50006 19.9247 5.26345 19.9247 4.98118C19.9247 4.69891 19.8292 4.4623 19.6383 4.27135C19.4473 4.08041 19.2107 3.98493 18.9284 3.98493C18.6462 3.98493 18.4096 4.08041 18.2186 4.27135C18.0277 4.4623 17.9322 4.69891 17.9322 4.98118C17.9322 5.26345 18.0277 5.50006 18.2186 5.69101C18.4096 5.88196 18.6462 5.97743 18.9284 5.97743ZM7.79534 17.9324H16.114C16.2635 17.5007 16.4959 17.1271 16.8114 16.8117C17.1269 16.4962 17.5005 16.2637 17.9322 16.1143V7.79559C17.5005 7.64615 17.1269 7.41369 16.8114 7.09821C16.4959 6.78273 16.2635 6.40914 16.114 5.97743H7.79534C7.64591 6.40914 7.41345 6.78273 7.09797 7.09821C6.78249 7.41369 6.4089 7.64615 5.97719 7.79559V16.1143C6.4089 16.2637 6.78249 16.4962 7.09797 16.8117C7.41345 17.1271 7.64591 17.5007 7.79534 17.9324ZM18.9284 19.9249C19.2107 19.9249 19.4473 19.8295 19.6383 19.6385C19.8292 19.4476 19.9247 19.211 19.9247 18.9287C19.9247 18.6464 19.8292 18.4098 19.6383 18.2189C19.4473 18.0279 19.2107 17.9324 18.9284 17.9324C18.6462 17.9324 18.4096 18.0279 18.2186 18.2189C18.0277 18.4098 17.9322 18.6464 17.9322 18.9287C17.9322 19.211 18.0277 19.4476 18.2186 19.6385C18.4096 19.8295 18.6462 19.9249 18.9284 19.9249ZM4.98094 19.9249C5.26321 19.9249 5.49982 19.8295 5.69077 19.6385C5.88171 19.4476 5.97719 19.211 5.97719 18.9287C5.97719 18.6464 5.88171 18.4098 5.69077 18.2189C5.49982 18.0279 5.26321 17.9324 4.98094 17.9324C4.69867 17.9324 4.46206 18.0279 4.27111 18.2189C4.08016 18.4098 3.98469 18.6464 3.98469 18.9287C3.98469 19.211 4.08016 19.4476 4.27111 19.6385C4.46206 19.8295 4.69867 19.9249 4.98094 19.9249Z" fill="#E77213"/>
</svg>
