<svg width="24" height="24" viewBox="0 0 24 24" fill="none" xmlns="http://www.w3.org/2000/svg">
<path d="M16.9356 16.9362C17.3507 16.9362 17.7036 16.7909 17.9941 16.5003C18.2847 16.2097 18.43 15.8569 18.43 15.4418C18.43 15.0267 18.2847 14.6739 17.9941 14.3833C17.7036 14.0927 17.3507 13.9474 16.9356 13.9474C16.5205 13.9474 16.1677 14.0927 15.8771 14.3833C15.5865 14.6739 15.4412 15.0267 15.4412 15.4418C15.4412 15.8569 15.5865 16.2097 15.8771 16.5003C16.1677 16.7909 16.5205 16.9362 16.9356 16.9362ZM16.9356 19.9249C17.4504 19.9249 17.9236 19.8046 18.3553 19.5638C18.787 19.323 19.1357 19.0034 19.4013 18.6049C19.0361 18.389 18.6459 18.223 18.2307 18.1068C17.8156 17.9905 17.3839 17.9324 16.9356 17.9324C16.4873 17.9324 16.0556 17.9905 15.6405 18.1068C15.2254 18.223 14.8352 18.389 14.4699 18.6049C14.7356 19.0034 15.0843 19.323 15.516 19.5638C15.9477 19.8046 16.4209 19.9249 16.9356 19.9249ZM11.9544 21.9174C9.6464 21.3363 7.74107 20.0121 6.23839 17.9449C4.73571 15.8777 3.98438 13.5821 3.98438 11.0583V4.98118L11.9544 1.99243L19.9244 4.98118V10.6349C19.6089 10.5021 19.2851 10.3817 18.953 10.2738C18.6209 10.1658 18.2806 10.087 17.9319 10.0372V6.37593L11.9544 4.13437L5.97687 6.37593V11.0583C5.97687 11.8387 6.08065 12.6191 6.2882 13.3995C6.49575 14.1799 6.78633 14.9229 7.15992 15.6286C7.53352 16.3343 7.98598 16.986 8.51731 17.5837C9.04865 18.1815 9.63809 18.6796 10.2857 19.0781C10.4683 19.6095 10.7091 20.1159 11.0079 20.5974C11.3068 21.0789 11.6472 21.5106 12.0291 21.8925C12.0125 21.8925 12 21.8967 11.9917 21.905C11.9834 21.9133 11.971 21.9174 11.9544 21.9174ZM16.9356 21.9174C15.5575 21.9174 14.3827 21.4318 13.4114 20.4604C12.44 19.4891 11.9544 18.3143 11.9544 16.9362C11.9544 15.558 12.44 14.3833 13.4114 13.4119C14.3827 12.4406 15.5575 11.9549 16.9356 11.9549C18.3138 11.9549 19.4885 12.4406 20.4599 13.4119C21.4312 14.3833 21.9169 15.558 21.9169 16.9362C21.9169 18.3143 21.4312 19.4891 20.4599 20.4604C19.4885 21.4318 18.3138 21.9174 16.9356 21.9174Z" fill="#00732B"/>
</svg>
