<svg width="20" height="20" viewBox="0 0 20 20" fill="none" xmlns="http://www.w3.org/2000/svg">
<path d="M6.99996 14.166L9.99996 11.166L13 14.166L14.1666 12.9993L11.1666 9.99935L14.1666 6.99935L13 5.83268L9.99996 8.83268L6.99996 5.83268L5.83329 6.99935L8.83329 9.99935L5.83329 12.9993L6.99996 14.166ZM9.99996 18.3327C8.84718 18.3327 7.76385 18.1139 6.74996 17.6764C5.73607 17.2389 4.85413 16.6452 4.10413 15.8952C3.35413 15.1452 2.76038 14.2632 2.32288 13.2493C1.88538 12.2355 1.66663 11.1521 1.66663 9.99935C1.66663 8.84657 1.88538 7.76324 2.32288 6.74935C2.76038 5.73546 3.35413 4.85352 4.10413 4.10352C4.85413 3.35352 5.73607 2.75977 6.74996 2.32227C7.76385 1.88477 8.84718 1.66602 9.99996 1.66602C11.1527 1.66602 12.2361 1.88477 13.25 2.32227C14.2638 2.75977 15.1458 3.35352 15.8958 4.10352C16.6458 4.85352 17.2395 5.73546 17.677 6.74935C18.1145 7.76324 18.3333 8.84657 18.3333 9.99935C18.3333 11.1521 18.1145 12.2355 17.677 13.2493C17.2395 14.2632 16.6458 15.1452 15.8958 15.8952C15.1458 16.6452 14.2638 17.2389 13.25 17.6764C12.2361 18.1139 11.1527 18.3327 9.99996 18.3327ZM9.99996 16.666C11.8611 16.666 13.4375 16.0202 14.7291 14.7285C16.0208 13.4368 16.6666 11.8605 16.6666 9.99935C16.6666 8.13824 16.0208 6.56185 14.7291 5.27018C13.4375 3.97852 11.8611 3.33268 9.99996 3.33268C8.13885 3.33268 6.56246 3.97852 5.27079 5.27018C3.97913 6.56185 3.33329 8.13824 3.33329 9.99935C3.33329 11.8605 3.97913 13.4368 5.27079 14.7285C6.56246 16.0202 8.13885 16.666 9.99996 16.666Z" fill="#F46C6C"/>
</svg>
