<svg width="20" height="20" viewBox="0 0 20 20" fill="none" xmlns="http://www.w3.org/2000/svg">
<path d="M11.6673 18.3327V15.7702L16.2715 11.1868C16.3965 11.0618 16.5354 10.9716 16.6882 10.916C16.8409 10.8605 16.9937 10.8327 17.1465 10.8327C17.3132 10.8327 17.4729 10.8639 17.6257 10.9264C17.7784 10.9889 17.9173 11.0827 18.0423 11.2077L18.8132 11.9785C18.9243 12.1035 19.0111 12.2424 19.0736 12.3952C19.1361 12.548 19.1673 12.7007 19.1673 12.8535C19.1673 13.0063 19.1395 13.1625 19.084 13.3223C19.0284 13.482 18.9382 13.6243 18.8132 13.7493L14.2298 18.3327H11.6673ZM12.9173 17.0827H13.709L16.2298 14.541L15.8548 14.1452L15.459 13.7702L12.9173 16.291V17.0827ZM5.00065 18.3327C4.54232 18.3327 4.14996 18.1695 3.82357 17.8431C3.49718 17.5167 3.33398 17.1243 3.33398 16.666V3.33268C3.33398 2.87435 3.49718 2.48199 3.82357 2.1556C4.14996 1.82921 4.54232 1.66602 5.00065 1.66602H11.6673L16.6673 6.66602V9.16602H15.0007V7.49935H10.834V3.33268H5.00065V16.666H10.0007V18.3327H5.00065ZM15.8548 14.1452L15.459 13.7702L16.2298 14.541L15.8548 14.1452Z" fill="#075FB0"/>
</svg>
