<svg width="4" height="14" viewBox="0 0 4 14" fill="none" xmlns="http://www.w3.org/2000/svg">
<path d="M4.00342e-07 1.75C4.21378e-07 1.26875 0.171354 0.856771 0.514063 0.514062C0.856771 0.171354 1.26875 -9.7531e-08 1.75 -7.64949e-08C2.23125 -5.54588e-08 2.64323 0.171354 2.98594 0.514062C3.32865 0.856771 3.5 1.26875 3.5 1.75C3.5 2.23125 3.32865 2.64323 2.98594 2.98594C2.64323 3.32865 2.23125 3.5 1.75 3.5C1.26875 3.5 0.856771 3.32865 0.514063 2.98594C0.171354 2.64323 3.79306e-07 2.23125 4.00342e-07 1.75ZM1.70857e-07 7C1.91894e-07 6.51875 0.171354 6.10677 0.514063 5.76406C0.856771 5.42135 1.26875 5.25 1.75 5.25C2.23125 5.25 2.64323 5.42135 2.98594 5.76406C3.32865 6.10677 3.5 6.51875 3.5 7C3.5 7.48125 3.32865 7.89323 2.98594 8.23594C2.64323 8.57864 2.23125 8.75 1.75 8.75C1.26875 8.75 0.856771 8.57864 0.514063 8.23594C0.171354 7.89323 1.49821e-07 7.48125 1.70857e-07 7ZM-5.86273e-08 12.25C-3.75912e-08 11.7687 0.171354 11.3568 0.514062 11.0141C0.856771 10.6714 1.26875 10.5 1.75 10.5C2.23125 10.5 2.64323 10.6714 2.98594 11.0141C3.32865 11.3568 3.5 11.7687 3.5 12.25C3.5 12.7312 3.32865 13.1432 2.98594 13.4859C2.64323 13.8286 2.23125 14 1.75 14C1.26875 14 0.85677 13.8286 0.514062 13.4859C0.171354 13.1432 -7.96634e-08 12.7312 -5.86273e-08 12.25Z" fill="white"/>
</svg>
