<svg width="14" height="16" viewBox="0 0 14 16" fill="none" xmlns="http://www.w3.org/2000/svg">
<path d="M9.75 11.75C10.0625 11.75 10.3281 11.6406 10.5469 11.4219C10.7656 11.2031 10.875 10.9375 10.875 10.625C10.875 10.3125 10.7656 10.0469 10.5469 9.82812C10.3281 9.60937 10.0625 9.5 9.75 9.5C9.4375 9.5 9.17188 9.60937 8.95312 9.82812C8.73438 10.0469 8.625 10.3125 8.625 10.625C8.625 10.9375 8.73438 11.2031 8.95312 11.4219C9.17188 11.6406 9.4375 11.75 9.75 11.75ZM9.75 14C10.1375 14 10.4938 13.9094 10.8188 13.7281C11.1438 13.5469 11.4062 13.3062 11.6063 13.0062C11.3313 12.8437 11.0375 12.7187 10.725 12.6312C10.4125 12.5437 10.0875 12.5 9.75 12.5C9.4125 12.5 9.0875 12.5437 8.775 12.6312C8.4625 12.7187 8.16875 12.8437 7.89375 13.0062C8.09375 13.3062 8.35625 13.5469 8.68125 13.7281C9.00625 13.9094 9.3625 14 9.75 14ZM6 15.5C4.2625 15.0625 2.82812 14.0656 1.69688 12.5094C0.565625 10.9531 0 9.225 0 7.325V2.75L6 0.5L12 2.75V7.00625C11.7625 6.90625 11.5188 6.81562 11.2688 6.73437C11.0188 6.65312 10.7625 6.59375 10.5 6.55625V3.8L6 2.1125L1.5 3.8V7.325C1.5 7.9125 1.57813 8.5 1.73438 9.0875C1.89063 9.675 2.10938 10.2344 2.39062 10.7656C2.67188 11.2969 3.0125 11.7875 3.4125 12.2375C3.8125 12.6875 4.25625 13.0625 4.74375 13.3625C4.88125 13.7625 5.0625 14.1437 5.2875 14.5062C5.5125 14.8687 5.76875 15.1937 6.05625 15.4812C6.04375 15.4812 6.03438 15.4844 6.02813 15.4906C6.02188 15.4969 6.0125 15.5 6 15.5ZM9.75 15.5C8.7125 15.5 7.82813 15.1344 7.09688 14.4031C6.36563 13.6719 6 12.7875 6 11.75C6 10.7125 6.36563 9.82812 7.09688 9.09687C7.82813 8.36562 8.7125 8 9.75 8C10.7875 8 11.6719 8.36562 12.4031 9.09687C13.1344 9.82812 13.5 10.7125 13.5 11.75C13.5 12.7875 13.1344 13.6719 12.4031 14.4031C11.6719 15.1344 10.7875 15.5 9.75 15.5Z" fill="white"/>
</svg>
