<svg width="24" height="24" viewBox="0 0 24 24" fill="none" xmlns="http://www.w3.org/2000/svg">
<path d="M6.97262 17.9325C5.3122 17.9325 3.90085 17.3514 2.73855 16.1891C1.57626 15.0268 0.995117 13.6155 0.995117 11.955C0.995117 10.2946 1.57626 8.88327 2.73855 7.72098C3.90085 6.55868 5.3122 5.97754 6.97262 5.97754H16.9351C18.5955 5.97754 20.0069 6.55868 21.1692 7.72098C22.3315 8.88327 22.9126 10.2946 22.9126 11.955C22.9126 13.6155 22.3315 15.0268 21.1692 16.1891C20.0069 17.3514 18.5955 17.9325 16.9351 17.9325H6.97262ZM6.97262 15.94H16.9351C18.031 15.94 18.9691 15.5498 19.7495 14.7694C20.5299 13.989 20.9201 13.0509 20.9201 11.955C20.9201 10.8592 20.5299 9.92103 19.7495 9.14063C18.9691 8.36024 18.031 7.97004 16.9351 7.97004H6.97262C5.87674 7.97004 4.93861 8.36024 4.15821 9.14063C3.37782 9.92103 2.98762 10.8592 2.98762 11.955C2.98762 13.0509 3.37782 13.989 4.15821 14.7694C4.93861 15.5498 5.87674 15.94 6.97262 15.94ZM16.9351 14.9438C17.7653 14.9438 18.471 14.6532 19.0521 14.0721C19.6333 13.4909 19.9239 12.7852 19.9239 11.955C19.9239 11.1248 19.6333 10.4192 19.0521 9.83801C18.471 9.25686 17.7653 8.96629 16.9351 8.96629C16.1049 8.96629 15.3992 9.25686 14.8181 9.83801C14.2369 10.4192 13.9464 11.1248 13.9464 11.955C13.9464 12.7852 14.2369 13.4909 14.8181 14.0721C15.3992 14.6532 16.1049 14.9438 16.9351 14.9438Z" fill="#7C4DFF"/>
</svg>
