<svg width="24" height="24" viewBox="0 0 24 24" fill="none" xmlns="http://www.w3.org/2000/svg">
<path d="M6.97359 17.9325C5.31318 17.9325 3.90182 17.3514 2.73953 16.1891C1.57724 15.0268 0.996094 13.6155 0.996094 11.955C0.996094 10.2946 1.57724 8.88327 2.73953 7.72098C3.90182 6.55868 5.31318 5.97754 6.97359 5.97754H16.9361C18.5965 5.97754 20.0079 6.55868 21.1702 7.72098C22.3324 8.88327 22.9136 10.2946 22.9136 11.955C22.9136 13.6155 22.3324 15.0268 21.1702 16.1891C20.0079 17.3514 18.5965 17.9325 16.9361 17.9325H6.97359ZM6.97359 15.94H16.9361C18.032 15.94 18.9701 15.5498 19.7505 14.7694C20.5309 13.989 20.9211 13.0509 20.9211 11.955C20.9211 10.8592 20.5309 9.92103 19.7505 9.14063C18.9701 8.36024 18.032 7.97004 16.9361 7.97004H6.97359C5.87772 7.97004 4.93958 8.36024 4.15919 9.14063C3.37879 9.92103 2.98859 10.8592 2.98859 11.955C2.98859 13.0509 3.37879 13.989 4.15919 14.7694C4.93958 15.5498 5.87772 15.94 6.97359 15.94ZM6.97359 14.9438C7.8038 14.9438 8.50948 14.6532 9.09062 14.0721C9.67177 13.4909 9.96234 12.7852 9.96234 11.955C9.96234 11.1248 9.67177 10.4192 9.09062 9.83801C8.50948 9.25686 7.8038 8.96629 6.97359 8.96629C6.14339 8.96629 5.43771 9.25686 4.85656 9.83801C4.27542 10.4192 3.98484 11.1248 3.98484 11.955C3.98484 12.7852 4.27542 13.4909 4.85656 14.0721C5.43771 14.6532 6.14339 14.9438 6.97359 14.9438Z" fill="#0097A7"/>
</svg>
